<svg width="36" height="40" viewBox="0 0 36 40" fill="none" xmlns="http://www.w3.org/2000/svg">
<g clip-path="url(#clip0_10655_2925)">
<path d="M18.0199 1.99995C8.06792 1.99995 -9.15527e-05 10.0683 -9.15527e-05 20.0205C-9.15527e-05 21.8615 0.277491 23.638 0.790638 25.3109C4.88193 19.5394 9.33398 14.3547 13.982 10.0486C14.154 9.88964 14.5408 9.49312 14.9747 9.27174C15.158 9.1793 15.3589 9.1202 15.5167 9.1202C15.6667 9.1202 15.7208 9.16881 15.7476 9.31376C15.8731 10.2008 15.8936 12.8572 15.6233 15.5193C15.3017 18.6873 14.6659 21.8491 14.6659 21.8491C15.3423 21.0999 23.7985 9.75626 25.0704 8.00675C25.147 7.90167 25.2773 7.69817 25.5042 7.61541C25.6103 7.57655 25.7337 7.55107 25.8601 7.55107C26.0468 7.55107 26.1658 7.60149 26.2437 7.66846C26.3821 7.78664 26.4179 8.29745 26.432 8.44791C26.5455 9.67881 26.6361 10.9795 26.7051 12.3793C26.791 14.1091 26.9126 21.0986 26.9192 21.2162C26.9462 21.7551 26.9599 23.1792 27.3317 23.2711C27.5298 23.3355 28.7548 22.8772 29.5682 23.0978C30.4731 23.3434 30.8106 25.6426 30.7822 26.4717C30.7722 26.75 30.6811 26.8559 30.5592 26.9049C30.2439 27.0318 29.6559 26.9916 28.7785 27.2616C26.8436 27.8564 24.8577 29.306 24.4611 29.044C23.8797 28.654 24.0086 24.8849 24.0149 24.5139C24.0212 24.143 23.9556 19.9444 23.9556 19.9444C20.722 22.9429 15.9752 27.4349 13.4268 29.1577C12.5442 29.7543 11.3233 30.5185 10.8446 30.3386C9.9892 30.0183 10.8582 26.3062 11.068 25.4299C11.5148 23.5567 11.9777 21.9377 12.3856 20.5098C12.7406 19.2681 13.0421 18.208 13.2391 17.3151C13.4969 16.1457 13.4799 14.9437 13.4686 14.7861C13.3297 14.8943 13.191 15.0046 13.0521 15.1149C8.8818 18.405 5.06022 22.0755 1.42326 27.0507C4.16258 33.5097 10.5623 38.0406 18.0199 38.0406C27.9725 38.0406 36.0405 29.9731 36.0405 20.0205C36.0405 10.0683 27.9725 1.99995 18.0199 1.99995Z" fill="#333333"/>
</g>
<defs>
<clipPath id="clip0_10655_2925">
<rect width="36" height="36.0406" fill="white" transform="translate(0 2)"/>
</clipPath>
</defs>
</svg>
