<svg width="16" height="16" viewBox="0 0 16 16" fill="none" xmlns="http://www.w3.org/2000/svg">
<path d="M15.4781 7.87066C15.1289 7.75865 14.603 7.99086 14.5181 7.95849C14.3584 7.91182 14.3526 7.19073 14.341 6.91799C14.3382 6.85847 14.286 3.3201 14.249 2.44432C14.2194 1.73591 14.1806 1.07746 14.1318 0.454211C14.1258 0.378122 14.1104 0.11923 14.051 0.0597029C14.0175 0.0258551 13.9666 0 13.8864 0C13.8321 0 13.7791 0.0131645 13.7336 0.0326738C13.6362 0.0743408 13.5802 0.177583 13.5473 0.230765C13.0013 1.11648 9.37132 6.85927 9.08088 7.23834C9.08088 7.23834 9.35386 5.63777 9.49189 4.03407C9.60797 2.68633 9.5992 1.3417 9.54516 0.892536C9.53374 0.81917 9.51049 0.79449 9.44603 0.79449C9.37835 0.79449 9.29205 0.824241 9.21353 0.871378C9.02718 0.983289 8.86102 1.1841 8.78731 1.26461C6.39845 3.87453 4.12677 7.11541 2.10192 10.7497C1.50418 11.9343 0.922402 13.2009 0.365358 14.5569C0.242234 14.8565 0.0759983 15.3253 0.0366959 15.4727C0.0230415 15.5242 0.0155958 15.5676 0.0114567 15.6071C-0.0200674 15.7994 0.0139393 15.9298 0.107607 15.9833C0.213603 16.0435 0.346576 15.935 0.430809 15.7518C0.433622 15.7462 0.437346 15.7405 0.439911 15.7355C2.89083 9.83296 5.43697 6.57482 8.38806 3.82916C8.44764 3.77353 8.50721 3.71773 8.56688 3.6628C8.57167 3.74261 8.57904 4.35102 8.46832 4.94302C8.38384 5.39509 8.25435 5.93178 8.10201 6.56018C7.92685 7.28323 7.72817 8.1029 7.53628 9.05106C7.44642 9.49486 7.07325 11.3739 7.44047 11.5362C7.64601 11.6271 8.17011 11.2405 8.54909 10.9382C9.64296 10.0662 11.6806 7.79209 13.0686 6.27398C13.0686 6.27398 13.0969 8.39973 13.0942 8.58756C13.0915 8.77521 13.0362 10.6831 13.2857 10.8806C13.4558 11.0132 14.3085 10.2796 15.139 9.97835C15.5158 9.84193 15.7682 9.86224 15.9036 9.79782C15.9558 9.77294 15.9951 9.71948 15.9993 9.57847C16.0116 9.15888 15.8667 7.99506 15.4781 7.87066Z" fill="#E51162"/>
</svg>
