<svg width="36" height="37" viewBox="0 0 36 37" fill="none" xmlns="http://www.w3.org/2000/svg">
<g clip-path="url(#clip0_10655_2921)">
<path d="M18.0199 -4.57764e-05C8.06792 -4.57764e-05 -9.15527e-05 8.06827 -9.15527e-05 18.0205C-9.15527e-05 19.8615 0.277491 21.638 0.790638 23.3109C4.88193 17.5394 9.33398 12.3547 13.982 8.04857C14.154 7.88964 14.5408 7.49312 14.9747 7.27174C15.158 7.1793 15.3589 7.1202 15.5167 7.1202C15.6667 7.1202 15.7208 7.16881 15.7476 7.31376C15.8731 8.20084 15.8936 10.8572 15.6233 13.5193C15.3017 16.6873 14.6659 19.8491 14.6659 19.8491C15.3423 19.0999 23.7985 7.75626 25.0704 6.00675C25.147 5.90167 25.2773 5.69817 25.5042 5.61541C25.6103 5.57655 25.7337 5.55107 25.8601 5.55107C26.0468 5.55107 26.1658 5.60149 26.2437 5.66846C26.3821 5.78664 26.4179 6.29745 26.432 6.44791C26.5455 7.67881 26.6361 8.97949 26.7051 10.3793C26.791 12.1091 26.9126 19.0986 26.9192 19.2162C26.9462 19.7551 26.9599 21.1792 27.3317 21.2711C27.5298 21.3355 28.7548 20.8772 29.5682 21.0978C30.4731 21.3434 30.8106 23.6426 30.7822 24.4717C30.7722 24.75 30.6811 24.8559 30.5592 24.9049C30.2439 25.0318 29.6559 24.9916 28.7785 25.2616C26.8436 25.8564 24.8577 27.306 24.4611 27.044C23.8797 26.654 24.0086 22.8849 24.0149 22.5139C24.0212 22.143 23.9556 17.9444 23.9556 17.9444C20.722 20.9429 15.9752 25.4349 13.4268 27.1577C12.5442 27.7543 11.3233 28.5185 10.8446 28.3386C9.9892 28.0183 10.8582 24.3062 11.068 23.4299C11.5148 21.5567 11.9777 19.9377 12.3856 18.5098C12.7406 17.2681 13.0421 16.208 13.2391 15.3151C13.4969 14.1457 13.4799 12.9437 13.4686 12.7861C13.3297 12.8943 13.191 13.0046 13.0521 13.1149C8.8818 16.405 5.06022 20.0755 1.42326 25.0507C4.16258 31.5097 10.5623 36.0406 18.0199 36.0406C27.9725 36.0406 36.0405 27.9731 36.0405 18.0205C36.0405 8.06827 27.9725 -4.57764e-05 18.0199 -4.57764e-05Z" fill="#DB0A5B"/>
</g>
<defs>
<clipPath id="clip0_10655_2921">
<rect width="36" height="36.0406" fill="white"/>
</clipPath>
</defs>
</svg>
