<svg width="512" height="512" viewBox="0 0 512 512" fill="none" xmlns="http://www.w3.org/2000/svg">
<g opacity="0.2">
<path d="M238.211 70.8579C348.392 70.8579 437.711 160.177 437.711 270.358C437.711 380.539 348.392 469.858 238.211 469.858C128.03 469.858 38.7109 380.539 38.7109 270.358C38.7109 160.177 128.03 70.8579 238.211 70.8579Z" fill="#007BFF" stroke="#007BFF"/>
</g>
<mask id="mask0_9405_46280" style="mask-type:luminance" maskUnits="userSpaceOnUse" x="208" y="41" width="266" height="199">
<path d="M461.471 41.642H221.219C214.416 41.642 208.901 47.1569 208.901 53.96V227.603C208.901 234.406 214.416 239.921 221.219 239.921H461.471C468.274 239.921 473.789 234.406 473.789 227.603V53.96C473.789 47.1569 468.274 41.642 461.471 41.642Z" fill="white"/>
</mask>
<g mask="url(#mask0_9405_46280)">
<path d="M461.47 41.642H221.218C214.415 41.642 208.9 47.1569 208.9 53.96V227.603C208.9 234.406 214.415 239.921 221.218 239.921H461.47C468.273 239.921 473.788 234.406 473.788 227.603V53.96C473.788 47.1569 468.273 41.642 461.47 41.642Z" fill="white"/>
<path d="M461.47 240.715H221.218C217.741 240.711 214.408 239.328 211.95 236.869C209.491 234.411 208.109 231.077 208.105 227.6V53.9589C208.109 50.4825 209.492 47.1495 211.951 44.6914C214.409 42.2332 217.742 40.8506 221.218 40.8469H461.47C464.947 40.8506 468.28 42.2332 470.738 44.6914C473.197 47.1495 474.58 50.4825 474.583 53.9589V227.6C474.58 231.077 473.198 234.411 470.739 236.869C468.281 239.328 464.947 240.711 461.47 240.715ZM221.218 42.4369C218.164 42.4414 215.237 43.6569 213.077 45.8168C210.918 47.9767 209.703 50.9048 209.699 53.9589V227.6C209.703 230.655 210.919 233.584 213.079 235.744C215.239 237.904 218.168 239.119 221.223 239.123H461.47C464.526 239.119 467.454 237.904 469.615 235.744C471.775 233.584 472.99 230.655 472.993 227.6V53.9589C472.99 50.9041 471.775 47.9754 469.614 45.8154C467.454 43.6554 464.525 42.4404 461.47 42.4369H221.218Z" fill="#001933"/>
<path d="M481.034 35.4299V63.0872H197.783V35.4299H481.034Z" fill="#001933" stroke="#001933"/>
</g>
<path d="M421.508 56.617C423.647 56.617 425.381 54.883 425.381 52.744C425.381 50.605 423.647 48.871 421.508 48.871C419.369 48.871 417.635 50.605 417.635 52.744C417.635 54.883 419.369 56.617 421.508 56.617Z" fill="white"/>
<path d="M438.354 56.617C440.493 56.617 442.227 54.883 442.227 52.744C442.227 50.605 440.493 48.871 438.354 48.871C436.215 48.871 434.481 50.605 434.481 52.744C434.481 54.883 436.215 56.617 438.354 56.617Z" fill="white"/>
<path d="M455.2 56.617C457.339 56.617 459.073 54.883 459.073 52.744C459.073 50.605 457.339 48.871 455.2 48.871C453.061 48.871 451.327 50.605 451.327 52.744C451.327 54.883 453.061 56.617 455.2 56.617Z" fill="white"/>
<path d="M341.345 91.9698C341.397 91.9698 341.45 91.9836 341.495 92.0099L393.085 121.796L393.087 121.797C393.132 121.823 393.169 121.86 393.195 121.904C393.208 121.927 393.218 121.951 393.225 121.976L393.235 122.052V181.623C393.235 181.674 393.22 181.724 393.194 181.769C393.168 181.814 393.13 181.852 393.085 181.878L341.501 211.662C341.455 211.687 341.404 211.701 341.352 211.7H341.344C341.292 211.7 341.24 211.686 341.195 211.66L289.604 181.874C289.559 181.848 289.521 181.81 289.495 181.765C289.482 181.742 289.472 181.718 289.465 181.693L289.454 181.616V122.052C289.454 122 289.468 121.949 289.494 121.904C289.52 121.86 289.557 121.823 289.602 121.797L289.604 121.796L341.195 92.0099C341.241 91.9837 341.292 91.9699 341.345 91.9698ZM392.646 122.222L392.396 122.077L341.595 92.7501L341.345 92.6056L341.095 92.7501L290.295 122.077L290.045 122.222V181.448L290.295 181.593L341.095 210.921L341.345 211.066L341.595 210.921L392.396 181.593L392.646 181.448V122.222Z" fill="#001933" stroke="#001933"/>
<path d="M341.34 91.97C341.418 91.97 341.494 92.0006 341.549 92.0559C341.604 92.1112 341.635 92.1867 341.635 92.2649V211.404C341.634 211.482 341.602 211.556 341.547 211.612C341.492 211.666 341.418 211.698 341.341 211.699C341.263 211.698 341.188 211.668 341.133 211.613C341.077 211.556 341.045 211.479 341.045 211.4V92.2649C341.045 92.1867 341.076 92.1112 341.131 92.0559C341.186 92.0006 341.262 91.97 341.34 91.97Z" fill="#001933" stroke="#001933"/>
<path d="M289.778 121.747C289.817 121.753 289.855 121.767 289.888 121.788L289.902 121.796L393.083 181.368C393.139 181.401 393.183 181.451 393.208 181.511C393.232 181.571 393.236 181.637 393.219 181.7C393.202 181.763 393.165 181.818 393.114 181.857C393.062 181.897 392.999 181.918 392.934 181.918H392.933C392.882 181.918 392.831 181.905 392.787 181.879L392.785 181.878L289.607 122.306L289.593 122.298L289.543 122.266C289.528 122.253 289.515 122.239 289.502 122.224C289.478 122.193 289.46 122.157 289.449 122.119C289.438 122.081 289.434 122.041 289.439 122.002C289.444 121.963 289.457 121.925 289.477 121.891C289.497 121.856 289.523 121.826 289.554 121.803C289.586 121.779 289.622 121.761 289.661 121.752C289.699 121.742 289.739 121.741 289.778 121.747Z" fill="#001933" stroke="#001933"/>
<path d="M393.01 121.766C393.048 121.776 393.083 121.794 393.114 121.817C393.144 121.841 393.17 121.871 393.189 121.904C393.208 121.938 393.221 121.974 393.226 122.013C393.231 122.051 393.228 122.09 393.218 122.127C393.208 122.164 393.191 122.2 393.167 122.23C393.156 122.246 393.143 122.26 393.128 122.272L393.082 122.306L289.902 181.878C289.857 181.904 289.806 181.917 289.753 181.917C289.689 181.917 289.626 181.897 289.575 181.857C289.523 181.818 289.485 181.763 289.468 181.7C289.451 181.637 289.456 181.571 289.481 181.511C289.506 181.451 289.549 181.4 289.605 181.367L392.788 121.796L392.787 121.795C392.82 121.776 392.858 121.765 392.896 121.76C392.934 121.755 392.973 121.757 393.01 121.766Z" fill="#001933" stroke="#001933"/>
<path d="M289.754 137.547L274.623 130.956V113.44L289.754 120.03V137.547Z" fill="white"/>
<path d="M289.754 138.341C289.645 138.341 289.537 138.318 289.437 138.275L274.305 131.685C274.163 131.623 274.043 131.522 273.958 131.392C273.873 131.263 273.828 131.112 273.828 130.957V113.44C273.828 113.308 273.861 113.178 273.924 113.062C273.986 112.946 274.077 112.848 274.187 112.775C274.298 112.703 274.424 112.659 274.556 112.648C274.687 112.637 274.819 112.658 274.94 112.711L290.072 119.302C290.214 119.364 290.335 119.465 290.419 119.595C290.504 119.724 290.549 119.875 290.549 120.03V137.546C290.55 137.651 290.53 137.755 290.49 137.852C290.45 137.949 290.392 138.037 290.318 138.111C290.244 138.186 290.156 138.245 290.06 138.285C289.963 138.325 289.859 138.346 289.754 138.346V138.341ZM275.417 130.436L288.959 136.336V120.551L275.417 114.651V130.436Z" fill="#001933"/>
<path d="M289.754 137.547L304.886 130.956V113.44L289.754 120.03V137.547Z" fill="white"/>
<path d="M289.754 138.341C289.542 138.341 289.338 138.257 289.188 138.107C289.038 137.957 288.954 137.753 288.954 137.541V120.03C288.954 119.875 288.999 119.724 289.084 119.595C289.169 119.465 289.29 119.364 289.432 119.302L304.563 112.711C304.684 112.66 304.816 112.639 304.947 112.65C305.078 112.662 305.204 112.706 305.314 112.778C305.425 112.85 305.515 112.948 305.578 113.064C305.641 113.179 305.675 113.308 305.676 113.44V130.957C305.676 131.112 305.631 131.263 305.546 131.392C305.461 131.522 305.34 131.623 305.198 131.685L290.067 138.275C289.968 138.318 289.862 138.34 289.754 138.341ZM290.549 120.551V136.333L304.091 130.433V114.653L290.549 120.551Z" fill="#001933"/>
<path d="M304.886 113.267L289.754 120.276L274.847 113.353L289.698 108.153L304.886 113.267Z" fill="white"/>
<path d="M289.754 121.071C289.639 121.071 289.525 121.046 289.42 120.997L274.513 114.074C274.37 114.008 274.25 113.9 274.168 113.765C274.086 113.63 274.046 113.473 274.054 113.315C274.061 113.157 274.116 113.005 274.21 112.879C274.305 112.752 274.435 112.656 274.584 112.604L289.435 107.404C289.603 107.348 289.785 107.348 289.952 107.404L305.139 112.521C305.29 112.572 305.422 112.667 305.518 112.793C305.614 112.92 305.67 113.072 305.679 113.231C305.687 113.389 305.648 113.547 305.567 113.683C305.485 113.819 305.364 113.928 305.22 113.995L290.088 121C289.983 121.047 289.869 121.071 289.754 121.071ZM276.954 113.457L289.754 119.4L302.742 113.383L289.702 108.991L276.954 113.457Z" fill="#001933"/>
<path d="M339.491 166.535L324.359 159.945V142.429L339.491 149.019V166.535Z" fill="white"/>
<path d="M339.491 167.33C339.382 167.33 339.273 167.307 339.173 167.264L324.042 160.673C323.9 160.611 323.779 160.51 323.694 160.38C323.609 160.251 323.564 160.1 323.564 159.945V142.429C323.564 142.297 323.597 142.167 323.66 142.051C323.722 141.935 323.813 141.836 323.923 141.764C324.033 141.692 324.16 141.648 324.291 141.637C324.423 141.626 324.555 141.647 324.676 141.7L339.808 148.29C339.95 148.352 340.07 148.454 340.155 148.584C340.24 148.713 340.285 148.864 340.286 149.019V166.535C340.286 166.747 340.202 166.951 340.052 167.101C339.902 167.251 339.698 167.335 339.486 167.335L339.491 167.33ZM325.154 159.424L338.696 165.324V149.539L325.154 143.639V159.424Z" fill="#001933"/>
<path d="M339.491 166.535L354.622 159.945V142.429L339.491 149.019V166.535Z" fill="white"/>
<path d="M339.491 167.33C339.386 167.33 339.282 167.309 339.185 167.269C339.089 167.229 339.001 167.17 338.927 167.095C338.853 167.021 338.795 166.933 338.755 166.836C338.715 166.739 338.695 166.635 338.696 166.53V149.019C338.696 148.864 338.741 148.713 338.825 148.583C338.91 148.454 339.031 148.352 339.173 148.29L354.305 141.7C354.426 141.647 354.558 141.626 354.689 141.637C354.821 141.648 354.947 141.692 355.058 141.764C355.168 141.836 355.259 141.935 355.321 142.051C355.384 142.167 355.417 142.297 355.417 142.429V159.945C355.417 160.1 355.371 160.251 355.287 160.38C355.202 160.51 355.081 160.611 354.939 160.673L339.808 167.264C339.708 167.307 339.6 167.33 339.491 167.33ZM340.291 149.539V165.322L353.832 159.422V143.642L340.291 149.539Z" fill="#001933"/>
<path d="M354.622 142.255L339.491 149.265L324.584 142.342L339.434 137.142L354.622 142.255Z" fill="white"/>
<path d="M339.491 150.06C339.375 150.06 339.261 150.034 339.156 149.985L324.249 143.062C324.106 142.995 323.985 142.888 323.904 142.752C323.822 142.617 323.782 142.461 323.79 142.303C323.798 142.145 323.852 141.993 323.947 141.866C324.042 141.74 324.172 141.644 324.321 141.592L339.172 136.392C339.34 136.335 339.521 136.335 339.688 136.392L354.875 141.508C355.026 141.558 355.158 141.653 355.255 141.78C355.351 141.906 355.408 142.059 355.416 142.217C355.425 142.376 355.386 142.534 355.304 142.67C355.222 142.807 355.101 142.915 354.956 142.982L339.825 149.992C339.72 150.038 339.606 150.062 339.491 150.06ZM326.691 142.445L339.491 148.389L352.479 142.372L339.439 137.979L326.691 142.445Z" fill="#001933"/>
<path d="M341.345 226.107L326.213 219.517V202.001L341.345 208.591V226.107Z" fill="white"/>
<path d="M341.345 226.9C341.236 226.9 341.128 226.877 341.028 226.833L325.896 220.243C325.754 220.181 325.633 220.08 325.548 219.95C325.463 219.821 325.418 219.67 325.418 219.515V202C325.419 201.869 325.453 201.739 325.516 201.624C325.579 201.509 325.67 201.411 325.78 201.339C325.89 201.267 326.016 201.223 326.147 201.211C326.278 201.2 326.41 201.221 326.531 201.272L341.663 207.862C341.805 207.924 341.926 208.026 342.01 208.155C342.095 208.285 342.14 208.436 342.14 208.591V226.107C342.139 226.317 342.054 226.519 341.906 226.668C341.757 226.817 341.555 226.901 341.345 226.902V226.9ZM327.008 219L340.55 224.9V209.111L327.008 203.211V219Z" fill="#001933"/>
<path d="M341.345 226.107L356.477 219.517V202.001L341.345 208.591V226.107Z" fill="white"/>
<path d="M341.345 226.9C341.134 226.9 340.931 226.816 340.781 226.667C340.631 226.518 340.546 226.316 340.545 226.105V208.591C340.546 208.436 340.591 208.285 340.676 208.156C340.761 208.026 340.881 207.924 341.023 207.862L356.154 201.272C356.275 201.219 356.407 201.198 356.538 201.209C356.67 201.22 356.796 201.264 356.906 201.336C357.017 201.408 357.107 201.507 357.17 201.623C357.233 201.738 357.266 201.868 357.266 202V219.517C357.266 219.672 357.221 219.823 357.136 219.952C357.051 220.082 356.931 220.183 356.789 220.245L341.658 226.835C341.559 226.878 341.453 226.9 341.345 226.9ZM342.14 209.109V224.892L355.682 218.992V203.213L342.14 209.109Z" fill="#001933"/>
<path d="M356.477 201.827L341.345 208.837L326.438 201.914L341.289 196.714L356.477 201.827Z" fill="white"/>
<path d="M341.345 209.631C341.229 209.631 341.115 209.606 341.011 209.557L326.1 202.634C325.956 202.568 325.836 202.46 325.754 202.325C325.672 202.19 325.632 202.033 325.64 201.875C325.648 201.717 325.702 201.565 325.797 201.439C325.891 201.312 326.022 201.216 326.171 201.164L341.022 195.964C341.189 195.907 341.371 195.907 341.539 195.964L356.726 201.08C356.876 201.131 357.008 201.226 357.104 201.352C357.2 201.479 357.256 201.631 357.265 201.79C357.274 201.948 357.235 202.106 357.153 202.242C357.071 202.378 356.951 202.487 356.807 202.554L341.675 209.564C341.571 209.609 341.458 209.632 341.345 209.631ZM328.545 202.017L341.345 207.96L354.333 201.944L341.293 197.551L328.545 202.017Z" fill="#001933"/>
<path d="M289.754 199.409L274.623 192.819V175.303L289.754 181.893V199.409Z" fill="white"/>
<path d="M289.754 200.2C289.645 200.2 289.537 200.178 289.437 200.134L274.305 193.543C274.163 193.481 274.043 193.38 273.958 193.25C273.873 193.121 273.828 192.97 273.828 192.815V175.3C273.828 175.168 273.861 175.038 273.924 174.922C273.986 174.806 274.077 174.708 274.187 174.635C274.298 174.563 274.424 174.519 274.556 174.508C274.687 174.497 274.819 174.518 274.94 174.571L290.071 181.162C290.213 181.224 290.334 181.325 290.419 181.455C290.504 181.584 290.549 181.735 290.549 181.89V199.406C290.549 199.617 290.466 199.82 290.317 199.97C290.168 200.12 289.965 200.205 289.754 200.206V200.2ZM275.417 192.3L288.959 198.2V182.414L275.417 176.514V192.3Z" fill="#001933"/>
<path d="M289.754 199.409L304.886 192.819V175.303L289.754 181.893V199.409Z" fill="white"/>
<path d="M289.754 200.2C289.649 200.201 289.545 200.18 289.447 200.141C289.35 200.101 289.261 200.042 289.187 199.967C289.113 199.893 289.054 199.804 289.014 199.707C288.974 199.61 288.953 199.505 288.954 199.4V181.893C288.954 181.738 288.999 181.587 289.084 181.458C289.169 181.328 289.29 181.227 289.432 181.165L304.563 174.574C304.684 174.523 304.816 174.502 304.947 174.513C305.078 174.525 305.204 174.569 305.314 174.641C305.425 174.713 305.515 174.811 305.578 174.927C305.641 175.042 305.675 175.171 305.676 175.303V192.819C305.676 192.974 305.631 193.125 305.546 193.254C305.461 193.384 305.34 193.485 305.198 193.547L290.066 200.138C289.967 200.179 289.861 200.2 289.754 200.2ZM290.549 182.41V198.2L304.091 192.3V176.516L290.549 182.41Z" fill="#001933"/>
<path d="M304.886 175.129L289.754 182.139L274.847 175.216L289.698 170.016L304.886 175.129Z" fill="white"/>
<path d="M289.754 182.934C289.638 182.934 289.524 182.908 289.419 182.859L274.513 175.937C274.37 175.87 274.249 175.763 274.167 175.627C274.086 175.492 274.046 175.336 274.054 175.178C274.061 175.02 274.116 174.868 274.21 174.741C274.305 174.614 274.435 174.519 274.584 174.466L289.435 169.266C289.602 169.209 289.784 169.209 289.952 169.266L305.14 174.382C305.289 174.435 305.419 174.53 305.513 174.657C305.608 174.783 305.663 174.935 305.672 175.093C305.68 175.251 305.642 175.407 305.562 175.543C305.481 175.679 305.362 175.789 305.22 175.857L290.088 182.866C289.983 182.912 289.869 182.936 289.754 182.934ZM276.954 175.319L289.754 181.263L302.743 175.246L289.703 170.854L276.954 175.319Z" fill="#001933"/>
<path d="M392.936 199.409L377.804 192.819V175.303L392.936 181.893V199.409Z" fill="white"/>
<path d="M392.936 200.2C392.827 200.2 392.719 200.177 392.619 200.134L377.487 193.543C377.345 193.482 377.224 193.38 377.14 193.25C377.055 193.121 377.009 192.97 377.009 192.815V175.3C377.01 175.169 377.044 175.039 377.107 174.924C377.17 174.808 377.261 174.71 377.371 174.638C377.481 174.566 377.607 174.522 377.738 174.51C377.869 174.499 378.001 174.52 378.122 174.571L393.253 181.162C393.395 181.224 393.516 181.325 393.601 181.455C393.686 181.584 393.731 181.735 393.731 181.89V199.406C393.732 199.511 393.712 199.616 393.672 199.713C393.632 199.81 393.573 199.899 393.498 199.973C393.424 200.048 393.336 200.107 393.238 200.147C393.141 200.187 393.037 200.207 392.931 200.206L392.936 200.2ZM378.6 192.3L392.142 198.2V182.414L378.6 176.514V192.3Z" fill="#001933"/>
<path d="M392.936 199.409L408.067 192.819V175.303L392.936 181.893V199.409Z" fill="white"/>
<path d="M392.936 200.2C392.831 200.2 392.728 200.179 392.631 200.139C392.534 200.099 392.446 200.04 392.372 199.965C392.298 199.891 392.24 199.803 392.2 199.706C392.161 199.609 392.14 199.505 392.141 199.4V181.893C392.141 181.738 392.186 181.587 392.271 181.458C392.356 181.328 392.477 181.227 392.619 181.165L407.75 174.574C407.871 174.521 408.003 174.5 408.135 174.511C408.266 174.522 408.393 174.566 408.503 174.638C408.613 174.711 408.704 174.809 408.767 174.925C408.829 175.041 408.862 175.171 408.862 175.303V192.819C408.862 192.974 408.817 193.125 408.732 193.254C408.648 193.384 408.527 193.485 408.385 193.547L393.253 200.138C393.153 200.18 393.045 200.201 392.936 200.2ZM393.736 182.41V198.2L407.277 192.3V176.516L393.736 182.41Z" fill="#001933"/>
<path d="M408.067 175.129L392.936 182.139L378.029 175.216L392.88 170.016L408.067 175.129Z" fill="white"/>
<path d="M392.936 182.934C392.821 182.934 392.707 182.908 392.602 182.859L377.694 175.937C377.551 175.87 377.431 175.762 377.349 175.627C377.267 175.492 377.228 175.335 377.235 175.177C377.243 175.019 377.298 174.867 377.392 174.741C377.487 174.614 377.617 174.518 377.766 174.466L392.617 169.266C392.785 169.209 392.967 169.209 393.134 169.266L408.321 174.382C408.47 174.435 408.6 174.53 408.695 174.657C408.789 174.783 408.844 174.935 408.853 175.093C408.862 175.251 408.823 175.407 408.743 175.543C408.662 175.679 408.543 175.789 408.401 175.857L393.27 182.86C393.165 182.909 393.051 182.934 392.936 182.934ZM380.136 175.319L392.936 181.263L405.924 175.246L392.884 170.854L380.136 175.319Z" fill="#001933"/>
<path d="M392.936 137.547L377.804 130.956V113.44L392.936 120.03V137.547Z" fill="white"/>
<path d="M392.936 138.341C392.827 138.341 392.719 138.318 392.619 138.275L377.487 131.685C377.345 131.623 377.224 131.522 377.14 131.392C377.055 131.263 377.009 131.112 377.009 130.957V113.44C377.01 113.308 377.044 113.179 377.107 113.064C377.17 112.948 377.261 112.85 377.371 112.778C377.481 112.706 377.607 112.662 377.738 112.65C377.869 112.639 378.001 112.66 378.122 112.711L393.253 119.302C393.395 119.364 393.516 119.465 393.601 119.595C393.686 119.724 393.731 119.875 393.731 120.03V137.546C393.732 137.651 393.712 137.756 393.672 137.853C393.632 137.95 393.573 138.039 393.498 138.113C393.424 138.188 393.336 138.246 393.238 138.286C393.141 138.326 393.037 138.347 392.931 138.346L392.936 138.341ZM378.6 130.436L392.142 136.336V120.551L378.6 114.651V130.436Z" fill="#001933"/>
<path d="M392.936 137.547L408.067 130.956V113.44L392.936 120.03V137.547Z" fill="white"/>
<path d="M392.936 138.341C392.831 138.341 392.728 138.32 392.631 138.28C392.534 138.24 392.446 138.181 392.372 138.106C392.298 138.032 392.24 137.944 392.2 137.847C392.161 137.75 392.14 137.646 392.141 137.541V120.03C392.141 119.875 392.186 119.724 392.271 119.595C392.356 119.465 392.477 119.364 392.619 119.302L407.75 112.711C407.871 112.658 408.003 112.637 408.135 112.648C408.266 112.659 408.393 112.703 408.503 112.775C408.613 112.847 408.704 112.946 408.767 113.062C408.829 113.178 408.862 113.308 408.862 113.44V130.957C408.862 131.112 408.817 131.263 408.732 131.392C408.648 131.522 408.527 131.623 408.385 131.685L393.253 138.275C393.153 138.318 393.045 138.341 392.936 138.341ZM393.736 120.551V136.333L407.277 130.433V114.653L393.736 120.551Z" fill="#001933"/>
<path d="M408.067 113.267L392.936 120.276L378.029 113.353L392.88 108.153L408.067 113.267Z" fill="white"/>
<path d="M392.936 121.071C392.82 121.072 392.706 121.048 392.6 121L377.692 114.077C377.549 114.011 377.428 113.903 377.347 113.767C377.265 113.632 377.225 113.476 377.233 113.318C377.241 113.16 377.295 113.008 377.39 112.881C377.485 112.755 377.615 112.659 377.764 112.607L392.615 107.407C392.783 107.351 392.964 107.351 393.132 107.407L408.319 112.524C408.47 112.575 408.602 112.669 408.699 112.796C408.795 112.922 408.851 113.075 408.86 113.234C408.868 113.393 408.829 113.55 408.747 113.687C408.665 113.823 408.544 113.931 408.399 113.998L393.27 121C393.165 121.047 393.051 121.071 392.936 121.071ZM380.136 113.457L392.936 119.4L405.924 113.383L392.884 108.991L380.136 113.457Z" fill="#001933"/>
<path d="M341.345 104.713L326.213 98.1231V80.6071L341.345 87.1971V104.713Z" fill="white"/>
<path d="M341.345 105.508C341.236 105.508 341.128 105.485 341.028 105.441L325.9 98.852C325.758 98.7897 325.638 98.6877 325.553 98.5583C325.468 98.4289 325.423 98.2777 325.422 98.123V80.606C325.423 80.4745 325.457 80.3454 325.52 80.23C325.583 80.1147 325.674 80.0167 325.784 79.9447C325.894 79.8727 326.02 79.829 326.151 79.8173C326.282 79.8057 326.414 79.8265 326.535 79.878L341.667 86.468C341.809 86.5298 341.93 86.6317 342.014 86.7612C342.099 86.8908 342.144 87.0422 342.144 87.197V104.713C342.144 104.924 342.06 105.127 341.911 105.277C341.762 105.427 341.56 105.512 341.349 105.513L341.345 105.508ZM327.008 97.6L340.55 103.5V87.717L327.008 81.817V97.6Z" fill="#001933"/>
<path d="M341.345 104.713L356.477 98.1231V80.6071L341.345 87.1971V104.713Z" fill="white"/>
<path d="M341.345 105.508C341.133 105.508 340.929 105.424 340.779 105.274C340.629 105.124 340.545 104.92 340.545 104.708V87.2C340.546 87.0453 340.591 86.8941 340.676 86.7647C340.761 86.6353 340.881 86.5333 341.023 86.471L356.154 79.881C356.275 79.8284 356.407 79.8068 356.538 79.8179C356.67 79.8291 356.796 79.8727 356.906 79.9449C357.017 80.0171 357.107 80.1156 357.17 80.2315C357.233 80.3475 357.266 80.4772 357.266 80.609V98.123C357.265 98.2776 357.22 98.4287 357.135 98.5581C357.051 98.6875 356.93 98.7896 356.789 98.852L341.658 105.441C341.559 105.485 341.453 105.507 341.345 105.508ZM342.14 87.717V103.5L355.682 97.6V81.819L342.14 87.717Z" fill="#001933"/>
<path d="M356.477 80.4331L341.345 87.4431L326.438 80.5201L341.289 75.3201L356.477 80.4331Z" fill="white"/>
<path d="M341.345 88.238C341.229 88.2377 341.116 88.2125 341.011 88.164L326.1 81.241C325.956 81.1744 325.836 81.0666 325.754 80.9314C325.673 80.7961 325.633 80.6395 325.641 80.4816C325.648 80.3237 325.703 80.1717 325.797 80.045C325.892 79.9182 326.022 79.8225 326.171 79.77L341.022 74.57C341.189 74.5128 341.371 74.5128 341.539 74.57L356.73 79.68C356.88 79.7309 357.012 79.8256 357.108 79.9521C357.204 80.0786 357.261 80.231 357.269 80.3896C357.278 80.5482 357.239 80.7058 357.157 80.8421C357.076 80.9783 356.955 81.087 356.811 81.154L341.679 88.164C341.574 88.2125 341.46 88.2377 341.345 88.238ZM328.545 80.623L341.345 86.567L354.333 80.55L341.293 76.157L328.545 80.623Z" fill="#001933"/>
<path d="M111.726 133.578C144.231 120.457 174.918 114.587 199.656 115.296C224.474 116.007 243.178 123.332 251.833 136.445C256.387 143.345 258.587 152.489 259.626 160.83C260.665 169.161 260.539 176.633 260.48 180.161C260.258 193.362 257.751 201.74 254.75 210.076C251.743 218.424 248.222 226.769 246.034 239.819C242.641 260.046 247.042 273.131 250.414 283.217C252.103 288.27 253.504 292.495 253.59 296.498C253.676 300.459 252.472 304.227 248.856 308.346C244.356 313.472 235.076 317.989 223.189 321.728C211.33 325.457 196.973 328.383 182.42 330.377C167.869 332.372 153.137 333.434 140.533 333.442C127.908 333.45 117.48 332.399 111.499 330.206C99.5257 325.817 93.8272 317.59 92.7485 307.964C91.6651 298.297 95.2376 287.151 101.975 277C105.396 271.847 106.512 268.031 106.173 264.648C105.837 261.287 104.068 258.445 101.974 255.262C99.8673 252.059 97.3897 248.454 95.4624 243.483C93.5374 238.517 92.1563 232.17 92.2896 223.508C92.557 206.128 97.4268 183.603 102.243 165.394C104.649 156.296 107.039 148.287 108.827 142.552C109.721 139.685 110.464 137.386 110.984 135.805C111.244 135.015 111.448 134.404 111.587 133.991C111.645 133.818 111.691 133.68 111.726 133.578Z" fill="#007BFF" stroke="#007BFF"/>
<path d="M366.815 281.944C356.365 285.944 332.567 281.944 322.091 286.326C311.615 290.708 307.891 307.326 307.891 307.326C305.103 314.473 301.367 323.946 296.913 334.961C294.037 342.075 291.413 348.47 289.036 354.271C285.501 348.071 282.536 342.571 280.114 337.947C262.521 304.327 258.153 287.054 239.794 275.228C227.337 267.204 214.225 265.416 205.655 265.059C206.491 273.369 207.793 281.625 209.555 289.788C221.332 344.301 251.48 384.115 275.903 409.288C276.057 409.528 276.21 409.768 276.381 410.002C280.691 415.902 289.523 419.026 296.541 417.842C323.903 413.226 332.906 341.642 335.392 314.397C341.011 303.004 355.265 304.139 366.814 294.638C378.363 285.137 377.266 277.945 366.815 281.944Z" fill="white"/>
<path d="M293.451 419.091C286.604 419.091 279.341 415.749 275.575 410.591C275.412 410.369 275.264 410.141 275.117 409.913C240.426 374.132 218.04 333.788 208.579 290C206.81 281.8 205.502 273.507 204.662 265.16C204.648 265.017 204.664 264.873 204.711 264.738C204.757 264.602 204.832 264.478 204.93 264.374C205.03 264.272 205.15 264.191 205.282 264.137C205.414 264.083 205.556 264.057 205.699 264.061C218.899 264.61 230.551 268.085 240.337 274.388C254.502 283.512 260.414 295.688 270.207 315.875C273.28 322.207 276.763 329.385 281.007 337.485C283.517 342.285 286.167 347.153 288.897 351.985C291.064 346.697 293.429 340.926 295.997 334.585C299.697 325.428 303.382 316.157 306.944 307.031C307.267 305.631 311.144 289.831 321.715 285.404C327.257 283.085 336.309 283.036 345.063 282.988C353.163 282.943 361.533 282.898 366.463 281.01C372.735 278.61 374.89 280.338 375.614 281.584C377.34 284.55 374.214 289.847 367.456 295.407C362.442 299.531 356.851 301.731 351.918 303.673C345.241 306.301 339.466 308.573 336.377 314.673C333.635 344.595 324.304 414.173 296.713 418.826C295.635 419.005 294.544 419.094 293.451 419.091ZM206.771 266.113C207.606 273.995 208.863 281.828 210.534 289.576C219.92 333.024 242.156 373.066 276.622 408.589C276.668 408.637 276.709 408.688 276.745 408.744C276.906 408.994 277.045 409.205 277.19 409.409C281.147 414.831 289.398 418.032 296.375 416.853C307.737 414.937 317.143 400.633 324.332 374.34C330.323 352.426 333.21 327.318 334.397 314.303C334.409 314.181 334.443 314.061 334.497 313.951C337.907 307.037 344.355 304.499 351.182 301.812C356.211 299.833 361.412 297.786 366.182 293.862C373.207 288.083 374.634 283.881 373.882 282.59C373.382 281.729 371.325 281.29 367.175 282.878C361.901 284.896 353.724 284.94 345.067 284.988C336.507 285.035 327.656 285.088 322.479 287.249C312.594 291.384 308.907 307.383 308.871 307.544C308.86 307.593 308.845 307.641 308.827 307.688C305.254 316.845 301.559 326.146 297.845 335.335C295.259 341.729 292.877 347.542 290.696 352.866L289.965 354.649C289.894 354.822 289.776 354.972 289.623 355.082C289.471 355.191 289.291 355.256 289.104 355.268C288.917 355.28 288.731 355.239 288.566 355.15C288.401 355.061 288.264 354.928 288.171 354.765C285.071 349.323 282.063 343.82 279.231 338.41C274.979 330.283 271.489 323.091 268.41 316.746C258.769 296.879 252.949 284.888 239.256 276.068C230.056 270.143 219.134 266.8 206.771 266.113Z" fill="#001933"/>
<path d="M261.449 468.612C260.468 420.354 256.98 372.18 251 324.284C248.849 307.231 246.533 291.584 233.827 279.542C226.81 272.892 217.566 268.242 207.364 265.503C205.087 264.9 203.073 263.561 201.635 261.696C200.197 259.831 199.415 257.542 199.41 255.187V203.812H157.967V257.22C157.961 259.747 157.205 262.216 155.795 264.313C154.384 266.41 152.383 268.042 150.044 269C141.493 272.544 134.019 277.52 128.544 283.876C115.661 298.831 119.169 315.216 119.585 358.927C119.936 395.339 117.952 431.736 113.643 467.894L261.449 468.612Z" fill="white"/>
<path d="M261.449 469.612L113.643 468.89C113.502 468.889 113.363 468.859 113.234 468.801C113.106 468.743 112.991 468.658 112.898 468.553C112.805 468.447 112.735 468.323 112.693 468.188C112.65 468.054 112.637 467.912 112.654 467.772C116.949 431.656 118.931 395.302 118.588 358.933C118.51 350.7 118.321 343.403 118.155 336.966C117.42 308.596 117.085 295.647 127.791 283.219C133.197 276.944 140.557 271.848 149.666 268.073C151.823 267.193 153.669 265.691 154.97 263.758C156.271 261.826 156.968 259.55 156.972 257.22V203.812C156.972 203.547 157.077 203.292 157.265 203.105C157.452 202.917 157.707 202.812 157.972 202.812H199.411C199.676 202.812 199.931 202.917 200.118 203.105C200.306 203.292 200.411 203.547 200.411 203.812V255.187C200.42 257.321 201.131 259.394 202.435 261.084C203.739 262.773 205.563 263.987 207.625 264.537C218.418 267.437 227.717 272.373 234.516 278.817C247.871 291.475 249.966 308.09 251.993 324.159C257.96 372.091 261.45 420.299 262.449 468.59C262.452 468.723 262.428 468.856 262.379 468.979C262.33 469.103 262.257 469.216 262.164 469.311C262.071 469.407 261.96 469.482 261.837 469.534C261.714 469.586 261.582 469.612 261.449 469.612ZM114.768 466.9L260.427 467.611C259.401 419.73 255.92 371.933 250 324.409C248.018 308.689 245.968 292.435 233.132 280.268C226.574 274.052 217.571 269.281 207.098 266.468C204.611 265.804 202.411 264.339 200.84 262.299C199.268 260.26 198.412 257.76 198.403 255.186V204.812H158.967V257.22C158.964 259.945 158.151 262.608 156.63 264.87C155.109 267.131 152.95 268.889 150.427 269.92C141.609 273.575 134.501 278.488 129.301 284.52C119.101 296.362 119.428 309.069 120.149 336.91C120.316 343.354 120.505 350.659 120.583 358.91C120.922 394.993 118.98 431.062 114.768 466.9Z" fill="#001933"/>
<path d="M146.253 270.7C135.483 273.132 125.485 278.196 117.153 285.44C100.024 300.684 96.0708 321.704 93.6328 335.719C83.7698 392.419 77.9228 443.839 75.1528 470.362H123.313L146.253 270.7Z" fill="white"/>
<path d="M242.522 180.359C243.92 171.553 243.482 162.553 241.233 153.924C238.985 145.296 234.976 137.226 229.458 130.222C223.94 123.219 217.033 117.432 209.171 113.227C201.308 109.022 192.661 106.489 183.772 105.787C174.883 105.086 165.945 106.231 157.521 109.151C149.096 112.071 141.367 116.703 134.819 122.755C128.271 128.807 123.045 136.148 119.472 144.317C115.898 152.486 114.054 161.306 114.054 170.222C114.054 171.896 114.138 173.55 114.263 175.192C114.169 206.214 126.292 233.267 146.528 244.071C156.412 249.215 167.631 251.22 178.686 249.818C201.521 246.978 221.896 229.278 234.297 203.46C237.133 203.813 240.005 203.188 242.438 201.688C244.872 200.188 246.72 197.903 247.679 195.211C248.638 192.518 248.649 189.579 247.712 186.878C246.774 184.178 244.943 181.879 242.522 180.36V180.359Z" fill="white"/>
<path d="M171.84 251.234C162.86 251.287 154.006 249.131 146.057 244.954C125.732 234.102 113.166 207.37 113.263 175.189C113.123 173.395 113.054 171.745 113.054 170.222C113.055 161.196 114.918 152.267 118.526 143.993C122.135 135.72 127.411 128.279 134.025 122.137C140.639 115.995 148.449 111.283 156.967 108.296C165.484 105.309 174.527 104.111 183.528 104.777C192.53 105.443 201.298 107.958 209.283 112.166C217.268 116.374 224.3 122.183 229.939 129.232C235.577 136.28 239.701 144.416 242.053 153.13C244.405 161.845 244.934 170.951 243.607 179.879C245.975 181.531 247.754 183.895 248.685 186.628C249.616 189.361 249.651 192.32 248.784 195.074C247.917 197.828 246.194 200.233 243.865 201.94C241.536 203.647 238.724 204.566 235.837 204.564C235.537 204.564 235.223 204.552 234.892 204.526C222.099 230.747 201.175 248.026 178.81 250.811C176.497 251.095 174.17 251.236 171.84 251.234ZM178.687 106.589C161.816 106.607 145.641 113.317 133.711 125.246C121.781 137.176 115.071 153.351 115.054 170.222C115.054 171.714 115.119 173.269 115.26 175.116C115.168 206.633 127.329 232.688 146.999 243.189C156.703 248.231 167.713 250.197 178.563 248.826C200.429 246.106 220.927 228.985 233.396 203.026C233.486 202.838 233.634 202.683 233.817 202.582C234 202.482 234.21 202.442 234.418 202.467C237.029 202.793 239.673 202.218 241.913 200.838C244.154 199.458 245.856 197.354 246.738 194.875C247.621 192.396 247.632 189.69 246.768 187.205C245.904 184.719 244.218 182.602 241.989 181.205C241.824 181.101 241.692 180.951 241.612 180.773C241.531 180.595 241.504 180.398 241.534 180.205C242.974 171.118 242.428 161.828 239.932 152.973C237.436 144.118 233.051 135.909 227.077 128.912C221.104 121.915 213.685 116.296 205.331 112.443C196.977 108.589 187.887 106.591 178.687 106.589Z" fill="#001933"/>
<path d="M149.084 99.0892C181.961 84.8552 217.474 90.1489 237.221 111.211C238.271 112.33 243.942 118.552 248.702 128.091C253.388 137.482 257.177 150.056 254.844 164.132L254.728 164.804C253.475 171.644 250.945 178.185 247.271 184.088C244.902 185.344 242.188 186.564 239.596 187.158C236.949 187.763 234.526 187.697 232.714 186.477H232.715C231.281 185.512 230.549 184.043 230.1 182.33C229.875 181.474 229.724 180.57 229.589 179.653C229.455 178.745 229.335 177.811 229.173 176.936C227.631 168.639 221.556 161.686 214.537 156.35C207.509 151.007 199.462 147.229 193.835 145.3C185.88 142.573 180.339 142.707 175.577 142.662C170.845 142.618 166.914 142.397 162 139.073C153.432 133.275 149.939 123.481 148.326 116.587L148.185 115.985L147.625 116.249C141.325 119.229 135.989 123.921 132.229 129.788L132.227 129.79C130.505 132.504 129.158 135.438 128.222 138.512L128.22 138.518C126.86 143.177 123.876 147.195 119.808 149.843C115.741 152.49 110.86 153.593 106.05 152.952H106.051L105.859 152.924C103.12 130.658 111.746 110.732 127.115 102.74C133.831 99.4079 141.387 98.1502 148.82 99.1254L148.957 99.1439L149.084 99.0892Z" fill="#007BFF" stroke="#007BFF"/>
<path d="M200.733 255.027C201.031 256.134 201.53 257.178 202.208 258.106V258.107C203.577 260.073 205.682 261.44 207.406 262.31C208.274 262.747 209.057 263.065 209.625 263.273C209.909 263.378 210.14 263.454 210.301 263.506C210.381 263.532 210.444 263.551 210.487 263.564C210.509 263.571 210.526 263.576 210.538 263.579C210.544 263.581 210.548 263.582 210.552 263.583H210.553V263.584C213.746 264.52 217.551 266.449 221.665 268.886C224.747 270.711 227.984 272.81 231.248 274.969L234.517 277.14C240.555 281.162 247.703 289.269 251.327 307.464L251.359 307.623L251.479 307.733C253.797 309.872 255.796 312.334 257.411 315.043V315.042C266.154 329.761 260.233 346.851 258.772 350.754L258.735 350.853L258.741 350.958L265.694 469.858H120.104L134.016 327.6C134.016 327.597 134.017 327.595 134.018 327.592C134.021 327.571 134.027 327.539 134.034 327.497C134.049 327.414 134.072 327.291 134.101 327.13C134.158 326.808 134.243 326.334 134.349 325.728C134.559 324.514 134.855 322.766 135.195 320.633C135.875 316.367 136.733 310.553 137.443 304.367C138.154 298.183 138.717 291.617 138.808 285.849C138.893 280.396 138.557 275.582 137.479 272.481C137.508 272.471 137.538 272.461 137.568 272.45C137.928 272.318 138.444 272.127 139.068 271.886C140.318 271.404 142.008 270.723 143.765 269.933C145.519 269.143 147.352 268.239 148.883 267.308C150.39 266.39 151.688 265.398 152.281 264.409C153.064 263.104 153.769 260.888 154.275 259.036C154.531 258.1 154.741 257.238 154.89 256.604C154.948 256.354 154.996 256.14 155.034 255.97C155.274 255.997 155.607 256.036 156.022 256.081C156.945 256.181 158.277 256.319 159.919 256.468C163.202 256.766 167.723 257.11 172.678 257.296C177.631 257.482 183.025 257.51 188.049 257.173C192.817 256.853 197.284 256.199 200.733 255.027Z" fill="#001933" stroke="#001933"/>
<path d="M181.551 172.293C185.664 170.849 190.09 170.539 194.364 171.395C198.648 172.253 202.621 174.253 205.864 177.18L205.869 177.184C205.945 177.251 205.999 177.34 206.024 177.439C206.048 177.538 206.042 177.642 206.006 177.737C205.97 177.832 205.906 177.914 205.823 177.971C205.739 178.029 205.64 178.06 205.539 178.06H205.538C205.416 178.06 205.298 178.015 205.207 177.935C202.138 175.097 198.35 173.154 194.254 172.319C190.154 171.483 185.903 171.789 181.965 173.204L181.957 173.207L181.949 173.21C181.827 173.258 181.691 173.256 181.571 173.206C181.45 173.155 181.354 173.059 181.303 172.939C181.252 172.819 181.251 172.683 181.299 172.561C181.346 172.443 181.436 172.347 181.551 172.293Z" fill="#001933" stroke="#001933"/>
<path d="M188.697 184.402C189.565 184.348 190.433 184.485 191.242 184.802C191.798 185.076 192.336 185.385 192.852 185.728L192.86 185.734C193.793 186.324 194.568 186.779 195.276 186.889C195.655 186.948 196.019 186.911 196.378 186.758C196.727 186.609 197.045 186.362 197.355 186.041L197.357 186.039C197.403 185.992 197.457 185.953 197.518 185.927C197.578 185.901 197.643 185.886 197.709 185.885C197.775 185.884 197.841 185.896 197.902 185.92C197.963 185.944 198.019 185.98 198.066 186.026C198.114 186.071 198.152 186.126 198.178 186.187C198.204 186.247 198.218 186.312 198.219 186.378C198.22 186.444 198.207 186.509 198.183 186.571C198.158 186.632 198.122 186.688 198.076 186.735L198.053 186.76C197.752 187.112 197.381 187.397 196.963 187.596C196.554 187.791 196.11 187.899 195.658 187.916C194.46 187.789 193.32 187.335 192.363 186.603L192.336 186.583L191.969 186.348C191.599 186.118 191.217 185.906 190.827 185.712L190.803 185.699L190.775 185.69C190.116 185.45 189.414 185.353 188.715 185.403C188.015 185.453 187.333 185.649 186.715 185.981L186.704 185.988C186.589 186.053 186.452 186.07 186.324 186.034C186.196 185.999 186.088 185.914 186.022 185.799C185.957 185.684 185.94 185.548 185.975 185.42C186.01 185.293 186.093 185.184 186.207 185.118C186.974 184.699 187.825 184.455 188.697 184.402Z" fill="#001933" stroke="#001933"/>
<path d="M188.729 184.341C191.826 184.341 194.336 186.852 194.336 189.949C194.336 193.046 191.825 195.557 188.729 195.557C185.631 195.557 183.12 193.046 183.12 189.949C183.12 186.852 185.631 184.341 188.729 184.341Z" fill="#001933" stroke="#001933"/>
<path d="M138.541 171.537C142.355 170.699 146.332 171.011 149.968 172.434H149.969C150.093 172.482 150.192 172.578 150.246 172.7C150.299 172.821 150.302 172.959 150.253 173.083C150.205 173.206 150.109 173.306 149.988 173.359C149.866 173.412 149.728 173.415 149.604 173.367C146.152 172.015 142.376 171.718 138.755 172.513C135.36 173.259 132.245 174.934 129.752 177.344L129.262 177.836C129.215 177.884 129.159 177.922 129.097 177.949C129.035 177.975 128.968 177.989 128.901 177.989H128.9C128.802 177.989 128.706 177.96 128.625 177.906C128.543 177.852 128.478 177.774 128.44 177.684C128.402 177.594 128.391 177.494 128.409 177.398C128.427 177.302 128.472 177.213 128.54 177.142L128.541 177.141C131.246 174.325 134.726 172.375 138.541 171.537Z" fill="#001933" stroke="#001933"/>
<path d="M141.029 183.91C141.901 183.974 142.747 184.229 143.509 184.656C143.623 184.723 143.707 184.832 143.74 184.96C143.774 185.088 143.755 185.225 143.688 185.34C143.622 185.454 143.512 185.537 143.384 185.571C143.255 185.605 143.119 185.586 143.004 185.519L142.993 185.512L142.76 185.392C142.208 185.126 141.612 184.963 141 184.913C140.301 184.855 139.598 184.947 138.937 185.179L138.91 185.188L138.885 185.201C138.361 185.453 137.853 185.739 137.365 186.056L137.353 186.064L137.34 186.074C136.382 186.787 135.25 187.227 134.063 187.35C133.605 187.333 133.156 187.222 132.743 187.021C132.321 186.816 131.948 186.524 131.648 186.163L131.641 186.153L131.633 186.144L131.574 186.066C131.524 185.983 131.497 185.886 131.501 185.788C131.506 185.657 131.562 185.533 131.657 185.443C131.753 185.353 131.88 185.304 132.011 185.306C132.139 185.309 132.261 185.361 132.353 185.452H132.354C132.66 185.776 132.975 186.027 133.323 186.179C133.68 186.336 134.044 186.377 134.423 186.322C134.955 186.245 135.526 185.975 136.175 185.6L136.851 185.195L136.859 185.189C137.378 184.853 137.918 184.551 138.476 184.284C139.289 183.974 140.161 183.847 141.029 183.91Z" fill="#001933" stroke="#001933"/>
<path d="M140.936 183.853C144.033 183.853 146.543 186.364 146.543 189.461C146.543 192.558 144.032 195.069 140.936 195.069C137.838 195.069 135.327 192.558 135.327 189.461C135.327 186.364 137.838 183.853 140.936 183.853Z" fill="#001933" stroke="#001933"/>
<path d="M163.423 185.777C163.489 185.776 163.555 185.787 163.617 185.812C163.679 185.836 163.736 185.873 163.783 185.919C163.831 185.965 163.869 186.02 163.895 186.081C163.921 186.142 163.934 186.208 163.935 186.274C163.935 186.341 163.922 186.407 163.896 186.469L163.894 186.478C162.622 189.727 161.413 193.297 160.603 196.21C160.198 197.665 159.89 198.968 159.724 199.989C159.641 200.499 159.59 200.952 159.584 201.325C159.578 201.674 159.608 202.041 159.754 202.312L159.766 202.333L159.779 202.354C160.075 202.797 160.648 203.061 161.228 203.233C161.837 203.415 162.584 203.533 163.373 203.604C164.756 203.729 166.326 203.714 167.636 203.613L168.18 203.564C168.311 203.551 168.443 203.591 168.545 203.675C168.648 203.759 168.713 203.88 168.727 204.012C168.74 204.143 168.7 204.275 168.616 204.378C168.532 204.481 168.41 204.546 168.278 204.56H168.274C167.829 204.608 166.736 204.7 165.432 204.7C164.195 204.7 162.791 204.615 161.571 204.331C160.329 204.042 159.391 203.574 158.942 202.9C158.813 202.706 158.711 202.38 158.671 201.896C158.631 201.419 158.655 200.834 158.734 200.16C158.894 198.813 159.27 197.172 159.755 195.449C160.723 192.007 162.103 188.306 162.962 186.113H162.963L162.966 186.104C162.989 186.042 163.024 185.985 163.069 185.937C163.115 185.888 163.17 185.849 163.23 185.821C163.291 185.794 163.356 185.779 163.423 185.777Z" fill="#001933" stroke="#001933"/>
<path d="M198.53 200.487C200.774 200.357 202.816 200.836 204.303 201.687C205.794 202.542 206.67 203.733 206.745 205.028C206.82 206.322 206.087 207.607 204.704 208.628C203.326 209.646 201.352 210.356 199.109 210.486C196.865 210.615 194.822 210.138 193.336 209.286C191.845 208.431 190.968 207.239 190.894 205.945C190.819 204.65 191.552 203.366 192.934 202.345C194.312 201.328 196.287 200.617 198.53 200.487Z" fill="#007BFF" stroke="#007BFF"/>
<path d="M136.72 202.527C138.963 202.397 141.006 202.876 142.492 203.728C143.983 204.583 144.859 205.773 144.934 207.068C145.009 208.363 144.276 209.648 142.894 210.668C141.516 211.686 139.542 212.396 137.299 212.526C135.055 212.656 133.012 212.178 131.525 211.326C130.034 210.472 129.158 209.28 129.083 207.985C129.008 206.691 129.741 205.407 131.124 204.386C132.502 203.368 134.476 202.657 136.72 202.527Z" fill="#007BFF" stroke="#007BFF"/>
<path d="M144.07 270.211C144.2 270.184 144.335 270.209 144.446 270.282C144.557 270.355 144.635 270.469 144.662 270.598C144.689 270.728 144.663 270.864 144.59 270.974C144.518 271.085 144.404 271.162 144.274 271.189C144.03 271.24 124.827 275.45 109.501 294.492C102.362 303.363 96.5322 319.76 91.1724 347.667C85.8077 375.598 80.8994 415.148 75.6567 470.407C75.6446 470.531 75.5866 470.645 75.4946 470.728C75.4026 470.812 75.2828 470.858 75.1587 470.858H75.1011C74.973 470.843 74.8552 470.78 74.7729 470.68C74.6888 470.578 74.6481 470.447 74.6606 470.315C79.2331 422.118 83.6484 383.083 88.981 353.539C91.6472 338.767 94.5408 326.379 97.7935 316.412C101.048 306.439 104.653 298.921 108.723 293.864C124.31 274.496 143.312 270.369 144.07 270.211Z" fill="#001933" stroke="#001933"/>
<path d="M289.799 352.106C289.864 352.116 289.926 352.138 289.982 352.172C290.038 352.206 290.087 352.25 290.126 352.303C290.165 352.356 290.193 352.416 290.209 352.48C290.225 352.544 290.228 352.61 290.218 352.675C290.208 352.74 290.185 352.803 290.151 352.859C286.13 359.511 285.121 368.253 285.104 375.302C285.088 382.324 286.057 387.75 286.093 387.941V387.942C286.117 388.072 286.089 388.207 286.014 388.316C285.957 388.398 285.879 388.461 285.788 388.497L285.695 388.524C285.663 388.53 285.631 388.531 285.599 388.532C285.483 388.531 285.37 388.492 285.281 388.417C285.192 388.343 285.131 388.239 285.109 388.124V388.123C285.028 387.684 284.024 382.114 284.071 374.953C284.119 367.779 285.221 359.082 289.296 352.341C289.33 352.285 289.374 352.236 289.427 352.198C289.48 352.159 289.54 352.13 289.604 352.115C289.667 352.099 289.734 352.096 289.799 352.106Z" fill="#001933" stroke="#001933"/>
<path d="M197.716 137.167C197.668 137.167 197.62 137.164 197.573 137.158C184.612 135.31 177.073 129.419 173.031 124.802C170.451 121.97 168.489 118.633 167.267 115.002C167.204 114.749 167.242 114.482 167.374 114.257C167.505 114.033 167.718 113.868 167.969 113.798C168.22 113.728 168.488 113.759 168.717 113.884C168.945 114.008 169.116 114.217 169.193 114.466C169.393 115.173 174.335 131.822 197.855 135.173C198.105 135.209 198.332 135.338 198.491 135.534C198.65 135.731 198.729 135.98 198.711 136.233C198.694 136.485 198.581 136.721 198.396 136.894C198.212 137.066 197.968 137.162 197.716 137.163V137.167Z" fill="white"/>
<path d="M246.417 154.688C234.855 154.688 222.343 148.905 210.085 137.866C204.104 132.455 198.716 126.423 194.012 119.872C193.862 119.653 193.806 119.383 193.855 119.122C193.905 118.862 194.056 118.631 194.275 118.482C194.494 118.332 194.764 118.276 195.024 118.326C195.285 118.375 195.515 118.526 195.665 118.745C195.908 119.101 220.289 154.31 248.349 152.63C248.48 152.622 248.612 152.64 248.736 152.683C248.86 152.726 248.975 152.793 249.073 152.88C249.172 152.968 249.252 153.073 249.31 153.192C249.367 153.31 249.401 153.439 249.409 153.57C249.417 153.701 249.399 153.833 249.356 153.957C249.313 154.082 249.246 154.196 249.158 154.295C249.071 154.393 248.965 154.473 248.847 154.531C248.729 154.588 248.6 154.622 248.469 154.63C247.789 154.669 247.105 154.688 246.417 154.688Z" fill="white"/>
<path d="M116.408 140.322C116.178 140.322 115.955 140.242 115.777 140.096C115.598 139.95 115.476 139.747 115.43 139.522C111.115 118.679 134.244 109.852 134.479 109.766C134.726 109.682 134.996 109.698 135.231 109.809C135.466 109.921 135.649 110.121 135.739 110.365C135.83 110.61 135.821 110.88 135.715 111.118C135.61 111.357 135.415 111.544 135.173 111.641C131.328 113.221 127.778 115.44 124.673 118.203C118.184 124.077 115.733 131.113 117.39 139.117C117.42 139.262 117.417 139.412 117.381 139.556C117.346 139.7 117.278 139.835 117.185 139.949C117.091 140.064 116.973 140.157 116.839 140.22C116.705 140.284 116.558 140.317 116.41 140.317L116.408 140.322Z" fill="white"/>
<path d="M106.01 283.834C105.823 283.834 105.639 283.781 105.48 283.682C105.321 283.582 105.193 283.44 105.111 283.271C105.029 283.102 104.996 282.914 105.016 282.727C105.036 282.541 105.108 282.363 105.224 282.216C105.798 281.485 106.413 280.723 107.051 279.933C114.573 270.608 124.875 257.838 110.077 245.898C102.816 240.039 99.5772 227.408 100.452 208.354C100.916 199.388 102.062 190.47 103.878 181.678C103.936 181.419 104.094 181.193 104.318 181.051C104.541 180.909 104.813 180.861 105.072 180.918C105.331 180.976 105.556 181.134 105.699 181.358C105.841 181.582 105.889 181.853 105.831 182.112C105.722 182.602 95.1312 231.268 111.331 244.342C127.685 257.542 116.203 271.771 108.605 281.188C107.973 281.972 107.364 282.728 106.794 283.452C106.701 283.571 106.582 283.667 106.446 283.733C106.31 283.799 106.161 283.834 106.01 283.834Z" fill="white"/>
<path d="M232.7 263.929C232.543 263.929 232.387 263.892 232.247 263.821C232.107 263.75 231.985 263.646 231.892 263.519C227.161 257.035 227.019 245.533 231.469 229.334C233.597 221.742 236.27 214.314 239.469 207.108C239.58 206.867 239.782 206.68 240.031 206.589C240.28 206.497 240.555 206.508 240.796 206.619C241.037 206.73 241.224 206.932 241.315 207.181C241.407 207.43 241.396 207.705 241.285 207.946C241.101 208.346 223.022 247.975 233.502 262.34C233.611 262.489 233.676 262.665 233.691 262.849C233.705 263.033 233.669 263.217 233.585 263.382C233.502 263.546 233.375 263.684 233.217 263.781C233.06 263.878 232.879 263.929 232.695 263.929H232.7Z" fill="white"/>
<path d="M244.183 188.22C244.248 188.23 244.311 188.253 244.368 188.288C244.425 188.323 244.474 188.368 244.513 188.422C244.551 188.476 244.58 188.538 244.595 188.603C244.609 188.667 244.611 188.735 244.6 188.8C244.588 188.865 244.564 188.928 244.528 188.984C244.492 189.04 244.445 189.088 244.391 189.126C244.336 189.164 244.274 189.19 244.209 189.203L244.199 189.205L237.1 190.832L236.493 190.972L236.759 191.534C237.246 192.563 237.83 194.117 237.903 195.75C237.972 197.266 237.602 198.831 236.314 200.134L236.044 200.391C235.952 200.473 235.833 200.518 235.709 200.518H235.706C235.605 200.518 235.506 200.487 235.423 200.43C235.339 200.372 235.275 200.291 235.239 200.196C235.203 200.102 235.196 199.999 235.22 199.901C235.244 199.802 235.297 199.713 235.372 199.646H235.373C237.144 198.057 237.06 195.797 236.615 194.07C236.279 192.763 235.715 191.661 235.441 191.173L235.284 190.905C235.241 190.838 235.216 190.76 235.209 190.681C235.202 190.601 235.214 190.521 235.244 190.447C235.275 190.373 235.323 190.308 235.384 190.256C235.414 190.23 235.447 190.208 235.482 190.191L235.595 190.151L243.976 188.232L243.985 188.229C244.05 188.212 244.117 188.21 244.183 188.22Z" fill="#001933" stroke="#001933"/>
<path d="M180.301 213.793C180.385 213.768 180.473 213.765 180.558 213.784C180.643 213.804 180.721 213.845 180.785 213.904C180.849 213.964 180.896 214.039 180.922 214.122C180.942 214.184 180.948 214.249 180.943 214.314L180.934 214.378C180.233 217.576 178.486 220.45 175.97 222.545C173.611 224.509 170.701 225.684 167.65 225.913L167.039 225.946C166.96 225.948 166.872 225.948 166.785 225.948C163.78 225.929 160.854 224.982 158.41 223.234C155.965 221.487 154.121 219.026 153.129 216.189L153.128 216.187L153.111 216.124C153.097 216.061 153.096 215.995 153.107 215.931C153.122 215.845 153.159 215.765 153.214 215.698C153.27 215.632 153.342 215.58 153.423 215.55C153.504 215.52 153.591 215.51 153.676 215.524V215.525C162.289 216.938 171.105 216.426 179.491 214.03L180.301 213.793ZM178.865 215.244C171.187 217.308 163.175 217.828 155.294 216.776L155.261 216.771H154.415L154.78 217.496C155.92 219.76 157.673 221.659 159.838 222.976C162.004 224.293 164.497 224.976 167.032 224.946L167.042 224.945C169.781 224.854 172.429 223.943 174.644 222.329C176.859 220.716 178.538 218.474 179.464 215.896L179.788 214.996L178.865 215.244Z" fill="#001933" stroke="#001933"/>
</svg>
