<svg width="512" height="512" viewBox="0 0 512 512" fill="none" xmlns="http://www.w3.org/2000/svg">
<g clip-path="url(#clip0_9405_46130)">
<g opacity="0.2">
<path d="M397.42 397.421C475.525 319.317 475.525 192.683 397.42 114.579C319.315 36.4738 192.682 36.4738 114.577 114.579C36.4725 192.684 36.4725 319.316 114.577 397.421C192.682 475.526 319.315 475.526 397.42 397.421Z" fill="#007BFF"/>
</g>
<path d="M271.97 219.02H86.2699C80.5147 219.02 74.9953 216.734 70.9257 212.664C66.8562 208.595 64.5699 203.075 64.5699 197.32L64.5699 81.79C64.5671 81.0666 64.8485 80.371 65.3535 79.8529C65.8585 79.3348 66.5467 79.0357 67.2699 79.02L271.97 79.02C272.332 79.02 272.691 79.0914 273.026 79.2301C273.361 79.3688 273.665 79.5721 273.922 79.8284C274.178 80.0847 274.381 80.389 274.52 80.7238C274.659 81.0587 274.73 81.4176 274.73 81.78V216.22C274.735 216.586 274.668 216.949 274.531 217.289C274.395 217.628 274.193 217.937 273.936 218.198C273.679 218.458 273.373 218.665 273.035 218.806C272.698 218.947 272.336 219.02 271.97 219.02Z" fill="white"/>
<path d="M272 220H86.25C80.233 219.995 74.4637 217.603 70.2081 213.349C65.9524 209.095 63.558 203.327 63.55 197.31V81.79C63.5447 81.2934 63.6381 80.8006 63.8248 80.3403C64.0116 79.8801 64.2878 79.4615 64.6376 79.1089C64.9874 78.7563 65.4038 78.4767 65.8626 78.2864C66.3213 78.096 66.8133 77.9987 67.31 78H272C272.995 78 273.95 78.3948 274.655 79.0978C275.36 79.8007 275.757 80.7545 275.76 81.75V216.23C275.761 216.725 275.665 217.215 275.477 217.672C275.288 218.129 275.012 218.545 274.662 218.895C274.313 219.245 273.898 219.523 273.441 219.713C272.984 219.902 272.495 220 272 220ZM67.31 80C66.845 80 66.3988 80.1841 66.069 80.512C65.7393 80.8399 65.5527 81.285 65.55 81.75V197.25C65.5448 199.972 66.0762 202.669 67.114 205.185C68.1518 207.702 69.6756 209.989 71.5981 211.917C73.5207 213.844 75.8044 215.373 78.3185 216.417C80.8326 217.461 83.5278 217.999 86.25 218H272C272.231 218.001 272.459 217.957 272.673 217.87C272.886 217.782 273.08 217.654 273.244 217.491C273.407 217.328 273.537 217.135 273.626 216.922C273.714 216.709 273.76 216.481 273.76 216.25V81.79C273.764 81.5564 273.721 81.3243 273.635 81.1073C273.548 80.8903 273.419 80.6927 273.255 80.5261C273.091 80.3594 272.896 80.2271 272.681 80.1368C272.465 80.0465 272.234 80 272 80H67.31Z" fill="#001933"/>
<path d="M194.67 94.12V123H106.3V202.33H264.94V94.12H194.67Z" fill="white"/>
<path d="M64.8099 79V81.59C64.8074 80.7231 64.8709 79.8573 64.9999 79H64.8099Z" fill="#5D5D5D"/>
<path d="M80.0557 64.251C84.2445 63.9334 88.4012 65.1944 91.708 67.7852C95.003 70.3668 97.2157 74.0835 97.918 78.209C97.9176 78.2401 97.9182 78.2847 97.918 78.3418C97.9175 78.4634 97.917 78.6469 97.917 78.8887C97.9169 79.3727 97.9183 80.0945 97.9199 81.0342C97.9232 82.9136 97.9293 85.6673 97.9385 89.1416C97.9569 96.0902 97.9862 105.923 98.0225 117.42C98.0943 140.196 98.1929 169.501 98.2871 195.837C95.9893 193.719 89.4709 188.635 80.1973 190.006C71.2303 191.332 66.3965 197.866 64.5 201.139V80.7871C64.5614 76.5867 66.191 72.5607 69.0693 69.501C71.9477 66.4412 75.8668 64.5686 80.0557 64.251ZM98.4199 78.4814C98.1628 78.4655 97.9471 78.3227 97.9277 78.2568L98.4199 78.1719C98.4189 78.1879 98.4203 78.2924 98.4199 78.4814Z" fill="#001933" stroke="#001933"/>
<path d="M116.3 162.94H163.93C164.063 162.94 164.19 162.993 164.283 163.086C164.377 163.18 164.43 163.307 164.43 163.44C164.43 163.573 164.377 163.7 164.283 163.793C164.19 163.887 164.063 163.94 163.93 163.94H116.3C116.167 163.94 116.04 163.887 115.947 163.793C115.853 163.7 115.8 163.573 115.8 163.44C115.8 163.307 115.853 163.18 115.947 163.086C116.04 162.993 116.167 162.94 116.3 162.94Z" fill="#001933" stroke="#001933"/>
<path d="M163.93 154.67C164.063 154.67 164.19 154.723 164.283 154.817C164.377 154.91 164.43 155.037 164.43 155.17V172.651C164.43 172.783 164.377 172.91 164.283 173.004C164.19 173.098 164.062 173.151 163.93 173.151C163.797 173.151 163.67 173.098 163.576 173.004C163.483 172.91 163.43 172.783 163.43 172.651V155.17C163.43 155.037 163.483 154.91 163.576 154.817C163.67 154.723 163.797 154.67 163.93 154.67Z" fill="#001933" stroke="#001933"/>
<path d="M227.532 93.6171C227.673 93.6852 227.982 93.8731 228.751 94.3768C230.267 95.3694 233.455 97.5091 240.373 102.106C240.484 102.18 240.562 102.295 240.588 102.426C240.614 102.556 240.587 102.693 240.514 102.804C240.44 102.914 240.325 102.991 240.194 103.017C240.064 103.044 239.927 103.017 239.816 102.943L227.427 94.704L227.301 94.62H195.17V123C195.17 123.132 195.117 123.26 195.023 123.353C194.93 123.447 194.803 123.5 194.67 123.5C194.537 123.5 194.41 123.447 194.316 123.353C194.223 123.26 194.17 123.132 194.17 123V94.12L194.18 94.0223C194.199 93.9261 194.246 93.8369 194.316 93.7665C194.41 93.6727 194.537 93.62 194.67 93.62H227.45C227.48 93.62 227.506 93.6169 227.527 93.6151C227.529 93.6158 227.531 93.6163 227.532 93.6171Z" fill="#001933" stroke="#001933"/>
<path d="M248.76 93.62H264.94C265.073 93.6201 265.2 93.6728 265.294 93.7665C265.388 93.8602 265.44 93.9875 265.44 94.12V94.1219L265.74 158.332V158.335C265.741 158.456 265.698 158.574 265.619 158.666C265.54 158.758 265.43 158.818 265.31 158.835L265.307 158.836C256.546 160.141 252.421 160.755 250.472 161.044C248.487 161.338 248.771 161.29 248.76 161.29H248.742L248.725 161.291C248.659 161.295 248.593 161.287 248.53 161.266C248.468 161.246 248.41 161.212 248.36 161.169C248.26 161.081 248.198 160.958 248.188 160.825C248.179 160.692 248.223 160.561 248.311 160.461C248.398 160.36 248.522 160.298 248.655 160.289L248.675 160.287L248.693 160.284L264.304 157.955L264.731 157.891L264.729 157.458L264.5 95.118L264.498 94.62H248.76C248.627 94.6199 248.5 94.5672 248.406 94.4735C248.313 94.3798 248.26 94.2526 248.26 94.12C248.26 93.9874 248.313 93.8602 248.406 93.7665C248.5 93.6728 248.627 93.62 248.76 93.62Z" fill="#001933" stroke="#001933"/>
<path d="M116.3 122.5H194.67C194.803 122.5 194.93 122.553 195.024 122.646C195.117 122.74 195.17 122.867 195.17 123V160.29H227.45C227.583 160.29 227.71 160.343 227.804 160.437C227.898 160.53 227.95 160.658 227.95 160.79C227.95 160.923 227.898 161.05 227.804 161.144C227.71 161.237 227.583 161.29 227.45 161.29H194.67C194.538 161.29 194.41 161.237 194.317 161.144C194.223 161.05 194.17 160.923 194.17 160.79V123.5H116.8V201.83H264.94C265.072 201.83 265.199 201.883 265.293 201.977C265.387 202.07 265.44 202.197 265.44 202.33C265.44 202.463 265.387 202.59 265.293 202.684C265.199 202.777 265.072 202.83 264.94 202.83H116.3C116.167 202.83 116.04 202.777 115.947 202.684C115.853 202.59 115.8 202.463 115.8 202.33V123C115.8 122.867 115.853 122.74 115.947 122.646C116.04 122.553 116.167 122.5 116.3 122.5Z" fill="#001933" stroke="#001933"/>
<path d="M108.51 330.67C123.201 330.67 135.11 318.761 135.11 304.07C135.11 289.379 123.201 277.47 108.51 277.47C93.8191 277.47 81.9099 289.379 81.9099 304.07C81.9099 318.761 93.8191 330.67 108.51 330.67Z" fill="white"/>
<path d="M108.51 331.67C103.051 331.67 97.715 330.051 93.1762 327.019C88.6374 323.986 85.0998 319.675 83.0109 314.632C80.9219 309.589 80.3753 304.039 81.4402 298.685C82.5052 293.332 85.1338 288.414 88.9938 284.554C92.8537 280.694 97.7716 278.065 103.125 277C108.479 275.935 114.029 276.482 119.072 278.571C124.115 280.66 128.426 284.197 131.458 288.736C134.491 293.275 136.11 298.611 136.11 304.07C136.102 311.388 133.192 318.403 128.017 323.577C122.843 328.752 115.827 331.662 108.51 331.67ZM108.51 278.47C103.447 278.47 98.4972 279.971 94.2873 282.784C90.0774 285.597 86.7962 289.596 84.8586 294.273C82.921 298.951 82.414 304.098 83.4018 309.064C84.3896 314.03 86.8278 318.592 90.408 322.172C93.9882 325.752 98.5497 328.19 103.516 329.178C108.482 330.166 113.629 329.659 118.307 327.721C122.984 325.784 126.983 322.502 129.796 318.293C132.609 314.083 134.11 309.133 134.11 304.07C134.099 297.284 131.399 290.778 126.6 285.98C121.802 281.181 115.296 278.481 108.51 278.47Z" fill="#001933"/>
<path d="M108.538 262.91C116.646 262.945 124.565 265.362 131.312 269.858C137.94 274.276 143.149 280.512 146.319 287.813L144.327 289.053C132.61 261.064 94.5046 256.679 76.8789 281.601L75.0234 280.288C78.7565 274.985 83.6979 270.642 89.4414 267.62C95.3298 264.522 101.884 262.905 108.538 262.91Z" fill="#001933" stroke="#001933"/>
<path d="M74.563 285.188C71.8015 290.167 70.1671 295.695 69.7778 301.379C69.3783 307.215 70.3015 313.065 72.478 318.495C74.6545 323.923 78.0283 328.791 82.3481 332.735C86.5667 336.586 91.5814 339.457 97.0337 341.149L96.8169 343.492C70.9781 335.882 59.9614 306.415 72.6899 283.865L74.563 285.188Z" fill="#001933" stroke="#001933"/>
<path d="M147.796 291.94C156.909 321.222 131.468 350.181 101.021 344.493L101.235 342.227C129.646 347.667 153.958 320.968 145.788 293.175L147.796 291.94Z" fill="#001933" stroke="#001933"/>
<path d="M334.72 340.25C326.16 295.11 331.07 289.25 321.88 281.05C316.963 276.89 311.141 273.938 304.88 272.43C302.768 271.865 300.903 270.616 299.575 268.88C298.248 267.143 297.532 265.016 297.54 262.83V258.13C302.54 255.13 306.95 251.8 309.8 246.73C315.153 239.094 317.762 229.869 317.2 220.56C317.695 211.788 315.347 203.091 310.504 195.76C305.661 188.429 298.583 182.856 290.32 179.87C284.597 177.746 278.625 176.365 272.55 175.76C267.691 175.347 262.798 175.916 258.164 177.434C253.53 178.952 249.248 181.387 245.574 184.594C241.901 187.801 238.91 191.715 236.781 196.102C234.651 200.489 233.427 205.26 233.18 210.13C233.07 212.26 232.81 220.25 232.91 220.25C232.344 220.242 231.782 220.348 231.258 220.562C230.734 220.776 230.259 221.094 229.861 221.496C229.463 221.899 229.15 222.378 228.942 222.904C228.734 223.431 228.634 223.994 228.649 224.56C228.663 225.126 228.793 225.683 229.028 226.197C229.264 226.712 229.601 227.174 230.02 227.555C230.438 227.936 230.929 228.229 231.464 228.415C231.999 228.602 232.565 228.678 233.13 228.64C232.26 250.64 245.97 267.1 272.72 265.41C272.738 267.345 272.169 269.241 271.089 270.847C270.009 272.454 268.469 273.696 266.67 274.41C261.954 276.171 257.601 278.785 253.83 282.12C248.78 286.72 244.12 293.85 241.77 327.12C240.178 349.911 240.513 372.795 242.77 395.53H347.17C347.15 395.45 339.6 366 334.72 340.25Z" fill="white"/>
<path d="M347.17 396.54H242.73C242.481 396.541 242.241 396.45 242.056 396.283C241.871 396.117 241.755 395.887 241.73 395.64C239.48 372.848 239.145 349.908 240.73 327.06C243.13 293.12 247.96 286.06 253.12 281.38C256.978 277.958 261.437 275.279 266.27 273.48C267.709 272.903 268.966 271.948 269.908 270.716C270.85 269.484 271.441 268.02 271.62 266.48C245.95 267.66 231.67 251.92 232.07 229.61C230.86 229.421 229.755 228.812 228.949 227.889C228.143 226.966 227.689 225.789 227.665 224.564C227.641 223.339 228.049 222.145 228.818 221.192C229.587 220.238 230.668 219.586 231.87 219.35C231.87 216.35 231.98 213.26 232.14 210.09C232.39 205.084 233.647 200.179 235.834 195.669C238.021 191.159 241.094 187.136 244.871 183.839C248.647 180.543 253.048 178.041 257.812 176.483C262.577 174.924 267.606 174.342 272.6 174.77C278.753 175.389 284.802 176.79 290.6 178.94C299.039 182.021 306.268 187.727 311.225 195.22C316.182 202.713 318.606 211.598 318.14 220.57C318.705 230.063 316.044 239.469 310.59 247.26C308.06 252.1 303.13 255.82 298.48 258.71V262.84C298.472 264.804 299.114 266.715 300.306 268.276C301.498 269.837 303.173 270.96 305.07 271.47C311.497 273.02 317.472 276.051 322.52 280.32C332.04 288.84 327.13 295.04 335.67 340.07C339.08 358.02 343.67 377.62 348.12 395.33C348.151 395.474 348.15 395.622 348.117 395.765C348.084 395.908 348.02 396.042 347.929 396.158C347.838 396.273 347.723 396.367 347.592 396.434C347.461 396.5 347.317 396.536 347.17 396.54ZM243.63 394.54H345.89C344.1 387.46 337.95 362.63 333.74 340.43C334.1 340.43 331.25 331.11 328.15 302.36C326.83 290.15 326.44 286.47 321.22 281.8C316.405 277.743 310.711 274.864 304.59 273.39C302.267 272.768 300.215 271.395 298.753 269.485C297.292 267.575 296.503 265.235 296.51 262.83V258.13C296.511 257.959 296.555 257.791 296.639 257.642C296.723 257.494 296.844 257.369 296.99 257.28C301.79 254.37 306.15 251.13 308.86 246.28C308.86 246.28 308.93 246.16 308.95 246.14C313.71 239.352 316.259 231.261 316.25 222.97C316.25 221.4 316.16 220.66 316.17 220.48C316.623 211.938 314.325 203.477 309.615 196.337C304.905 189.197 298.03 183.755 290 180.81C284.356 178.718 278.469 177.353 272.48 176.75C267.754 176.347 262.995 176.899 258.488 178.375C253.98 179.85 249.816 182.219 246.243 185.339C242.671 188.458 239.763 192.266 237.694 196.534C235.625 200.802 234.437 205.443 234.2 210.18C234.02 213.64 233.93 217.03 233.93 220.25C233.93 220.515 233.825 220.77 233.637 220.957C233.45 221.145 233.195 221.25 232.93 221.25C232.494 221.226 232.058 221.29 231.648 221.44C231.238 221.591 230.863 221.823 230.545 222.123C230.228 222.423 229.975 222.784 229.803 223.185C229.63 223.586 229.541 224.018 229.541 224.455C229.541 224.892 229.63 225.324 229.803 225.725C229.975 226.126 230.228 226.487 230.545 226.787C230.863 227.087 231.238 227.319 231.648 227.469C232.058 227.619 232.494 227.684 232.93 227.66C233.078 227.626 233.232 227.627 233.38 227.662C233.528 227.697 233.667 227.766 233.784 227.862C233.902 227.958 233.996 228.08 234.059 228.219C234.123 228.357 234.154 228.508 234.15 228.66C233.92 234.48 234.66 245.51 242.23 254.04C250.76 263.65 263.5 264.97 272.68 264.39C272.816 264.382 272.953 264.402 273.081 264.448C273.209 264.495 273.327 264.567 273.426 264.661C273.526 264.754 273.605 264.867 273.659 264.993C273.713 265.118 273.74 265.253 273.74 265.39C273.75 267.525 273.117 269.614 271.924 271.385C270.731 273.156 269.033 274.527 267.05 275.32C262.445 277.033 258.197 279.582 254.52 282.84C249.68 287.26 245.13 293.97 242.79 327.18C241.205 349.618 241.486 372.149 243.63 394.54Z" fill="#001933"/>
<path d="M443.91 116.48H345.84C343.565 116.48 341.72 118.325 341.72 120.6V195.71C341.72 197.985 343.565 199.83 345.84 199.83H443.91C446.185 199.83 448.03 197.985 448.03 195.71V120.6C448.03 118.325 446.185 116.48 443.91 116.48Z" fill="white"/>
<path d="M443.92 200.83H345.84C344.483 200.827 343.182 200.287 342.223 199.327C341.263 198.368 340.723 197.067 340.72 195.71V120.6C340.723 119.243 341.263 117.942 342.223 116.983C343.182 116.023 344.483 115.483 345.84 115.48H443.92C445.27 115.493 446.561 116.038 447.512 116.997C448.463 117.955 448.997 119.25 449 120.6V195.71C448.997 197.06 448.463 198.355 447.512 199.313C446.561 200.272 445.27 200.817 443.92 200.83ZM345.84 117.48C345.012 117.48 344.219 117.809 343.634 118.394C343.049 118.979 342.72 119.773 342.72 120.6V195.71C342.72 196.537 343.049 197.331 343.634 197.916C344.219 198.501 345.012 198.83 345.84 198.83H443.92C444.747 198.83 445.541 198.501 446.126 197.916C446.711 197.331 447.04 196.537 447.04 195.71V120.6C447.04 119.773 446.711 118.979 446.126 118.394C445.541 117.809 444.747 117.48 443.92 117.48H345.84Z" fill="#001933"/>
<path d="M372.045 128.985C376.813 127.953 381.787 128.458 386.25 130.429C390.574 132.337 394.204 135.525 396.654 139.558L396.888 139.951C399.329 144.148 400.383 149.009 399.899 153.841C399.431 158.521 397.544 162.942 394.495 166.515L394.196 166.858C390.959 170.508 386.648 173.038 381.883 174.085C377.118 175.132 372.143 174.642 367.674 172.685C363.205 170.729 359.47 167.407 357.007 163.195C354.544 158.984 353.478 154.1 353.964 149.245C354.45 144.391 356.461 139.815 359.71 136.175C362.958 132.535 367.277 130.018 372.045 128.985ZM381.067 136.066C367.287 132.403 355.954 147.256 363.107 159.571L363.252 159.82H363.287C364.598 161.986 366.405 163.812 368.561 165.144C370.799 166.528 373.344 167.337 375.97 167.502C378.596 167.667 381.222 167.181 383.616 166.089C386.01 164.996 388.097 163.33 389.693 161.238C391.289 159.146 392.344 156.692 392.766 154.095C393.187 151.497 392.961 148.836 392.108 146.347C391.255 143.857 389.802 141.617 387.876 139.824C385.95 138.031 383.611 136.74 381.067 136.066Z" fill="#001933" stroke="#001933"/>
<path d="M369.545 169.388C369.715 169.362 369.888 169.371 370.054 169.414V169.413L374.052 170.474C374.218 170.519 374.372 170.597 374.506 170.703C374.641 170.81 374.754 170.944 374.835 171.096C374.917 171.248 374.968 171.414 374.983 171.586C374.998 171.757 374.978 171.929 374.925 172.092C373.883 175.229 373.409 176.697 373.152 177.434C373.021 177.808 372.958 177.959 372.917 178.036C372.888 178.089 372.885 178.087 372.787 178.197L372.786 178.199C372.631 178.374 372.431 178.502 372.208 178.568C371.984 178.635 371.746 178.638 371.521 178.577L371.518 178.576L368.239 177.707L368.237 177.706L368.125 177.671C367.87 177.578 367.651 177.403 367.504 177.172C367.338 176.909 367.276 176.593 367.331 176.287L368.5 170.388C368.534 170.219 368.601 170.059 368.699 169.918C368.796 169.777 368.922 169.657 369.067 169.566C369.212 169.474 369.376 169.414 369.545 169.388Z" fill="#001933" stroke="#001933"/>
<path d="M382.253 124.161L382.423 124.193L385.711 125.062V125.063C386.013 125.144 386.275 125.336 386.443 125.6C386.61 125.863 386.672 126.178 386.619 126.484C385.991 129.709 385.717 131.263 385.539 132.087C385.449 132.502 385.393 132.682 385.346 132.781C385.313 132.853 385.287 132.883 385.173 133L385.164 133.01L385.155 133.018C385.001 133.193 384.8 133.322 384.577 133.389C384.354 133.455 384.116 133.458 383.891 133.397L383.888 133.396L379.888 132.337H379.886C379.719 132.293 379.562 132.214 379.427 132.107C379.291 132 379.178 131.866 379.096 131.714C379.015 131.561 378.964 131.394 378.95 131.222C378.936 131.049 378.958 130.875 379.013 130.711L379.015 130.707C380.018 127.665 380.492 126.195 380.76 125.431C380.895 125.045 380.967 124.868 381.019 124.767C381.059 124.691 381.082 124.666 381.163 124.573C381.318 124.4 381.518 124.273 381.74 124.206C381.907 124.156 382.081 124.14 382.253 124.161Z" fill="#001933" stroke="#001933"/>
<path d="M369.545 169.388C369.715 169.362 369.888 169.371 370.054 169.414V169.413L374.052 170.474C374.218 170.519 374.372 170.597 374.506 170.703C374.641 170.81 374.754 170.944 374.835 171.096C374.917 171.248 374.968 171.414 374.983 171.586C374.998 171.757 374.978 171.929 374.925 172.092C373.883 175.229 373.409 176.697 373.152 177.434C373.021 177.808 372.958 177.959 372.917 178.036C372.888 178.089 372.885 178.087 372.787 178.197L372.786 178.199C372.631 178.374 372.431 178.502 372.208 178.568C371.984 178.635 371.746 178.638 371.521 178.577L371.518 178.576L368.239 177.707L368.237 177.706L368.125 177.671C367.87 177.578 367.651 177.403 367.504 177.172C367.338 176.909 367.276 176.593 367.331 176.287L368.5 170.388C368.534 170.219 368.601 170.059 368.699 169.918C368.796 169.777 368.922 169.657 369.067 169.566C369.212 169.474 369.376 169.414 369.545 169.388Z" fill="#001933" stroke="#001933"/>
<path d="M382.253 124.161L382.423 124.193L385.711 125.062V125.063C386.013 125.144 386.275 125.336 386.443 125.6C386.61 125.863 386.672 126.178 386.619 126.484C385.991 129.709 385.717 131.263 385.539 132.087C385.449 132.502 385.393 132.682 385.346 132.781C385.313 132.853 385.287 132.883 385.173 133L385.164 133.01L385.155 133.018C385.001 133.193 384.8 133.322 384.577 133.389C384.354 133.455 384.116 133.458 383.891 133.397L383.888 133.396L379.888 132.337H379.886C379.719 132.293 379.562 132.214 379.427 132.107C379.291 132 379.178 131.866 379.096 131.714C379.015 131.561 378.964 131.394 378.95 131.222C378.936 131.049 378.958 130.875 379.013 130.711L379.015 130.707C380.018 127.665 380.492 126.195 380.76 125.431C380.895 125.045 380.967 124.868 381.019 124.767C381.059 124.691 381.082 124.666 381.163 124.573C381.318 124.4 381.518 124.273 381.74 124.206C381.907 124.156 382.081 124.14 382.253 124.161Z" fill="#001933" stroke="#001933"/>
<path d="M351.188 141.907C351.461 141.738 351.788 141.679 352.103 141.741V141.74L357.993 142.911V142.91C358.161 142.944 358.321 143.013 358.462 143.111C358.603 143.209 358.723 143.336 358.814 143.482C358.906 143.629 358.966 143.792 358.992 143.963C359.018 144.133 359.01 144.307 358.967 144.474H358.966C358.407 146.628 358.15 147.687 357.979 148.272C357.894 148.564 357.84 148.7 357.797 148.782C357.761 148.849 357.729 148.889 357.637 148.985L357.633 148.991L357.627 148.997C357.462 149.182 357.246 149.315 357.007 149.379C356.767 149.442 356.513 149.434 356.278 149.355H356.277L350.589 147.456C350.283 147.354 350.027 147.139 349.874 146.855C349.721 146.572 349.681 146.24 349.763 145.928L350.633 142.652C350.717 142.343 350.915 142.076 351.188 141.907Z" fill="#001933" stroke="#001933"/>
<path d="M396.919 153.429C397.156 153.366 397.406 153.374 397.638 153.453L397.642 153.454L403.352 155.355V155.354C403.657 155.456 403.911 155.671 404.062 155.954C404.214 156.238 404.252 156.569 404.168 156.879L404.167 156.881C403.703 158.614 403.486 159.481 403.335 159.983C403.26 160.23 403.21 160.359 403.167 160.446C403.129 160.52 403.09 160.576 403.015 160.668C402.87 160.833 402.683 160.957 402.474 161.028C402.266 161.098 402.043 161.112 401.827 161.07H401.828L395.938 159.89H395.937C395.768 159.857 395.607 159.788 395.466 159.691C395.324 159.593 395.203 159.467 395.112 159.321C395.021 159.174 394.96 159.011 394.934 158.84C394.915 158.712 394.916 158.582 394.936 158.455L394.964 158.328C395.527 156.202 395.792 155.142 395.966 154.552C396.052 154.258 396.107 154.114 396.152 154.024C396.19 153.949 396.224 153.903 396.305 153.811L396.306 153.81C396.468 153.625 396.681 153.492 396.919 153.429Z" fill="#001933" stroke="#001933"/>
<path d="M358.032 158.612C358.201 158.581 358.374 158.584 358.542 158.622C358.709 158.66 358.868 158.732 359.006 158.834C359.145 158.935 359.261 159.065 359.348 159.213L361.427 162.801L361.429 162.803C361.564 163.033 361.624 163.3 361.599 163.565C361.575 163.828 361.469 164.076 361.297 164.276C361.218 164.364 361.191 164.394 361.113 164.447C361.013 164.515 360.841 164.612 360.476 164.799C359.752 165.169 358.375 165.838 355.548 167.252C355.261 167.394 354.93 167.422 354.623 167.33C354.354 167.249 354.12 167.083 353.957 166.857L353.891 166.757L352.181 163.818C352.023 163.542 351.975 163.217 352.045 162.907C352.116 162.596 352.301 162.322 352.564 162.141L352.563 162.14L357.557 158.805L357.559 158.804C357.702 158.709 357.863 158.643 358.032 158.612Z" fill="#001933" stroke="#001933"/>
<path d="M398.415 135.526C398.701 135.382 399.031 135.353 399.338 135.443C399.607 135.522 399.84 135.688 400.003 135.913L400.069 136.014L401.777 138.949V138.95C401.91 139.181 401.967 139.448 401.94 139.713C401.913 139.978 401.803 140.228 401.626 140.428L401.624 140.43C401.57 140.491 401.568 140.496 401.514 140.539C401.437 140.599 401.294 140.701 400.971 140.919C400.332 141.349 399.055 142.191 396.382 143.974C396.239 144.069 396.078 144.134 395.908 144.164C395.739 144.194 395.564 144.19 395.397 144.15C395.229 144.111 395.071 144.036 394.933 143.933C394.795 143.83 394.68 143.7 394.594 143.551L394.592 143.549L392.512 139.969C392.379 139.74 392.322 139.475 392.349 139.212C392.376 138.949 392.486 138.701 392.662 138.504C392.741 138.416 392.77 138.386 392.848 138.333C392.948 138.265 393.119 138.168 393.484 137.981C394.208 137.611 395.585 136.941 398.413 135.527L398.415 135.526Z" fill="#001933" stroke="#001933"/>
<path d="M364.563 126.611C364.84 126.449 365.168 126.399 365.48 126.472C365.793 126.545 366.065 126.736 366.241 127.004L366.244 127.007L369.578 131.999V132C369.727 132.233 369.796 132.508 369.774 132.784C369.752 133.059 369.641 133.319 369.458 133.526C369.395 133.596 369.378 133.614 369.33 133.651C369.267 133.699 369.157 133.772 368.912 133.918L365.578 135.858C365.43 135.943 365.267 135.999 365.098 136.019C364.928 136.04 364.755 136.025 364.591 135.977C364.427 135.929 364.274 135.847 364.143 135.738C364.044 135.656 363.958 135.56 363.889 135.453L363.825 135.342L361.127 129.956L361.124 129.951L361.049 129.773C360.987 129.591 360.968 129.396 360.993 129.204C361.027 128.947 361.137 128.707 361.311 128.515L361.312 128.513C361.378 128.44 361.389 128.427 361.422 128.402C361.468 128.367 361.552 128.312 361.755 128.194C362.158 127.959 362.928 127.535 364.556 126.616L364.563 126.611Z" fill="#001933" stroke="#001933"/>
<path d="M388.847 166.751C389.018 166.731 389.191 166.746 389.356 166.796C389.521 166.846 389.675 166.928 389.807 167.039C389.938 167.15 390.045 167.288 390.122 167.442L390.123 167.444L392.812 172.813C392.924 173.04 392.967 173.294 392.934 173.544C392.9 173.794 392.794 174.028 392.627 174.217C392.56 174.292 392.548 174.306 392.512 174.335C392.465 174.372 392.379 174.43 392.178 174.552C391.776 174.794 391.005 175.234 389.379 176.178L389.377 176.179C389.1 176.341 388.771 176.391 388.459 176.318C388.147 176.245 387.874 176.054 387.698 175.786L387.695 175.782L384.358 170.786C384.264 170.642 384.2 170.479 384.17 170.31C384.14 170.14 384.145 169.966 384.185 169.798C384.224 169.63 384.298 169.472 384.4 169.334C384.477 169.23 384.57 169.138 384.674 169.062L384.781 168.992L388.361 166.912C388.51 166.826 388.676 166.771 388.847 166.751Z" fill="#001933" stroke="#001933"/>
<path d="M376.98 139.93C383.309 139.93 388.44 145.061 388.44 151.39C388.44 157.719 383.309 162.85 376.98 162.85C370.651 162.85 365.52 157.719 365.52 151.39C365.52 145.061 370.651 139.93 376.98 139.93Z" fill="#001933" stroke="#001933"/>
<path d="M418.049 155.593C421.434 154.866 424.963 155.229 428.128 156.631C431.293 158.034 433.932 160.404 435.667 163.401C437.395 166.383 438.138 169.834 437.79 173.263C437.463 176.478 436.193 179.519 434.146 182.007L433.727 182.498C431.425 185.084 428.362 186.875 424.979 187.612C421.597 188.349 418.067 187.995 414.897 186.601C411.728 185.207 409.082 182.845 407.339 179.854C405.596 176.863 404.845 173.395 405.195 169.951C405.545 166.506 406.978 163.262 409.287 160.682C411.596 158.103 414.664 156.321 418.049 155.593ZM424.448 160.407C422.23 159.819 419.887 159.901 417.716 160.645C415.545 161.389 413.644 162.76 412.252 164.584C410.86 166.409 410.041 168.606 409.897 170.896C409.754 173.186 410.294 175.468 411.448 177.452C412.407 179.1 413.757 180.487 415.38 181.489C417.003 182.491 418.848 183.078 420.752 183.197C422.655 183.316 424.559 182.964 426.294 182.171C428.029 181.379 429.542 180.17 430.698 178.654C431.855 177.137 432.62 175.359 432.926 173.476C433.231 171.593 433.067 169.664 432.449 167.86C431.831 166.056 430.777 164.431 429.382 163.131C427.986 161.831 426.292 160.896 424.448 160.407Z" fill="#001933" stroke="#001933"/>
<path d="M416.205 184.541C416.307 184.524 416.411 184.528 416.512 184.553V184.554L419.381 185.312V185.313C419.482 185.34 419.576 185.388 419.658 185.452C419.74 185.517 419.808 185.598 419.858 185.689C419.908 185.781 419.94 185.882 419.949 185.986C419.959 186.09 419.946 186.196 419.914 186.295C419.173 188.503 418.829 189.554 418.639 190.098C418.543 190.372 418.495 190.493 418.463 190.56C418.442 190.603 418.431 190.618 418.386 190.679C418.296 190.78 418.18 190.854 418.051 190.894C417.919 190.933 417.778 190.935 417.645 190.898L417.638 190.896L415.287 190.276L415.285 190.275L415.149 190.227C415.019 190.165 414.909 190.067 414.831 189.943C414.728 189.779 414.691 189.58 414.729 189.39L414.73 189.388L415.57 185.168L415.571 185.161C415.59 185.058 415.631 184.959 415.689 184.872C415.748 184.785 415.825 184.71 415.913 184.653C416.002 184.596 416.101 184.558 416.205 184.541Z" fill="#001933" stroke="#001933"/>
<path d="M424.96 152.188C425.093 152.148 425.235 152.146 425.368 152.183L425.372 152.184L427.722 152.804H427.725C427.912 152.852 428.073 152.971 428.175 153.136C428.277 153.3 428.311 153.498 428.271 153.687L428.27 153.692C427.817 155.964 427.615 157.063 427.486 157.65C427.42 157.947 427.381 158.071 427.353 158.136C427.336 158.174 427.327 158.188 427.256 158.268C427.162 158.373 427.041 158.451 426.906 158.491C426.77 158.532 426.627 158.534 426.49 158.497H426.488L423.617 157.736C423.518 157.71 423.424 157.663 423.343 157.599C423.262 157.534 423.194 157.454 423.145 157.362C423.096 157.271 423.066 157.17 423.057 157.066C423.048 156.963 423.061 156.858 423.094 156.76V156.759C423.812 154.611 424.151 153.561 424.345 153.005C424.443 152.723 424.494 152.597 424.529 152.528C424.551 152.483 424.561 152.471 424.613 152.413L424.69 152.336C424.768 152.268 424.86 152.218 424.96 152.188Z" fill="#001933" stroke="#001933"/>
<path d="M416.205 184.541C416.307 184.524 416.411 184.528 416.512 184.553V184.554L419.381 185.312V185.313C419.482 185.34 419.576 185.388 419.658 185.452C419.74 185.517 419.808 185.598 419.858 185.689C419.908 185.781 419.94 185.882 419.949 185.986C419.959 186.09 419.946 186.196 419.914 186.295C419.173 188.503 418.829 189.554 418.639 190.098C418.543 190.372 418.495 190.493 418.463 190.56C418.442 190.603 418.431 190.618 418.386 190.679C418.296 190.78 418.18 190.854 418.051 190.894C417.919 190.933 417.778 190.935 417.645 190.898L417.638 190.896L415.287 190.276L415.285 190.275L415.149 190.227C415.019 190.165 414.909 190.067 414.831 189.943C414.728 189.779 414.691 189.58 414.729 189.39L414.73 189.388L415.57 185.168L415.571 185.161C415.59 185.058 415.631 184.959 415.689 184.872C415.748 184.785 415.825 184.71 415.913 184.653C416.002 184.596 416.101 184.558 416.205 184.541Z" fill="#001933" stroke="#001933"/>
<path d="M424.96 152.188C425.093 152.148 425.235 152.146 425.368 152.183L425.372 152.184L427.722 152.804H427.725C427.912 152.852 428.073 152.971 428.175 153.136C428.277 153.3 428.311 153.498 428.271 153.687L428.27 153.692C427.817 155.964 427.615 157.063 427.486 157.65C427.42 157.947 427.381 158.071 427.353 158.136C427.336 158.174 427.327 158.188 427.256 158.268C427.162 158.373 427.041 158.451 426.906 158.491C426.77 158.532 426.627 158.534 426.49 158.497H426.488L423.617 157.736C423.518 157.71 423.424 157.663 423.343 157.599C423.262 157.534 423.194 157.454 423.145 157.362C423.096 157.271 423.066 157.17 423.057 157.066C423.048 156.963 423.061 156.858 423.094 156.76V156.759C423.812 154.611 424.151 153.561 424.345 153.005C424.443 152.723 424.494 152.597 424.529 152.528C424.551 152.483 424.561 152.471 424.613 152.413L424.69 152.336C424.768 152.268 424.86 152.218 424.96 152.188Z" fill="#001933" stroke="#001933"/>
<path d="M403.67 164.71H403.673L407.902 165.55L407.913 165.552C408.016 165.57 408.115 165.61 408.202 165.668C408.29 165.727 408.364 165.803 408.421 165.891C408.477 165.979 408.515 166.078 408.531 166.182C408.547 166.284 408.543 166.388 408.518 166.489C408.089 168.061 407.894 168.823 407.769 169.238C407.706 169.446 407.672 169.526 407.652 169.562C407.644 169.578 407.641 169.584 407.583 169.64L407.568 169.655L407.554 169.67C407.456 169.782 407.328 169.861 407.185 169.9C407.042 169.938 406.89 169.934 406.75 169.886H406.748L402.668 168.526L402.536 168.467C402.411 168.397 402.307 168.293 402.238 168.165C402.146 167.995 402.123 167.796 402.173 167.609L402.174 167.608L402.793 165.257L402.794 165.256C402.842 165.07 402.96 164.91 403.123 164.808C403.286 164.706 403.482 164.672 403.67 164.71Z" fill="#001933" stroke="#001933"/>
<path d="M435.755 173.09C435.898 173.051 436.05 173.056 436.19 173.103L436.193 173.105L440.336 174.471V174.472C440.521 174.537 440.675 174.668 440.768 174.841C440.861 175.013 440.885 175.215 440.835 175.405C440.492 176.703 440.341 177.32 440.238 177.663C440.187 177.831 440.158 177.897 440.14 177.93C440.127 177.955 440.114 177.973 440.048 178.046L440.047 178.047C439.958 178.146 439.845 178.221 439.718 178.263C439.592 178.306 439.457 178.314 439.326 178.289H439.325L435.108 177.45L435.101 177.448L435.024 177.43C434.949 177.408 434.877 177.374 434.812 177.33C434.725 177.271 434.65 177.196 434.593 177.107C434.536 177.019 434.498 176.919 434.481 176.815C434.464 176.714 434.469 176.61 434.493 176.51C434.903 174.991 435.088 174.246 435.209 173.805C435.269 173.589 435.303 173.484 435.331 173.42C435.348 173.377 435.363 173.353 435.394 173.311C435.491 173.204 435.616 173.127 435.755 173.09Z" fill="#001933" stroke="#001933"/>
<path d="M407.974 176.849C408.076 176.83 408.181 176.832 408.282 176.856C408.383 176.879 408.479 176.922 408.562 176.984C408.645 177.044 408.715 177.121 408.767 177.21V177.211L410.258 179.78L410.26 179.785C410.342 179.922 410.377 180.082 410.362 180.24C410.347 180.399 410.282 180.549 410.177 180.668L410.176 180.669C410.12 180.732 410.119 180.733 410.089 180.754C410.035 180.791 409.928 180.853 409.669 180.986C409.159 181.249 408.169 181.734 406.098 182.772C405.924 182.858 405.723 182.875 405.536 182.818C405.349 182.762 405.191 182.637 405.093 182.469L403.873 180.369C403.777 180.204 403.747 180.008 403.79 179.821C403.832 179.635 403.944 179.471 404.102 179.362L404.101 179.361L407.688 176.966V176.965C407.774 176.907 407.872 176.868 407.974 176.849Z" fill="#001933" stroke="#001933"/>
<path d="M436.913 160.287C437.086 160.201 437.285 160.184 437.47 160.239C437.654 160.293 437.811 160.417 437.908 160.583L439.136 162.677V162.678C439.215 162.817 439.25 162.978 439.233 163.138C439.221 163.258 439.181 163.373 439.117 163.474L439.045 163.57C439.024 163.594 439.031 163.587 439.003 163.608C438.948 163.648 438.846 163.715 438.609 163.871C438.148 164.176 437.227 164.784 435.312 166.084C435.226 166.142 435.128 166.181 435.026 166.199C434.924 166.218 434.819 166.214 434.718 166.191C434.617 166.167 434.522 166.123 434.438 166.061C434.355 165.999 434.285 165.92 434.233 165.83L434.232 165.828L432.744 163.272C432.664 163.132 432.63 162.972 432.646 162.812C432.663 162.652 432.729 162.502 432.835 162.381L432.834 162.38C432.892 162.314 432.893 162.315 432.922 162.295C432.975 162.259 433.079 162.197 433.337 162.065L436.913 160.287Z" fill="#001933" stroke="#001933"/>
<path d="M413.223 153.843C413.411 153.888 413.576 154.003 413.682 154.164L413.684 154.167L416.075 157.747L416.076 157.75C416.169 157.888 416.214 158.053 416.204 158.219C416.193 158.384 416.128 158.54 416.019 158.664C415.974 158.714 415.968 158.721 415.943 158.74C415.903 158.77 415.829 158.82 415.653 158.925C415.304 159.134 414.64 159.514 413.261 160.316C413.171 160.367 413.071 160.4 412.968 160.412C412.865 160.425 412.76 160.416 412.661 160.386C412.561 160.357 412.468 160.308 412.388 160.242C412.328 160.192 412.276 160.133 412.234 160.068L412.195 160L410.267 156.147V156.146L410.224 156.041C410.189 155.934 410.179 155.82 410.194 155.707C410.214 155.558 410.279 155.417 410.38 155.305L410.381 155.306L410.388 155.297C410.432 155.246 410.44 155.239 410.458 155.224C410.489 155.2 410.548 155.16 410.696 155.072C410.989 154.896 411.533 154.587 412.669 153.923C412.837 153.827 413.035 153.799 413.223 153.843Z" fill="#001933" stroke="#001933"/>
<path d="M430.045 182.662C430.148 182.65 430.253 182.659 430.352 182.688C430.451 182.718 430.543 182.768 430.622 182.835C430.701 182.902 430.765 182.985 430.81 183.078L432.736 186.93C432.805 187.063 432.832 187.215 432.813 187.364C432.794 187.514 432.729 187.654 432.628 187.766L432.621 187.773C432.581 187.82 432.57 187.831 432.546 187.85C432.511 187.877 432.447 187.921 432.298 188.011C432.001 188.189 431.457 188.498 430.341 189.146C430.172 189.244 429.972 189.272 429.781 189.228C429.591 189.182 429.425 189.066 429.317 188.903L429.316 188.902L426.936 185.333L426.934 185.33L426.894 185.263C426.857 185.194 426.831 185.119 426.817 185.042C426.798 184.939 426.8 184.833 426.823 184.731C426.847 184.63 426.892 184.534 426.954 184.45C427.017 184.366 427.097 184.296 427.188 184.244L427.19 184.243L429.75 182.763L429.754 182.761C429.843 182.708 429.942 182.675 430.045 182.662Z" fill="#001933" stroke="#001933"/>
<path d="M421.5 163.45C425.957 163.45 429.57 167.063 429.57 171.52C429.569 175.977 425.957 179.589 421.5 179.59C417.043 179.59 413.43 175.977 413.43 171.52C413.43 167.063 417.043 163.45 421.5 163.45Z" fill="#001933" stroke="#001933"/>
<path d="M132.53 340.22C132.53 340.22 124.46 335.53 120.16 333.05C115.86 330.57 112.08 332.14 109.35 326.05C106.62 319.96 107.78 313.94 103.09 308.05C98.3999 302.16 96.8399 299.33 99.1899 298.41C101.54 297.49 109.48 306.49 110.52 306.1C111.56 305.71 99.5799 288.52 101.79 286.43C104 284.34 113.38 299.72 114.56 299.33C115.74 298.94 108.56 279.66 111.17 279.14C113.78 278.62 120.68 297.24 121.98 296.85C123.28 296.46 120.55 279.91 123.15 280.18C125.75 280.45 130.97 305.45 132.53 304.93C134.09 304.41 135.27 298.68 138.92 297.24C142.57 295.8 142.04 299.07 139.92 305.06C137.8 311.05 137.66 316.32 142.92 318.57C143 318.56 148.42 332.27 132.53 340.22Z" fill="white"/>
<path d="M132.53 341.22C132.08 341.22 132.87 341.53 119.66 333.92C115.6 331.59 111.37 333 108.43 326.43C105.62 320.12 106.83 314.31 102.31 308.67C98.02 303.3 96.73 300.9 97.2 299.15C97.3114 298.759 97.5175 298.401 97.8 298.108C98.0826 297.815 98.4329 297.596 98.82 297.47C101.08 296.59 105.25 300.65 108.17 303.21C103.69 295.21 98.89 287.78 101.11 285.69C103.79 283.17 109.11 291.47 113.28 296.69C111.21 288.17 107.67 278.8 110.97 278.14C112.97 277.72 114.97 281.33 118.97 289.67C119.73 291.26 120.61 293.08 121.3 294.37C121.21 287.65 119.76 278.85 123.2 279.16C125.01 279.34 126.34 282.93 129.67 294.34C130.67 297.75 131.86 301.85 132.58 303.47C133.79 301.64 135.23 297.58 138.5 296.29C139.05 296.08 140.73 295.41 141.82 296.46C143.16 297.75 142.51 300.58 140.82 305.37C138.51 312.02 139.28 315.92 143.26 317.63C143.382 317.681 143.492 317.756 143.585 317.851C143.678 317.945 143.751 318.057 143.8 318.18C143.86 318.32 149.42 332.84 132.9 341.1C132.786 341.164 132.66 341.205 132.53 341.22ZM99.62 299.33C99.5163 299.341 99.4171 299.378 99.3314 299.437C99.2458 299.497 99.1765 299.577 99.13 299.67C98.76 301.03 102.48 305.67 103.88 307.42C108.75 313.51 107.6 319.66 110.26 325.61C111.91 329.3 113.78 329.82 116.38 330.54C119.92 331.54 118.98 331.2 132.56 339.08C145.64 332.25 142.87 321.45 142.15 319.29C135.15 315.92 138.04 307.52 139.01 304.72C140.92 299.24 140.68 298.13 140.48 297.91C140.438 297.897 140.392 297.897 140.35 297.91C139.981 297.934 139.619 298.022 139.28 298.17C137.43 298.9 136.28 301.11 135.28 302.88C134.57 304.2 133.37 306.56 131.91 305.8C130.91 305.27 130.18 303.14 127.79 294.92C126.5 290.5 124.42 283.38 123.2 281.51C122.79 283.1 123.03 287.68 123.2 290.28C123.51 295.94 123.53 297.44 122.29 297.81C121.05 298.18 120.29 296.88 117.29 290.56C115.76 287.39 113.04 281.74 111.65 280.39C111.53 282.39 113.18 288.39 114.11 291.78C115.97 298.54 116.28 299.83 114.94 300.27C113.86 300.65 113.04 299.63 109.73 295.27C107.84 292.8 104.02 287.78 102.57 287.27C102.43 289.1 106.51 296.18 108.57 299.65C111.43 304.65 111.92 305.58 111.63 306.37C111.573 306.517 111.487 306.652 111.377 306.765C111.267 306.878 111.135 306.968 110.99 307.03C110.06 307.38 109.17 306.65 106.23 304.03C104.49 302.63 100.76 299.33 99.62 299.33Z" fill="#001933"/>
<path d="M244.417 280.937C252.596 273.928 263.549 272.971 272.296 273.568H272.297C273.142 273.625 273.944 273.957 274.584 274.512C275.224 275.067 275.665 275.815 275.841 276.644C279.768 295.17 274.928 314.257 261.083 328.34L261.005 328.42L260.968 328.525C260.088 331.055 256.085 342.173 248.572 353.266C241.052 364.37 230.076 375.36 215.278 377.797C201.576 380.056 189.29 374.29 169.348 364.63C154.723 357.549 140.973 348.791 128.373 338.532L139.99 314.807L206.323 343.239L206.731 343.414L206.953 343.029C220.102 320.211 230.564 302.128 237.775 289.315L237.782 289.304C239.46 286.13 241.709 283.294 244.418 280.938L244.417 280.937Z" fill="#007BFF" stroke="#007BFF"/>
<path d="M344.688 388.154C354.115 408.195 358.292 430.303 356.828 452.401C315.982 456.24 274.879 456.511 233.985 453.212C236.716 432.998 239.451 412.781 242.188 392.561L344.688 388.154Z" fill="#001933" stroke="#001933"/>
<path d="M302.002 270.404C309.267 272.225 319.003 275.889 326.897 283.975L327.663 284.78C333.922 291.537 336.994 299.167 338.739 308.116C340.271 315.967 340.775 324.793 341.522 334.926L341.861 339.35C343.829 363.534 347.394 387.562 352.533 411.275C315.702 422.551 276.557 423.963 239.009 415.37C239.001 390.867 238.276 371.31 237.669 358.107C237.259 349.242 236.173 327.936 241.239 303.703C242.669 296.864 244.98 288.346 252.033 281.394L252.73 280.726C256.68 277.06 261.864 274.307 268.845 272.581C268.925 272.609 269.038 272.648 269.181 272.695C269.49 272.797 269.941 272.941 270.512 273.108C271.653 273.443 273.276 273.872 275.204 274.25C279.052 275.004 284.149 275.562 289.072 274.743C293.949 273.932 297.216 272.823 299.273 271.908C300.302 271.45 301.028 271.042 301.502 270.743C301.721 270.605 301.886 270.489 302.002 270.404Z" fill="#007BFF" stroke="#007BFF"/>
<path d="M239 366.54C238.818 366.54 238.639 366.489 238.483 366.395C238.327 366.3 238.2 366.165 238.115 366.003C238.031 365.841 237.992 365.66 238.004 365.477C238.015 365.295 238.076 365.12 238.18 364.97C238.38 364.68 258.18 336.04 263.08 325.43C263.193 325.19 263.396 325.005 263.646 324.915C263.895 324.825 264.17 324.837 264.41 324.95C264.648 325.063 264.831 325.264 264.921 325.512C265.011 325.759 265 326.031 264.89 326.27C259.89 337.04 240.64 364.92 239.83 366.1C239.738 366.236 239.615 366.347 239.47 366.424C239.325 366.5 239.164 366.54 239 366.54Z" fill="white"/>
<path d="M206.52 361.83C206.317 361.829 206.12 361.766 205.954 361.65C205.788 361.534 205.661 361.37 205.59 361.18C201.51 350.32 205.47 342.63 205.59 342.31C205.717 342.082 205.928 341.912 206.178 341.838C206.429 341.763 206.698 341.789 206.929 341.911C207.16 342.032 207.335 342.239 207.415 342.488C207.496 342.736 207.476 343.006 207.36 343.24C207.36 343.33 203.67 350.5 207.41 360.48C207.465 360.628 207.485 360.786 207.467 360.943C207.45 361.1 207.395 361.25 207.309 361.382C207.222 361.513 207.105 361.622 206.968 361.7C206.831 361.778 206.678 361.823 206.52 361.83Z" fill="white"/>
<path d="M256.599 174.454C273.58 165.712 293.612 171.435 305.854 180.747L306.431 181.194C310.499 184.405 314.013 188.262 316.831 192.612L316.946 192.79L317.155 192.831C317.155 192.831 317.157 192.831 317.159 192.831C317.163 192.832 317.169 192.834 317.178 192.836C317.196 192.84 317.225 192.846 317.262 192.855C317.338 192.872 317.451 192.9 317.596 192.941C317.887 193.021 318.305 193.151 318.806 193.348C319.81 193.741 321.138 194.397 322.439 195.444C324.941 197.456 327.383 200.941 327.17 206.922L327.141 207.509C326.247 221.939 326.125 239.638 312.029 252.165C308.828 254.997 302.523 260.408 293.115 261.262C291.291 261.427 287.935 261.728 284.333 261.103C280.736 260.478 276.936 258.937 274.182 255.45V255.449L273.793 254.937C269.945 249.62 269.765 241.818 273.28 234.866C273.342 234.861 273.414 234.856 273.495 234.848C273.814 234.816 274.269 234.761 274.817 234.668C275.911 234.483 277.387 234.146 278.902 233.536C281.924 232.32 285.203 229.973 285.776 225.503C286.056 223.316 285.745 221.52 285.029 220.082C284.313 218.646 283.207 217.599 281.951 216.88C279.458 215.455 276.327 215.297 274.266 215.964C273.286 216.281 272.345 216.608 271.456 216.834C270.565 217.061 269.787 217.168 269.146 217.079C268.531 216.994 268.043 216.73 267.68 216.177C267.3 215.598 267.029 214.66 266.98 213.174V213.173C266.816 208.211 267.255 204.303 267.569 201.239C267.725 199.712 267.853 198.375 267.853 197.23C267.854 196.086 267.729 195.083 267.345 194.242C266.555 192.51 264.411 191.109 260 190.53C255.714 189.967 249.153 190.161 239.243 191.689C242.312 186.263 247.671 179.054 256.599 174.454Z" fill="#001933" stroke="#001933"/>
<path d="M256.23 209.85C279.79 211.063 303.61 211.11 327.69 209.99C328.667 211.299 329.125 212.922 328.978 214.548C328.83 216.174 328.087 217.689 326.89 218.8C303.312 220.323 279.657 220.236 256.09 218.54L256.23 209.85Z" fill="white"/>
<path d="M256 219.54C255.747 219.522 255.51 219.409 255.338 219.223C255.165 219.038 255.069 218.793 255.07 218.54L255.21 209.85C255.21 209.585 255.315 209.33 255.503 209.143C255.69 208.955 255.945 208.85 256.21 208.85C268.41 209.48 280.77 209.79 292.95 209.85C327.42 209.8 327.6 208.33 328.42 209.44C329.545 210.945 330.075 212.813 329.907 214.684C329.739 216.556 328.885 218.299 327.51 219.58C327.341 219.739 327.122 219.835 326.89 219.85C303.28 221.352 279.596 221.248 256 219.54ZM257.09 217.61C280.173 219.223 303.337 219.297 326.43 217.83C327.287 216.933 327.823 215.777 327.953 214.543C328.084 213.309 327.801 212.066 327.15 211.01C303.78 212.1 280.38 212.06 257.15 210.9L257.09 217.61Z" fill="#001933"/>
<path d="M253.885 201.845L236.369 200.343C233.249 200.076 230.503 202.388 230.235 205.508L229.079 218.999C228.811 222.119 231.124 224.865 234.244 225.132L251.759 226.634C254.879 226.901 257.625 224.589 257.893 221.469L259.049 207.978C259.317 204.858 257.005 202.112 253.885 201.845Z" fill="white"/>
<path d="M252.27 227.64C251.82 227.64 246.95 227.21 234.17 226.11C233.297 226.037 232.448 225.792 231.67 225.39C230.892 224.988 230.201 224.436 229.637 223.766C229.073 223.096 228.647 222.321 228.383 221.486C228.12 220.651 228.023 219.772 228.1 218.9L229.25 205.41C229.403 203.647 230.249 202.016 231.602 200.876C232.956 199.737 234.707 199.18 236.47 199.33L253.98 200.83C255.742 200.98 257.373 201.824 258.513 203.176C259.653 204.528 260.21 206.278 260.06 208.04L258.9 221.54C258.76 223.202 258.001 224.752 256.773 225.881C255.545 227.011 253.938 227.638 252.27 227.64ZM235.89 201.3C234.72 201.301 233.592 201.741 232.731 202.534C231.87 203.327 231.338 204.414 231.24 205.58L230.09 219.07C230.037 219.681 230.104 220.296 230.289 220.881C230.474 221.466 230.772 222.008 231.167 222.477C231.562 222.946 232.045 223.333 232.59 223.615C233.134 223.897 233.729 224.068 234.34 224.12L251.86 225.62C252.471 225.673 253.086 225.606 253.671 225.421C254.256 225.236 254.798 224.938 255.267 224.543C255.736 224.148 256.123 223.665 256.405 223.12C256.687 222.576 256.858 221.981 256.91 221.37L258.06 207.88C258.114 207.269 258.046 206.653 257.861 206.067C257.677 205.482 257.379 204.939 256.984 204.469C256.589 203.999 256.106 203.612 255.561 203.329C255.017 203.046 254.422 202.873 253.81 202.82C235.08 201.22 236.19 201.3 235.89 201.3Z" fill="#001933"/>
<path d="M235.295 201.619L246.723 202.599C249.568 202.843 251.676 205.346 251.432 208.191L250.423 219.959C250.179 222.803 247.675 224.912 244.831 224.668L233.403 223.688C230.558 223.444 228.45 220.94 228.694 218.096L229.702 206.328C229.946 203.484 232.45 201.375 235.295 201.619Z" fill="#007BFF" stroke="#007BFF"/>
<path d="M258.54 229.42C260.151 229.42 261.586 229.817 262.601 230.434C263.625 231.056 264.15 231.847 264.15 232.63C264.15 233.413 263.625 234.204 262.601 234.826C261.586 235.443 260.151 235.84 258.54 235.84C256.929 235.84 255.494 235.443 254.479 234.826C253.454 234.204 252.93 233.413 252.93 232.63C252.93 231.847 253.454 231.056 254.479 230.434C255.494 229.817 256.929 229.42 258.54 229.42Z" fill="#007BFF" stroke="#007BFF"/>
<path d="M282.179 221.828C282.312 221.815 282.446 221.854 282.549 221.939C282.653 222.024 282.719 222.147 282.732 222.28C282.745 222.413 282.705 222.547 282.621 222.65C282.557 222.728 282.472 222.784 282.377 222.813L282.28 222.833L277.721 223.282L276.782 223.375L277.386 224.1C277.904 224.721 278.213 225.489 278.271 226.296C278.352 227.937 277.265 229.662 274.717 231.417C274.632 231.473 274.533 231.502 274.431 231.5H274.426C274.32 231.498 274.217 231.464 274.132 231.4C274.048 231.337 273.986 231.248 273.955 231.147C273.923 231.046 273.925 230.938 273.959 230.838C273.985 230.763 274.029 230.695 274.085 230.64L274.146 230.59C275.169 229.899 275.964 229.197 276.496 228.497C277.027 227.796 277.322 227.058 277.257 226.316C277.206 225.398 276.636 224.673 276.151 224.211C275.69 223.771 275.233 223.499 275.13 223.442H275.131C275.038 223.391 274.964 223.311 274.919 223.215C274.875 223.118 274.862 223.009 274.883 222.905C274.904 222.801 274.959 222.706 275.038 222.635C275.116 222.563 275.215 222.518 275.321 222.507L282.179 221.828Z" fill="#001933" stroke="#001933"/>
<path d="M299.14 253.57C316.43 247.47 318.82 228.93 318.84 228.74C318.856 228.609 318.897 228.482 318.962 228.366C319.027 228.251 319.114 228.15 319.218 228.068C319.322 227.986 319.441 227.926 319.568 227.89C319.695 227.854 319.829 227.844 319.96 227.86C320.091 227.876 320.218 227.917 320.333 227.982C320.449 228.047 320.55 228.134 320.632 228.238C320.714 228.342 320.774 228.461 320.81 228.588C320.845 228.715 320.856 228.849 320.84 228.98C320.84 229.17 318.27 248.98 299.84 255.46C299.589 255.553 299.312 255.542 299.069 255.431C298.826 255.319 298.638 255.116 298.545 254.865C298.452 254.614 298.463 254.337 298.574 254.094C298.686 253.851 298.889 253.663 299.14 253.57Z" fill="white"/>
<path d="M286.92 253C286.909 252.869 286.924 252.736 286.965 252.611C287.005 252.485 287.07 252.369 287.155 252.269C287.241 252.168 287.345 252.086 287.463 252.026C287.58 251.966 287.708 251.93 287.84 251.92C297.54 251.15 306.37 241.16 306.46 241.06C306.541 240.947 306.645 240.853 306.766 240.783C306.886 240.712 307.019 240.668 307.157 240.652C307.295 240.636 307.435 240.65 307.568 240.691C307.701 240.732 307.824 240.801 307.928 240.892C308.033 240.984 308.118 241.096 308.176 241.222C308.235 241.348 308.267 241.485 308.27 241.624C308.273 241.763 308.247 241.901 308.194 242.03C308.14 242.158 308.061 242.274 307.96 242.37C307.58 242.81 298.52 253.08 287.96 253.92C287.701 253.931 287.448 253.841 287.254 253.67C287.06 253.498 286.94 253.258 286.92 253Z" fill="white"/>
<path d="M252.144 239.213C252.262 239.193 252.384 239.216 252.487 239.278C252.59 239.34 252.667 239.438 252.704 239.552C254.153 244.171 250.822 248.879 246.604 248.889C244.741 248.807 242.978 248.022 241.672 246.69C240.447 245.44 239.71 243.796 239.586 242.057L239.57 241.709C239.569 241.591 239.611 241.476 239.687 241.385C239.764 241.294 239.871 241.233 239.99 241.214H239.991L252.141 239.214L252.144 239.213ZM251.387 240.297L241.078 242.027L240.579 242.11L240.667 242.608C241.291 246.102 244.58 248.348 247.452 247.811C250.319 247.276 252.511 244.117 251.963 240.711L251.883 240.214L251.387 240.297Z" fill="#001933" stroke="#001933"/>
<path d="M324.07 203.68C324.321 203.779 324.528 203.963 324.656 204.199C324.784 204.436 324.824 204.711 324.768 204.974C324.713 205.238 324.567 205.473 324.355 205.639C324.143 205.805 323.879 205.89 323.61 205.88C300.45 204.43 232 199.51 221.61 191.28C209.02 181.35 224.44 176.93 242.87 178.52C257.63 179.79 305.74 197 324.07 203.68Z" fill="white"/>
<path d="M323.55 206.88C296.18 205.17 231.4 200.3 220.95 192.06C216.82 188.81 215.25 185.82 216.29 183.2C218.54 177.5 232.04 176.58 242.91 177.52C257.7 178.8 304.84 195.58 324.42 202.74C324.899 202.92 325.297 203.265 325.543 203.713C325.789 204.162 325.867 204.683 325.761 205.183C325.656 205.684 325.375 206.13 324.97 206.441C324.564 206.752 324.06 206.908 323.55 206.88ZM235.63 179.2C226.27 179.2 219.32 180.98 218.15 183.93C217.31 186.06 219.88 188.67 222.15 190.49C232.43 198.61 302.43 203.56 323.63 204.88C323.69 204.88 323.75 204.88 323.77 204.77C323.79 204.66 323.77 204.64 323.69 204.62C304.19 197.49 257.25 180.77 242.69 179.51C240.26 179.3 237.88 179.2 235.63 179.2Z" fill="#001933"/>
<path d="M247.31 194L324.18 205.2C328.18 205.78 331.8 203 331.85 199.28C331.947 194.474 331.213 189.686 329.68 185.13C318.09 151.36 256.9 129.13 237.84 176.76C234.8 184.36 239.54 192.89 247.31 194Z" fill="white"/>
<path d="M325.23 206.3C324.32 206.3 329.39 206.99 247.16 195.01C238.8 193.79 233.62 184.64 236.91 176.4C240.68 166.98 246.2 159.79 253.31 155.04C279.1 137.82 320.97 156.68 330.63 184.83C332.205 189.495 332.956 194.398 332.85 199.32C332.8 203.3 329.27 206.3 325.23 206.3ZM238.77 177.15C235.95 184.15 240.37 192 247.45 193.03C247.56 193.03 244.64 192.62 324.33 204.23C327.62 204.71 330.81 202.46 330.85 199.29C330.947 194.599 330.233 189.927 328.74 185.48C317.38 152.4 257.38 130.64 238.77 177.15Z" fill="#001933"/>
<path d="M257.822 159.093C267.229 153.712 278.773 152.2 291.264 155.898V155.899C300.017 158.569 308.066 163.142 314.837 169.286L315.489 169.886C324.142 178.249 329.927 189.136 332.015 200.987C332.024 201.055 332.02 201.124 332 201.19C331.981 201.257 331.947 201.32 331.901 201.374C331.855 201.428 331.798 201.472 331.734 201.502C331.67 201.532 331.6 201.548 331.53 201.549C331.413 201.551 331.299 201.512 331.208 201.439C331.116 201.365 331.053 201.26 331.031 201.145C328.985 189.497 323.307 178.794 314.808 170.57L314.804 170.567L313.951 169.774C296.268 153.606 275.27 152.196 261.831 158.183L261.187 158.478C246.278 165.476 240.06 180.051 238.086 185.97C238.044 186.095 237.954 186.198 237.836 186.257C237.719 186.316 237.582 186.326 237.457 186.285H237.456C237.33 186.244 237.226 186.154 237.166 186.036C237.106 185.919 237.095 185.783 237.134 185.658C241.101 173.759 248.409 164.478 257.822 159.093Z" fill="#001933" stroke="#001933"/>
<path d="M386.36 232.39C379.94 212.69 382.57 199.15 384.65 192.39C386.93 184.95 392.65 172.71 396.13 172.71C399.41 172.71 394.33 185.13 393.24 191.71C393.24 191.71 398.71 188.43 399.8 193.58C399.8 193.58 405.74 190.58 406.52 195.15C406.52 195.15 411.84 194.05 411.99 197.96C412.14 201.87 415.74 208.02 415.27 213.77C414.8 219.52 408.4 219.37 410.74 233.77C401.42 239.96 392.29 240.98 388.44 237.1C387.236 235.809 386.503 234.15 386.36 232.39Z" fill="white"/>
<path d="M395.08 240.36C389.81 240.36 386.15 237.91 385.38 232.62C380.63 218 380 204 383.69 192.11C384.93 188.06 391.05 171.72 396.13 171.72C400.74 171.72 396.41 182.15 394.6 190.01C397.15 189.2 399.43 189.79 400.44 192.22C403.23 191.22 406.21 191.28 407.26 194.03C410.26 193.77 412.87 194.88 412.99 197.91C413.14 201.62 416.76 207.84 416.27 213.84C415.76 220.12 409.43 219.51 411.73 233.57C411.762 233.761 411.737 233.958 411.659 234.135C411.581 234.313 411.452 234.464 411.29 234.57C405.56 238.38 399.75 240.36 395.08 240.36ZM396.08 173.67C393.85 173.72 388.43 183.48 385.6 192.67C382.07 204.16 382.66 217.78 387.31 232.05C387.467 233.632 388.109 235.128 389.15 236.33C392.72 239.92 401.28 238.6 409.65 233.22C407.56 219.22 413.86 218.75 414.28 213.65C414.73 208.12 411.16 202.1 410.99 197.96C411.005 197.692 410.955 197.424 410.846 197.179C410.736 196.934 410.569 196.718 410.36 196.55C409.36 195.77 407.36 195.95 406.72 196.09C406.589 196.116 406.455 196.115 406.324 196.089C406.193 196.062 406.069 196.009 405.959 195.934C405.849 195.858 405.756 195.761 405.684 195.649C405.612 195.537 405.563 195.411 405.54 195.28C405.517 194.98 405.422 194.69 405.264 194.434C405.106 194.178 404.888 193.964 404.63 193.81C403.36 193.17 400.98 194.07 400.25 194.44C400.113 194.509 399.962 194.546 399.808 194.547C399.655 194.549 399.503 194.515 399.365 194.448C399.226 194.381 399.105 194.284 399.011 194.163C398.916 194.041 398.851 193.9 398.82 193.75C398.789 193.348 398.658 192.961 398.44 192.622C398.222 192.283 397.923 192.004 397.57 191.81C396.34 191.27 394.4 192.15 393.75 192.53C393.588 192.626 393.402 192.674 393.214 192.669C393.025 192.664 392.842 192.606 392.686 192.502C392.529 192.397 392.405 192.251 392.328 192.079C392.251 191.907 392.224 191.717 392.25 191.53C393.08 186.56 397.15 175 396.08 173.67Z" fill="#001933"/>
<path d="M393.03 191.287C393.15 191.249 393.281 191.259 393.395 191.313C393.509 191.368 393.598 191.463 393.644 191.581C393.69 191.697 393.69 191.826 393.646 191.942C392.853 193.654 392.18 195.419 391.631 197.224L391.628 197.235C391.599 197.339 391.537 197.431 391.452 197.497C391.366 197.562 391.262 197.599 391.154 197.6H391.143C391.065 197.603 390.987 197.587 390.916 197.554C390.845 197.522 390.782 197.473 390.734 197.412C390.685 197.351 390.652 197.278 390.636 197.202C390.628 197.164 390.624 197.124 390.625 197.086L390.643 196.97C391.214 195.102 391.917 193.276 392.75 191.509C392.812 191.403 392.912 191.324 393.03 191.287Z" fill="#001933" stroke="#001933"/>
<path d="M399.536 193.198C399.654 193.138 399.791 193.128 399.917 193.17C400.044 193.211 400.148 193.302 400.208 193.421C400.267 193.539 400.277 193.676 400.236 193.802V193.803C399.744 195.29 399.42 196.827 399.273 198.385C399.26 198.505 399.204 198.615 399.116 198.697C399.03 198.776 398.92 198.822 398.804 198.829C398.674 198.827 398.549 198.776 398.457 198.683C398.365 198.592 398.314 198.469 398.311 198.34C398.452 196.691 398.778 195.063 399.285 193.487C399.327 193.361 399.417 193.257 399.536 193.198Z" fill="#001933" stroke="#001933"/>
<path d="M406.312 194.68C406.434 194.628 406.572 194.625 406.695 194.674C406.819 194.723 406.917 194.82 406.97 194.942C407.022 195.063 407.024 195.199 406.977 195.322C406.388 196.774 405.921 198.273 405.582 199.802L405.577 199.824L405.574 199.845C405.559 199.965 405.5 200.074 405.41 200.154C405.32 200.234 405.204 200.277 405.084 200.279C405.012 200.279 404.941 200.266 404.876 200.237C404.81 200.207 404.752 200.164 404.704 200.11C404.657 200.056 404.621 199.992 404.601 199.923C404.581 199.857 404.575 199.787 404.584 199.718C404.93 198.092 405.418 196.499 406.043 194.958L406.045 194.955C406.094 194.831 406.19 194.733 406.312 194.68Z" fill="#001933" stroke="#001933"/>
<path d="M409.865 225.704C416.708 243.602 421.467 262.229 424.044 281.217C425.741 293.731 426.984 303.288 426.794 310.799C426.605 318.293 424.99 323.67 421.037 327.877C416.242 332.963 409.323 334.923 400.069 335.101C391.966 335.257 382.157 334.046 370.553 332.436L365.469 331.725L364.029 331.52C349.233 329.378 334.666 325.878 320.51 321.064L302.566 270.27C309.555 269.295 316.66 269.508 323.579 270.909V270.91C334.038 273.081 340.94 277.468 345.841 280.274C354.882 285.447 368.661 291.778 388.577 296.009L389.215 296.145L389.179 295.492C387.954 273.424 386.736 251.356 385.524 229.288L409.865 225.704Z" fill="#007BFF" stroke="#007BFF"/>
<path d="M341.46 325.06C341.203 325.06 340.956 324.962 340.77 324.785C340.584 324.608 340.473 324.366 340.46 324.11C340.03 315.11 331.03 293.89 330.94 293.67C330.883 293.548 330.851 293.416 330.846 293.282C330.841 293.147 330.863 293.013 330.911 292.887C330.959 292.762 331.032 292.647 331.125 292.55C331.219 292.453 331.331 292.376 331.455 292.324C331.579 292.271 331.712 292.244 331.846 292.244C331.981 292.245 332.114 292.272 332.238 292.325C332.362 292.378 332.473 292.455 332.567 292.552C332.66 292.649 332.732 292.764 332.78 292.89C333.16 293.78 342.01 314.67 342.46 324.02C342.465 324.155 342.444 324.289 342.396 324.415C342.348 324.541 342.275 324.656 342.182 324.753C342.088 324.85 341.976 324.928 341.852 324.98C341.728 325.033 341.595 325.06 341.46 325.06Z" fill="white"/>
<path d="M399.88 309.52C399.738 309.52 399.598 309.489 399.468 309.431C399.339 309.372 399.224 309.287 399.13 309.18L387.92 296.18C387.746 295.978 387.66 295.716 387.68 295.451C387.699 295.185 387.823 294.939 388.025 294.765C388.227 294.591 388.489 294.505 388.754 294.524C389.02 294.544 389.266 294.668 389.44 294.87L400.64 307.87C400.764 308.015 400.844 308.193 400.871 308.383C400.897 308.572 400.868 308.765 400.788 308.938C400.708 309.112 400.58 309.259 400.419 309.362C400.258 309.465 400.071 309.52 399.88 309.52Z" fill="white"/>
</g>
<defs>
<clipPath id="clip0_9405_46130">
<rect width="512" height="512" fill="white"/>
</clipPath>
</defs>
</svg>
