<svg width="512" height="512" viewBox="0 0 512 512" fill="none" xmlns="http://www.w3.org/2000/svg">
<g clip-path="url(#clip0_9405_46221)">
<g opacity="0.2">
<path d="M114.936 121.158C192.846 43.248 319.162 43.248 397.072 121.158C474.981 199.067 474.981 325.384 397.072 403.293C319.162 481.203 192.846 481.203 114.936 403.293C37.0265 325.384 37.0265 199.067 114.936 121.158Z" fill="#007BFF" stroke="#007BFF"/>
</g>
<path d="M177.59 178.23L172.5 231.67L227.32 234.56L223.2 173.56L177.59 178.23Z" fill="white"/>
<path d="M227.32 235.56C224.86 235.56 238.53 236.15 172.45 232.67C172.316 232.662 172.185 232.628 172.064 232.569C171.944 232.509 171.836 232.426 171.749 232.325C171.661 232.223 171.595 232.104 171.554 231.977C171.513 231.849 171.498 231.714 171.51 231.58L176.59 178.14C176.612 177.91 176.712 177.695 176.875 177.531C177.037 177.367 177.251 177.264 177.48 177.24L223.1 172.56C223.233 172.548 223.367 172.562 223.494 172.602C223.622 172.643 223.74 172.708 223.841 172.795C223.943 172.882 224.026 172.988 224.086 173.107C224.146 173.227 224.181 173.357 224.19 173.49L228.32 234.49C228.33 234.627 228.311 234.765 228.265 234.894C228.219 235.024 228.147 235.142 228.053 235.243C227.959 235.343 227.846 235.423 227.72 235.478C227.594 235.532 227.457 235.56 227.32 235.56ZM173.6 230.73L226.25 233.5L222.25 174.66L178.48 179.14L173.6 230.73Z" fill="#001933"/>
<path d="M170.703 203.554C171.777 203.715 173.336 203.937 175.278 204.185C179.162 204.68 184.581 205.273 190.719 205.669C202.779 206.447 217.677 206.463 229.173 203.433C229.179 203.49 229.185 203.551 229.192 203.615C229.247 204.105 229.329 204.806 229.443 205.655C229.672 207.35 230.028 209.64 230.537 212.011C231.046 214.378 231.711 216.845 232.562 218.885C232.987 219.905 233.464 220.832 234.001 221.591C234.535 222.347 235.148 222.963 235.852 223.324C236.533 223.674 237.536 223.917 238.748 224.115C239.973 224.316 241.468 224.48 243.165 224.653C246.568 224.998 250.816 225.379 255.487 226.149C264.832 227.688 275.813 230.773 284.935 238.178C287.167 239.991 289.512 243.116 291.897 247.289C294.278 251.454 296.679 256.624 299.039 262.49C303.759 274.219 308.3 288.695 312.178 303.39C316.055 318.084 319.265 332.986 321.323 345.567C323.386 358.171 324.281 368.38 323.564 373.724C322.139 384.354 313.569 392.522 305.228 398.065C301.07 400.827 297 402.918 293.969 404.318C292.454 405.017 291.199 405.543 290.325 405.894C289.888 406.069 289.547 406.202 289.314 406.289C289.198 406.333 289.109 406.365 289.05 406.387C289.02 406.398 288.998 406.406 288.983 406.411C288.976 406.414 288.971 406.416 288.968 406.417C288.966 406.418 288.965 406.418 288.964 406.418L288.963 406.419L288.602 406.547L288.632 406.93L292.959 461.5L100.776 461.729C102.917 441.747 105.054 421.765 107.188 401.783L107.25 401.198L106.662 401.231C94.5744 401.914 87.8757 398.746 84.3164 396.497C75.8474 391.076 71.5588 381.652 70.0869 370.061C68.6149 358.468 69.9727 344.783 72.7256 330.972C78.2307 303.353 89.2837 275.366 94.2148 262.873C99.4584 249.6 103.582 242.418 111.494 237.228C120.432 231.368 130.28 230.635 139.497 229.794C148.657 228.959 157.271 228.017 163.346 221.501C168.71 215.743 169.602 208.304 169.619 203.386C169.891 203.429 170.255 203.487 170.703 203.554Z" fill="#007BFF" stroke="#007BFF"/>
<path d="M121.22 320.33C120.955 320.33 120.7 320.225 120.513 320.037C120.325 319.85 120.22 319.595 120.22 319.33V271.54C120.22 271.275 120.325 271.02 120.513 270.833C120.7 270.645 120.955 270.54 121.22 270.54C121.485 270.54 121.739 270.645 121.927 270.833C122.114 271.02 122.22 271.275 122.22 271.54V319.33C122.22 319.595 122.114 319.85 121.927 320.037C121.739 320.225 121.485 320.33 121.22 320.33Z" fill="white"/>
<path d="M263.9 310.39C263.635 310.39 263.381 310.285 263.193 310.097C263.006 309.91 262.9 309.655 262.9 309.39V271.54C262.9 271.275 263.006 271.02 263.193 270.833C263.381 270.645 263.635 270.54 263.9 270.54C264.166 270.54 264.42 270.645 264.608 270.833C264.795 271.02 264.9 271.275 264.9 271.54V309.39C264.9 309.655 264.795 309.91 264.608 310.097C264.42 310.285 264.166 310.39 263.9 310.39Z" fill="white"/>
<path d="M254.17 122.32C251.09 89.5 227.51 64 198.88 64C170.25 64 146.67 89.53 143.59 122.35C141.875 122.251 140.158 122.516 138.553 123.129C136.948 123.742 135.491 124.688 134.278 125.905C133.066 127.122 132.125 128.583 131.519 130.19C130.912 131.797 130.653 133.515 130.76 135.23C130.866 136.945 131.334 138.618 132.134 140.138C132.934 141.658 134.048 142.992 135.401 144.05C136.754 145.109 138.317 145.868 139.985 146.278C141.654 146.688 143.39 146.74 145.08 146.43C146.08 151.74 150.5 171.94 169.08 185.69C172.5 188.21 185.08 197.52 200.78 197.01C223.03 196.28 244.44 176.01 252.64 146.43C254.33 146.74 256.066 146.688 257.734 146.278C259.403 145.868 260.965 145.109 262.318 144.05C263.672 142.992 264.785 141.658 265.585 140.138C266.385 138.618 266.854 136.945 266.96 135.23C267.066 133.515 266.807 131.797 266.201 130.19C265.594 128.583 264.654 127.122 263.441 125.905C262.229 124.688 260.772 123.742 259.167 123.129C257.562 122.516 255.845 122.251 254.13 122.35L254.17 122.32Z" fill="white"/>
<path d="M168.53 186.46C151.45 173.86 145.95 155.69 144.28 147.53C142.508 147.725 140.715 147.558 139.009 147.04C137.304 146.521 135.721 145.661 134.358 144.512C132.995 143.363 131.879 141.95 131.079 140.357C130.279 138.764 129.811 137.025 129.703 135.245C129.595 133.466 129.85 131.683 130.452 130.005C131.054 128.327 131.991 126.789 133.205 125.484C134.42 124.179 135.887 123.134 137.517 122.413C139.147 121.692 140.907 121.31 142.69 121.29C146.21 88 170.23 63 198.88 63C227.53 63 251.54 88 255.07 121.32C256.836 121.369 258.574 121.773 260.18 122.509C261.786 123.244 263.228 124.296 264.418 125.601C265.609 126.905 266.525 128.437 267.111 130.103C267.697 131.77 267.941 133.537 267.829 135.3C267.716 137.063 267.25 138.786 266.458 140.365C265.665 141.943 264.563 143.346 263.216 144.49C261.869 145.633 260.306 146.493 258.619 147.019C256.933 147.545 255.158 147.725 253.4 147.55C245.05 176.55 223.54 197.27 200.85 198.01C189 198.36 178 193.47 168.53 186.46ZM146.06 146.22C147.44 153.61 152.52 172.16 169.72 184.85C180.17 192.57 190.62 196.32 200.79 195.98C222.79 195.26 243.79 174.76 251.71 146.14C251.776 145.899 251.929 145.692 252.14 145.559C252.351 145.426 252.604 145.376 252.85 145.42C254.4 145.703 255.993 145.655 257.523 145.278C259.053 144.901 260.486 144.204 261.727 143.233C262.968 142.262 263.989 141.038 264.723 139.644C265.457 138.249 265.887 136.715 265.984 135.142C266.082 133.569 265.845 131.993 265.289 130.519C264.733 129.044 263.871 127.704 262.759 126.587C261.647 125.47 260.312 124.601 258.84 124.038C257.368 123.475 255.793 123.23 254.22 123.32C253.961 123.334 253.707 123.247 253.511 123.077C253.315 122.907 253.193 122.668 253.17 122.41C250.1 89.67 226.75 65 198.88 65C171.01 65 147.66 89.7 144.58 122.44C144.557 122.698 144.435 122.937 144.239 123.107C144.043 123.277 143.789 123.364 143.53 123.35C141.957 123.26 140.382 123.505 138.91 124.068C137.438 124.631 136.103 125.5 134.991 126.617C133.879 127.734 133.017 129.074 132.461 130.549C131.905 132.023 131.668 133.599 131.766 135.172C131.863 136.745 132.293 138.279 133.027 139.674C133.761 141.068 134.782 142.292 136.023 143.263C137.264 144.234 138.697 144.931 140.227 145.308C141.757 145.685 143.35 145.733 144.9 145.45C145.155 145.402 145.419 145.456 145.636 145.6C145.853 145.744 146.005 145.966 146.06 146.22Z" fill="#001933"/>
<path d="M153.691 61.6548C160.109 52.3866 170.207 49.7909 179.441 50.3716C184.057 50.6619 188.437 51.7462 191.993 53.1743C195.567 54.6093 198.25 56.3664 199.53 57.9624L199.817 58.3218L200.2 58.064L200.202 58.063C200.204 58.0615 200.208 58.0593 200.213 58.0562C200.222 58.0498 200.237 58.0398 200.257 58.0269C200.297 58.0007 200.357 57.9615 200.437 57.9106C200.596 57.8089 200.833 57.6594 201.142 57.4731C201.759 57.1007 202.664 56.5793 203.805 55.9858C206.089 54.798 209.318 53.3244 213.094 52.1831C220.657 49.8973 230.341 48.9628 239.062 54.1987C247.785 59.435 251.142 68.0723 254.081 76.7993C255.544 81.1426 256.908 85.5228 258.79 89.4331C260.677 93.353 263.1 96.8422 266.71 99.4077C270.137 101.843 271.854 104.657 272.467 107.486C273.081 110.325 272.593 113.229 271.52 115.846C270.446 118.464 268.796 120.768 267.132 122.386C266.3 123.195 265.474 123.824 264.728 124.235C263.97 124.652 263.343 124.819 262.891 124.782C261.75 124.688 260.714 124.433 259.735 124.173C258.775 123.919 257.832 123.648 256.956 123.568C256.058 123.485 255.18 123.596 254.348 124.129C253.631 124.589 252.99 125.334 252.394 126.437L252.14 126.932C251.364 128.536 250.643 129.254 250.083 129.585C249.552 129.899 249.113 129.899 248.737 129.899C248.338 129.838 247.956 129.695 247.615 129.479C247.265 129.257 246.966 128.963 246.738 128.616L246.726 128.597L246.712 128.58L246.592 128.42C246.005 127.61 245.627 126.544 245.407 125.301C245.174 123.979 245.125 122.493 245.172 120.974C245.219 119.457 245.36 117.924 245.501 116.509C245.641 115.104 245.781 113.798 245.819 112.768C246.046 106.62 242.999 101.104 238.783 96.2378C234.567 91.3705 229.122 87.086 224.449 83.4067L224.447 83.4058L223.763 82.8774C216.653 77.4633 208.62 73.3781 200.053 70.8208L199.885 70.771L199.723 70.8364C195.933 72.3667 192.525 74.7098 189.74 77.7007C186.958 80.689 184.864 84.2513 183.607 88.1362C181.33 94.7269 177.248 100.854 172.65 105.602C168.048 110.356 162.974 113.682 158.736 114.743C157.285 115.081 155.963 115.826 154.924 116.887L154.72 117.104C152.684 119.278 152.434 122.1 152.241 124.482C152.142 125.701 152.061 126.789 151.807 127.707C151.559 128.601 151.162 129.275 150.47 129.716C149.615 130.182 148.623 130.333 147.669 130.14L147.653 130.136L147.637 130.134C145.714 129.874 144.545 128.54 143.373 127.037C142.803 126.305 142.22 125.519 141.566 124.893C140.904 124.258 140.13 123.746 139.151 123.586H139.152C137.627 123.331 135.511 123.928 132.649 127.142C132.529 127.116 132.368 127.081 132.174 127.031C131.697 126.907 131.015 126.703 130.209 126.386C128.595 125.752 126.493 124.666 124.525 122.866C120.619 119.29 117.159 112.811 119.321 101.141C120.405 95.2932 122.261 91.1116 124.624 87.8296C126.989 84.5439 129.88 82.1333 133.076 79.8462C139.456 75.2801 147.078 71.2064 153.691 61.6548Z" fill="#001933" stroke="#001933"/>
<path d="M129.62 294.78H286.85C288.942 294.78 290.949 295.61 292.43 297.088C293.818 298.473 294.638 300.321 294.739 302.27L294.75 302.661V404C294.742 406.09 293.906 408.091 292.426 409.566C291.038 410.949 289.188 411.764 287.24 411.86L286.85 411.87L129.619 411.909C127.529 411.909 125.525 411.081 124.044 409.606C122.656 408.223 121.834 406.377 121.73 404.429L121.72 404.038V302.661C121.725 300.569 122.559 298.565 124.04 297.088C125.521 295.61 127.528 294.78 129.62 294.78Z" fill="#001933" stroke="#001933"/>
<path d="M232.62 294.99H105.06C101.188 294.99 98.0498 298.128 98.0498 302V404.43C98.0498 408.302 101.188 411.44 105.06 411.44H232.62C236.491 411.44 239.63 408.302 239.63 404.43V302C239.63 298.128 236.491 294.99 232.62 294.99Z" fill="white"/>
<path d="M232.62 412.44H105.06C102.938 412.44 100.903 411.597 99.4027 410.097C97.9024 408.597 97.0596 406.562 97.0596 404.44V302C97.0596 299.878 97.9024 297.843 99.4027 296.343C100.903 294.843 102.938 294 105.06 294H232.62C234.741 294 236.776 294.843 238.276 296.343C239.777 297.843 240.62 299.878 240.62 302V404.43C240.621 405.481 240.415 406.523 240.013 407.495C239.612 408.466 239.023 409.349 238.28 410.093C237.537 410.837 236.655 411.427 235.683 411.83C234.712 412.233 233.671 412.44 232.62 412.44ZM105.06 296C103.468 296 101.942 296.632 100.817 297.757C99.6917 298.883 99.0596 300.409 99.0596 302V404.43C99.0596 406.021 99.6917 407.547 100.817 408.673C101.942 409.798 103.468 410.43 105.06 410.43H232.62C234.211 410.43 235.737 409.798 236.862 408.673C237.987 407.547 238.62 406.021 238.62 404.43V302C238.62 300.409 237.987 298.883 236.862 297.757C235.737 296.632 234.211 296 232.62 296H105.06Z" fill="#001933"/>
<path d="M110.28 306H142.4C144.107 306 145.49 307.383 145.49 309.09V329.57C145.49 331.277 144.107 332.66 142.4 332.66H110.28C108.574 332.66 107.191 331.277 107.19 329.57V309.09C107.191 307.383 108.574 306 110.28 306Z" fill="#001933" stroke="#001933"/>
<path d="M118 412.13C131.09 406.86 123.88 390.4 131.23 386.29C131.647 385.994 132.122 385.79 132.624 385.694C133.126 385.597 133.643 385.609 134.14 385.73C137.67 387.11 136.43 398.29 135.43 404.81C135.43 404.81 138.83 385.55 144 385.72C149.17 385.89 144 406.59 144 406.59C144 406.59 147.4 389.12 151.6 388.64C155.8 388.16 151.6 405.78 151.6 405.78C151.6 405.78 156.6 394.78 159.37 394.78C162.14 394.78 156.94 415.32 153.71 418.88C150.48 422.44 148.61 418.88 148.61 418.88C148.61 418.88 142.87 419.77 142.14 416.45C140.657 416.925 139.069 416.964 137.564 416.564C136.059 416.163 134.701 415.339 133.65 414.19C131.242 415.825 128.318 416.518 125.433 416.138C122.548 415.758 119.903 414.332 118 412.13Z" fill="white"/>
<path d="M132.612 385.227C133.18 385.132 133.761 385.162 134.315 385.313C134.881 385.54 135.505 385.972 136.012 387.045C136.537 388.156 136.941 389.965 136.98 392.947L137.951 393.109C138.944 390.345 139.958 388.342 140.994 387.049C141.963 385.839 142.903 385.305 143.82 385.27L144.004 385.269C144.639 385.29 145.109 385.522 145.474 385.892C145.85 386.275 146.137 386.829 146.343 387.514C146.757 388.892 146.806 390.653 146.761 392.176L147.711 392.407C148.301 391.183 148.932 390.152 149.594 389.411C150.259 388.665 150.911 388.261 151.539 388.186H151.543C151.817 388.152 152.095 388.185 152.354 388.283C152.547 388.357 152.725 388.465 152.879 388.602L153.024 388.75C153.231 388.985 154.662 390.958 153.446 399.096L154.368 399.428C155.216 398.026 156.122 396.726 157.014 395.782C157.93 394.813 158.728 394.331 159.358 394.33C159.572 394.331 159.78 394.396 159.956 394.517C160.132 394.639 160.267 394.81 160.344 395.01L160.354 395.033C160.513 395.391 160.61 395.982 160.621 396.804C160.632 397.613 160.559 398.594 160.416 399.697C160.13 401.901 159.567 404.55 158.859 407.197C158.152 409.843 157.304 412.474 156.45 414.642C155.587 416.835 154.744 418.482 154.07 419.223C152.909 420.469 151.823 420.956 150.912 420.971C150.008 420.987 149.167 420.541 148.479 419.686L148.312 419.477L148.044 419.503C146.967 419.604 145.678 419.575 144.531 419.267C143.383 418.959 142.441 418.391 141.94 417.463L141.764 417.134L141.397 417.211C140.063 417.49 138.681 417.448 137.366 417.087C136.052 416.725 134.843 416.054 133.839 415.132L133.565 414.881L133.246 415.069C130.755 416.539 127.827 417.089 124.972 416.624C122.116 416.158 119.514 414.707 117.618 412.522L117.611 412.514L117.542 412.416C117.523 412.381 117.507 412.343 117.497 412.304C117.477 412.226 117.476 412.145 117.494 412.066C117.512 411.988 117.549 411.914 117.602 411.853C117.628 411.823 117.658 411.795 117.69 411.772L117.796 411.715C121.041 410.418 123.006 408.376 124.24 405.975C125.464 403.595 125.96 400.877 126.311 398.242C126.666 395.575 126.872 393.026 127.491 390.834C128.104 388.665 129.096 386.945 130.963 385.907L130.985 385.895L131.006 385.881C131.487 385.547 132.035 385.324 132.612 385.227ZM133.858 386.213C133.319 386.007 132.782 386.108 132.366 386.257C131.953 386.404 131.581 386.63 131.378 386.743L131.376 386.744C129.603 387.739 128.752 389.548 128.244 391.646C127.74 393.729 127.542 396.262 127.188 398.761C126.469 403.829 125.09 409.027 119.39 411.997L118.757 412.326L119.282 412.808C121.155 414.527 123.555 415.559 126.091 415.738C128.626 415.917 131.146 415.231 133.241 413.793L133.242 413.794C133.34 413.727 133.459 413.697 133.577 413.71C133.695 413.723 133.805 413.777 133.887 413.863V413.862C134.872 414.942 136.145 415.718 137.558 416.096C138.973 416.476 140.467 416.442 141.862 415.997C141.928 415.976 141.998 415.969 142.067 415.976C142.136 415.984 142.203 416.005 142.264 416.04C142.324 416.075 142.376 416.122 142.417 416.178C142.438 416.207 142.456 416.237 142.47 416.268L142.502 416.367C142.671 417.136 143.197 417.635 143.807 417.944C144.407 418.249 145.124 418.392 145.784 418.457C147.104 418.586 148.361 418.414 148.429 418.4L148.456 418.394C148.566 418.366 148.682 418.375 148.785 418.422C148.858 418.454 148.921 418.504 148.971 418.565V418.601L149.035 418.717L149.036 418.719C149.037 418.72 149.038 418.721 149.039 418.722C149.041 418.726 149.043 418.73 149.046 418.735C149.052 418.745 149.059 418.758 149.069 418.774C149.089 418.806 149.118 418.851 149.154 418.903C149.227 419.007 149.333 419.148 149.47 419.292C149.729 419.565 150.167 419.924 150.742 419.969C151.287 420.01 151.796 419.793 152.211 419.525C152.631 419.253 153.009 418.894 153.309 418.568L153.312 418.565C154.095 417.699 154.908 416.003 155.672 413.987C156.446 411.946 157.197 409.5 157.834 407.069C158.471 404.639 158.996 402.213 159.315 400.211C159.475 399.21 159.584 398.307 159.629 397.559C159.673 396.827 159.659 396.191 159.544 395.753L159.389 395.163L158.841 395.43C158.408 395.642 157.921 396.125 157.425 396.724C156.913 397.343 156.339 398.152 155.738 399.094C154.537 400.977 153.21 403.422 152.027 406.009C151.975 406.12 151.883 406.209 151.77 406.258C151.656 406.306 151.528 406.31 151.411 406.269C151.294 406.229 151.196 406.147 151.137 406.039C151.077 405.931 151.06 405.806 151.087 405.686C151.766 402.84 152.43 399.237 152.754 396.148C152.916 394.605 152.994 393.175 152.943 392.024C152.918 391.449 152.86 390.929 152.758 390.494C152.658 390.069 152.506 389.671 152.254 389.387C152.179 389.296 152.081 389.225 151.97 389.184C151.859 389.143 151.74 389.134 151.624 389.154C151.275 389.196 150.958 389.374 150.682 389.604C150.4 389.839 150.128 390.154 149.865 390.523C149.34 391.262 148.811 392.279 148.296 393.474C147.264 395.87 146.254 399.064 145.425 402.389L145.423 402.4L145.42 402.412C144.98 404.603 144.585 406.228 144.435 406.698L144.429 406.716C144.394 406.838 144.314 406.943 144.205 407.009C144.096 407.074 143.965 407.096 143.84 407.068C143.715 407.041 143.606 406.967 143.534 406.861C143.462 406.755 143.434 406.626 143.454 406.5L143.453 406.499C143.653 405.497 143.992 403.826 144.446 401.969L144.449 401.957L144.451 401.945C145.028 398.978 145.516 395.73 145.679 392.977C145.76 391.602 145.761 390.336 145.648 389.284C145.538 388.253 145.311 387.346 144.87 386.76H144.868C144.758 386.599 144.613 386.466 144.44 386.376C144.256 386.279 144.049 386.232 143.841 386.24V386.241C143.323 386.247 142.847 386.488 142.429 386.838C142.004 387.193 141.599 387.692 141.215 388.281C140.445 389.461 139.705 391.091 139.025 392.926C137.664 396.601 136.512 401.196 135.858 404.914H135.857L135.856 404.921C135.835 405.055 135.761 405.176 135.651 405.256C135.541 405.335 135.404 405.368 135.27 405.346C135.135 405.325 135.015 405.251 134.936 405.14C134.856 405.03 134.822 404.893 134.844 404.759L134.845 404.756C136.032 396.973 136.063 392.488 135.684 389.892C135.307 387.319 134.501 386.458 133.858 386.213Z" fill="#001933" stroke="#001933"/>
<path d="M135.964 401.937C136.099 401.962 136.218 402.039 136.296 402.152C136.374 402.265 136.403 402.404 136.378 402.539L134.129 414.285C134.107 414.401 134.044 414.504 133.953 414.578C133.862 414.652 133.747 414.692 133.629 414.69H133.61C133.536 414.691 133.462 414.676 133.395 414.645C133.327 414.614 133.267 414.569 133.219 414.512C133.171 414.455 133.136 414.388 133.117 414.316C133.099 414.244 133.096 414.168 133.11 414.095L133.111 414.094L135.361 402.354V402.351C135.386 402.216 135.464 402.096 135.577 402.019C135.69 401.941 135.829 401.912 135.964 401.937Z" fill="#001933" stroke="#001933"/>
<path d="M144.547 403.831C144.682 403.856 144.801 403.935 144.878 404.049C144.955 404.162 144.984 404.3 144.959 404.434L142.609 416.545C142.587 416.659 142.525 416.763 142.435 416.837C142.344 416.911 142.231 416.951 142.114 416.95H142.101C142.026 416.951 141.952 416.936 141.885 416.905C141.817 416.874 141.757 416.829 141.709 416.772C141.661 416.715 141.626 416.648 141.607 416.576C141.589 416.504 141.586 416.428 141.601 416.355L143.941 404.245V404.243C143.967 404.108 144.045 403.989 144.158 403.912C144.272 403.835 144.412 403.805 144.547 403.831Z" fill="#001933" stroke="#001933"/>
<path d="M152.102 404.418C152.168 404.434 152.231 404.464 152.285 404.505C152.34 404.546 152.385 404.598 152.419 404.657C152.453 404.717 152.474 404.783 152.481 404.851C152.489 404.919 152.482 404.987 152.462 405.052L152.457 405.067L152.454 405.082L149.074 419C149.047 419.109 148.984 419.207 148.896 419.276C148.807 419.345 148.696 419.381 148.584 419.38H148.566C148.49 419.382 148.413 419.367 148.344 419.335C148.274 419.303 148.213 419.255 148.165 419.196C148.117 419.136 148.083 419.067 148.065 418.992C148.049 418.919 148.049 418.843 148.065 418.77L151.485 404.849L151.489 404.833L151.492 404.818C151.504 404.75 151.53 404.686 151.567 404.629C151.605 404.572 151.654 404.523 151.711 404.486C151.768 404.448 151.832 404.423 151.899 404.411C151.966 404.4 152.035 404.402 152.102 404.418Z" fill="#001933" stroke="#001933"/>
<path d="M116.4 414.19C119.885 414.19 122.71 412.399 122.71 410.19C122.71 407.981 119.885 406.19 116.4 406.19C112.915 406.19 110.09 407.981 110.09 410.19C110.09 412.399 112.915 414.19 116.4 414.19Z" fill="white"/>
<path d="M116.399 405.69C118.365 405.69 120.088 406.218 121.305 407.052C122.521 407.886 123.2 408.998 123.2 410.19C123.2 411.382 122.519 412.493 121.301 413.328C120.083 414.162 118.36 414.69 116.399 414.69C114.434 414.69 112.708 414.162 111.489 413.328C110.27 412.493 109.59 411.381 109.59 410.19C109.59 408.998 110.27 407.887 111.489 407.052C112.708 406.218 114.434 405.69 116.399 405.69ZM115.899 406.704C114.577 406.774 113.355 407.117 112.419 407.647C111.387 408.231 110.59 409.114 110.59 410.19C110.59 411.266 111.387 412.149 112.419 412.733C113.472 413.329 114.886 413.69 116.399 413.69C117.912 413.69 119.325 413.331 120.376 412.736C121.407 412.152 122.2 411.269 122.2 410.19C122.2 409.11 121.405 408.225 120.373 407.639C119.321 407.042 117.908 406.68 116.399 406.68H115.899V406.704Z" fill="#001933" stroke="#001933"/>
<path d="M258.51 415.29C245.43 410.02 252.64 393.57 245.29 389.45C244.873 389.154 244.397 388.95 243.895 388.854C243.393 388.757 242.876 388.77 242.38 388.89C238.84 390.27 240.09 401.45 241.09 407.97C241.09 407.97 237.69 388.71 232.52 388.88C227.35 389.05 232.52 409.75 232.52 409.75C232.52 409.75 229.12 392.28 224.91 391.8C220.7 391.32 224.91 408.94 224.91 408.94C224.91 408.94 219.91 397.94 217.15 397.94C214.39 397.94 219.58 418.48 222.81 422.04C226.04 425.6 227.91 422.04 227.91 422.04C227.91 422.04 233.65 422.93 234.38 419.62C235.864 420.091 237.452 420.128 238.956 419.726C240.461 419.323 241.818 418.499 242.87 417.35C245.276 418.984 248.198 419.677 251.082 419.297C253.965 418.918 256.609 417.491 258.51 415.29Z" fill="white"/>
<path d="M242.192 388.473C242.747 388.318 243.33 388.287 243.898 388.381C244.476 388.476 245.025 388.698 245.506 389.031L245.525 389.045L245.546 389.056C247.411 390.099 248.402 391.82 249.012 393.986C249.628 396.176 249.831 398.721 250.185 401.385C250.534 404.016 251.03 406.731 252.256 409.112C253.492 411.513 255.462 413.557 258.714 414.864H258.715C258.79 414.894 258.857 414.941 258.909 415.003C258.962 415.064 258.998 415.137 259.017 415.216C259.035 415.294 259.033 415.377 259.013 415.455C258.992 415.533 258.953 415.604 258.899 415.664L258.894 415.672C256.992 417.853 254.386 419.299 251.529 419.759C248.673 420.218 245.745 419.664 243.255 418.19L242.937 418.001L242.663 418.251C241.657 419.17 240.447 419.837 239.133 420.197C237.818 420.557 236.437 420.6 235.103 420.321L234.737 420.244L234.561 420.573C234.061 421.501 233.116 422.069 231.965 422.377C230.816 422.684 229.524 422.713 228.447 422.612L228.175 422.587L228.007 422.802C227.319 423.679 226.471 424.135 225.567 424.125C224.713 424.115 223.711 423.688 222.652 422.608L222.439 422.383C221.759 421.639 220.912 419.99 220.045 417.796C219.188 415.627 218.338 412.995 217.631 410.348C216.923 407.701 216.362 405.052 216.078 402.847C215.936 401.745 215.864 400.763 215.876 399.955C215.888 399.133 215.987 398.542 216.146 398.184L216.151 398.174L216.155 398.164C216.234 397.963 216.372 397.791 216.55 397.669C216.727 397.547 216.937 397.482 217.151 397.48C217.777 397.481 218.575 397.962 219.493 398.932C220.386 399.876 221.295 401.177 222.143 402.579L223.064 402.246C221.839 394.105 223.282 392.138 223.482 391.915L223.489 391.906C223.669 391.697 223.898 391.536 224.155 391.438C224.413 391.34 224.69 391.309 224.963 391.345L224.979 391.347C225.401 391.392 226.927 391.84 228.793 395.583L229.74 395.347C229.7 393.818 229.749 392.052 230.162 390.67C230.368 389.982 230.653 389.426 231.029 389.043C231.393 388.672 231.862 388.44 232.497 388.42H232.683C233.601 388.451 234.546 388.985 235.52 390.196C236.56 391.49 237.577 393.494 238.56 396.258L239.53 396.095C239.565 393.129 239.966 391.32 240.491 390.207C240.999 389.13 241.625 388.695 242.192 388.473ZM243.951 389.384C243.544 389.243 242.999 389.133 242.493 389.337C241.903 389.575 241.096 390.429 240.707 393.003C240.315 395.601 240.323 400.092 241.516 407.876L241.517 407.882C241.539 408.016 241.507 408.154 241.428 408.264C241.348 408.375 241.228 408.449 241.094 408.471C240.959 408.494 240.822 408.462 240.711 408.383C240.6 408.303 240.526 408.183 240.504 408.049L240.503 408.044L240.374 407.336C239.703 403.749 238.609 399.493 237.332 396.047C236.652 394.211 235.911 392.581 235.142 391.401C234.758 390.812 234.354 390.314 233.93 389.959C233.512 389.609 233.037 389.367 232.519 389.361L232.52 389.36C232.308 389.352 232.098 389.401 231.912 389.502C231.772 389.577 231.65 389.68 231.552 389.803L231.492 389.887C231.056 390.46 230.829 391.344 230.716 392.345C230.6 393.368 230.596 394.598 230.67 395.937C230.818 398.618 231.282 401.792 231.839 404.723L231.842 404.737L231.846 404.752C232.213 406.222 232.571 407.843 232.92 409.635L232.922 409.645C232.936 409.712 232.937 409.782 232.925 409.849C232.912 409.917 232.887 409.981 232.85 410.039C232.812 410.096 232.764 410.146 232.708 410.185C232.652 410.224 232.588 410.252 232.521 410.266C232.453 410.281 232.384 410.282 232.316 410.269C232.249 410.257 232.185 410.231 232.127 410.194C232.069 410.157 232.019 410.109 231.98 410.052C231.941 409.996 231.914 409.932 231.899 409.865L231.896 409.853C231.776 409.353 231.377 407.708 230.898 405.533L230.896 405.519L230.576 404.28C229.814 401.409 228.93 398.702 228.028 396.604C227.514 395.408 226.986 394.39 226.46 393.649C226.197 393.279 225.925 392.963 225.643 392.727C225.363 392.494 225.042 392.315 224.688 392.273C224.577 392.256 224.462 392.265 224.354 392.302C224.238 392.343 224.136 392.416 224.057 392.51H224.056C223.806 392.793 223.654 393.191 223.556 393.615C223.455 394.05 223.398 394.57 223.373 395.144C223.324 396.295 223.403 397.725 223.565 399.268C223.85 401.971 224.394 405.067 224.98 407.706L225.234 408.806C225.263 408.928 225.246 409.056 225.186 409.165C225.125 409.274 225.027 409.356 224.909 409.396L224.905 409.398C224.788 409.439 224.659 409.434 224.544 409.385C224.429 409.336 224.337 409.246 224.285 409.133C223.192 406.554 221.909 404.118 220.731 402.236C220.142 401.294 219.574 400.483 219.064 399.861C218.57 399.257 218.086 398.773 217.658 398.554L217.104 398.272L216.947 398.873C216.832 399.311 216.818 399.947 216.861 400.679C216.906 401.428 217.015 402.331 217.174 403.332C217.492 405.335 218.017 407.762 218.653 410.193C219.289 412.624 220.04 415.07 220.814 417.111C221.579 419.126 222.394 420.82 223.18 421.684V421.685C223.476 422.013 223.858 422.379 224.282 422.656C224.697 422.927 225.215 423.155 225.763 423.097L225.805 423.093L225.845 423.082C226.187 422.986 226.508 422.822 226.785 422.599C227.063 422.377 227.292 422.1 227.46 421.786L227.461 421.787C227.508 421.698 227.582 421.625 227.671 421.579C227.76 421.533 227.861 421.514 227.961 421.526L227.99 421.53H227.991C228 421.531 228.011 421.532 228.026 421.534C228.066 421.538 228.122 421.544 228.193 421.552C228.335 421.566 228.535 421.584 228.775 421.597C229.254 421.625 229.9 421.638 230.566 421.573C231.227 421.509 231.944 421.366 232.544 421.062C233.154 420.754 233.678 420.256 233.848 419.488L233.849 419.489C233.864 419.421 233.892 419.357 233.934 419.302C233.975 419.246 234.028 419.198 234.088 419.164L234.094 419.161C234.274 419.055 234.363 419.08 234.967 419.247C235.468 419.386 236.146 419.545 237.18 419.486L237.646 419.447L237.653 419.446C239.495 419.213 241.196 418.342 242.462 416.985C242.543 416.9 242.653 416.847 242.77 416.834C242.886 416.821 243.004 416.85 243.102 416.915C245.199 418.347 247.718 419.03 250.252 418.853C252.787 418.677 255.188 417.651 257.067 415.94L257.596 415.459L256.962 415.127C251.282 412.152 249.912 406.952 249.193 401.884C248.839 399.383 248.638 396.852 248.129 394.769C247.648 392.803 246.863 391.092 245.297 390.068L244.974 389.873C244.747 389.742 244.369 389.528 243.951 389.384Z" fill="#001933" stroke="#001933"/>
<path d="M240.526 405.097C240.661 405.072 240.8 405.101 240.913 405.179C241.026 405.257 241.104 405.376 241.129 405.511L241.13 405.514L243.38 417.254V417.255C243.394 417.328 243.392 417.404 243.373 417.476C243.354 417.548 243.319 417.615 243.271 417.672C243.224 417.729 243.163 417.774 243.096 417.805C243.028 417.836 242.954 417.851 242.88 417.85H242.861C242.744 417.852 242.63 417.813 242.538 417.739C242.47 417.683 242.417 417.611 242.386 417.53L242.361 417.446L240.112 405.699C240.087 405.565 240.117 405.425 240.194 405.312C240.272 405.199 240.392 405.122 240.526 405.097Z" fill="#001933" stroke="#001933"/>
<path d="M231.933 406.991C232.068 406.965 232.208 406.995 232.321 407.072C232.435 407.149 232.512 407.268 232.538 407.403L232.539 407.405L234.889 419.525C234.903 419.599 234.901 419.674 234.882 419.747C234.863 419.819 234.828 419.887 234.779 419.944C234.731 420.001 234.67 420.046 234.602 420.077C234.533 420.107 234.459 420.122 234.384 420.12H234.36C234.243 420.122 234.129 420.083 234.037 420.009C233.946 419.935 233.883 419.831 233.86 419.716L231.521 407.595C231.495 407.461 231.525 407.322 231.602 407.209C231.679 407.095 231.798 407.017 231.933 406.991Z" fill="#001933" stroke="#001933"/>
<path d="M224.57 407.531C224.637 407.543 224.702 407.568 224.759 407.605C224.816 407.643 224.865 407.692 224.902 407.749C224.94 407.806 224.966 407.87 224.978 407.938L224.98 407.953L224.984 407.968L228.363 421.884V421.885C228.38 421.957 228.381 422.033 228.365 422.105C228.35 422.178 228.318 422.247 228.272 422.306C228.227 422.365 228.169 422.413 228.103 422.446C228.036 422.48 227.963 422.498 227.889 422.5H227.886C227.772 422.503 227.659 422.468 227.568 422.398C227.5 422.347 227.447 422.279 227.413 422.201L227.386 422.12L224.016 408.202L224.013 408.188L224.008 408.172L223.987 408.072C223.984 408.039 223.985 408.005 223.988 407.971C223.996 407.903 224.017 407.837 224.051 407.777C224.085 407.718 224.13 407.666 224.185 407.625C224.239 407.584 224.301 407.554 224.367 407.538C224.434 407.522 224.503 407.52 224.57 407.531Z" fill="#001933" stroke="#001933"/>
<path d="M260.09 417.35C263.575 417.35 266.4 415.559 266.4 413.35C266.4 411.141 263.575 409.35 260.09 409.35C256.605 409.35 253.78 411.141 253.78 413.35C253.78 415.559 256.605 417.35 260.09 417.35Z" fill="white"/>
<path d="M260.09 408.85C262.056 408.85 263.782 409.376 265.001 410.209C266.219 411.042 266.9 412.153 266.9 413.35C266.9 414.547 266.219 415.658 265.001 416.491C263.782 417.324 262.056 417.85 260.09 417.85C258.125 417.85 256.399 417.322 255.18 416.488C253.961 415.653 253.28 414.542 253.28 413.35C253.28 412.159 253.961 411.047 255.18 410.212C256.399 409.378 258.125 408.85 260.09 408.85ZM260.09 409.85C258.577 409.85 257.162 410.209 256.109 410.803C255.076 411.387 254.28 412.27 254.28 413.35C254.28 414.43 255.076 415.314 256.109 415.897C257.162 416.492 258.577 416.85 260.09 416.85C261.603 416.85 263.018 416.492 264.071 415.897C265.104 415.314 265.9 414.43 265.9 413.35C265.9 412.272 265.115 411.389 264.083 410.804C263.033 410.209 261.617 409.85 260.09 409.85Z" fill="#001933" stroke="#001933"/>
<path d="M139.9 103.87C139.884 103.606 139.972 103.347 140.147 103.148C140.321 102.95 140.567 102.828 140.83 102.81C162.62 101.41 172.83 79.3501 172.98 79.1301C173.035 79.0106 173.112 78.903 173.208 78.8134C173.305 78.7239 173.417 78.6541 173.54 78.6082C173.663 78.5622 173.794 78.5409 173.926 78.5455C174.057 78.5502 174.186 78.5806 174.305 78.6351C174.425 78.6896 174.532 78.7671 174.622 78.8632C174.712 78.9592 174.781 79.072 174.827 79.1951C174.873 79.3181 174.895 79.449 174.89 79.5803C174.885 79.7115 174.855 79.8406 174.8 79.9601C174.69 80.1901 163.93 103.33 140.96 104.8C140.697 104.817 140.437 104.728 140.239 104.554C140.04 104.379 139.918 104.134 139.9 103.87Z" fill="white"/>
<path d="M136.19 94.77C134.326 94.7695 132.464 94.6324 130.62 94.36C130.489 94.3403 130.362 94.2949 130.249 94.2264C130.135 94.158 130.036 94.0678 129.957 93.961C129.878 93.8542 129.821 93.7329 129.789 93.6041C129.757 93.4752 129.75 93.3413 129.77 93.21C129.79 93.0786 129.835 92.9525 129.903 92.8387C129.972 92.7249 130.062 92.6257 130.169 92.5468C130.276 92.4679 130.397 92.4107 130.526 92.3787C130.655 92.3466 130.789 92.3403 130.92 92.36C148.31 94.93 163.42 83.45 163.57 83.36C163.678 83.2799 163.8 83.2217 163.93 83.1889C164.06 83.1561 164.196 83.1493 164.328 83.1688C164.461 83.1883 164.589 83.2338 164.704 83.3026C164.819 83.3714 164.92 83.4623 165 83.57C165.08 83.6777 165.138 83.8001 165.171 83.9302C165.204 84.0603 165.211 84.1957 165.191 84.3285C165.172 84.4612 165.126 84.5889 165.057 84.7041C164.989 84.8193 164.898 84.9199 164.79 85C164.22 85.39 151.87 94.77 136.19 94.77Z" fill="white"/>
<path d="M255.4 106.5C255.207 106.499 255.018 106.441 254.856 106.335C254.695 106.228 254.567 106.077 254.49 105.9C244.71 83.4801 217.4 70.1501 217.12 70.0001C217.002 69.9425 216.896 69.8621 216.809 69.7635C216.721 69.6649 216.655 69.5501 216.612 69.4256C216.569 69.3011 216.551 69.1694 216.56 69.0381C216.568 68.9067 216.602 68.7783 216.66 68.6601C216.775 68.4219 216.979 68.2387 217.228 68.1506C217.477 68.0626 217.751 68.0768 217.99 68.1901C218.27 68.3301 246.24 81.9701 256.32 105.08C256.391 105.233 256.422 105.402 256.41 105.571C256.398 105.739 256.344 105.902 256.252 106.044C256.16 106.186 256.034 106.302 255.885 106.382C255.736 106.461 255.569 106.502 255.4 106.5Z" fill="white"/>
<path d="M261.301 128.718C261.421 128.696 261.545 128.719 261.649 128.783C261.757 128.849 261.836 128.953 261.87 129.074C261.904 129.196 261.892 129.326 261.834 129.438C261.778 129.548 261.682 129.631 261.567 129.675L254.666 131.608L253.877 131.829L254.434 132.43C255.199 133.255 255.77 134.241 256.105 135.315C256.441 136.39 256.533 137.525 256.375 138.64V138.645C256.359 138.764 256.301 138.874 256.211 138.954C256.121 139.034 256.005 139.078 255.885 139.079C255.813 139.08 255.742 139.065 255.677 139.036C255.611 139.007 255.552 138.963 255.505 138.909C255.457 138.855 255.422 138.792 255.401 138.723C255.381 138.654 255.376 138.581 255.386 138.51L255.387 138.497C255.529 137.263 255.34 136.014 254.838 134.878C254.367 133.813 253.639 132.883 252.719 132.173L252.532 132.034L252.521 132.026L252.465 131.982C252.413 131.935 252.371 131.876 252.343 131.811C252.305 131.723 252.293 131.626 252.309 131.532C252.324 131.438 252.365 131.35 252.429 131.279C252.492 131.209 252.573 131.157 252.664 131.131L252.665 131.132L261.301 128.718Z" fill="#001933" stroke="#001933"/>
<path d="M134.545 130.858L142.625 131.429H142.627C142.726 131.435 142.821 131.471 142.899 131.532C142.978 131.593 143.037 131.677 143.068 131.771C143.099 131.866 143.101 131.968 143.074 132.063C143.047 132.159 142.993 132.244 142.917 132.309L142.913 132.312H142.912L142.911 132.313L142.909 132.314C142.908 132.316 142.906 132.318 142.903 132.32C142.898 132.325 142.89 132.332 142.881 132.34C142.862 132.357 142.835 132.381 142.802 132.412C142.735 132.474 142.642 132.564 142.53 132.679C142.308 132.907 142.011 133.235 141.712 133.635C141.126 134.419 140.482 135.55 140.471 136.785L140.47 136.796L140.471 136.806C140.49 137.409 140.644 138 140.92 138.536C141.193 139.067 141.58 139.53 142.052 139.895V139.896C142.132 139.962 142.189 140.052 142.216 140.152C142.243 140.253 142.237 140.36 142.2 140.457C142.163 140.554 142.097 140.638 142.011 140.696C141.924 140.754 141.821 140.784 141.717 140.78H141.697C141.567 140.781 141.442 140.73 141.348 140.64L141.34 140.633L141.331 140.625C140.081 139.52 139.495 138.295 139.435 137.046C139.374 135.786 139.845 134.432 140.843 133.076L141.382 132.345L140.476 132.281L134.476 131.861C134.343 131.852 134.218 131.79 134.131 131.689C134.044 131.589 134 131.458 134.009 131.325C134.018 131.192 134.08 131.068 134.181 130.98C134.281 130.893 134.412 130.849 134.545 130.858Z" fill="#001933" stroke="#001933"/>
<path d="M176.739 130.64C179.142 130.64 181.09 132.587 181.09 134.99C181.09 137.392 179.142 139.34 176.739 139.34C174.337 139.34 172.39 137.392 172.39 134.99C172.39 132.587 174.337 130.64 176.739 130.64Z" fill="#001933" stroke="#001933"/>
<path d="M222.409 130.64C224.811 130.64 226.76 132.587 226.76 134.99C226.76 137.392 224.812 139.34 222.409 139.34C220.007 139.34 218.06 137.392 218.06 134.99C218.06 132.587 220.007 130.64 222.409 130.64Z" fill="#001933" stroke="#001933"/>
<path d="M176.503 119.522C180.26 119.694 183.897 120.903 187.01 123.014L187.022 123.023L187.035 123.031C187.131 123.087 187.204 123.174 187.245 123.277C187.286 123.38 187.292 123.493 187.261 123.6C187.23 123.706 187.164 123.799 187.074 123.865C186.985 123.93 186.876 123.963 186.766 123.96H186.746C186.649 123.961 186.553 123.933 186.472 123.88H186.471C183.526 121.877 180.087 120.722 176.53 120.541C172.969 120.36 169.427 121.163 166.292 122.861L166.267 122.874C166.211 122.909 166.148 122.933 166.083 122.944C166.018 122.954 165.952 122.951 165.888 122.936C165.824 122.92 165.763 122.892 165.71 122.854C165.683 122.834 165.658 122.813 165.636 122.788L165.577 122.709C165.509 122.597 165.488 122.462 165.519 122.334C165.549 122.207 165.628 122.097 165.738 122.028C169.027 120.217 172.752 119.35 176.503 119.522Z" fill="#001933" stroke="#001933"/>
<path d="M223.557 119.542C227.307 119.37 231.032 120.237 234.32 122.048C234.431 122.117 234.51 122.227 234.541 122.354C234.572 122.482 234.55 122.616 234.482 122.728C234.413 122.84 234.304 122.92 234.176 122.951C234.048 122.982 233.913 122.961 233.8 122.892L233.788 122.885L233.777 122.88L233.184 122.573C230.195 121.092 226.873 120.4 223.535 120.57C219.982 120.751 216.544 121.899 213.598 123.892C213.518 123.938 213.426 123.962 213.334 123.96H213.316C213.208 123.961 213.103 123.926 213.016 123.862C212.929 123.798 212.864 123.707 212.833 123.603C212.802 123.5 212.806 123.388 212.844 123.287C212.881 123.185 212.95 123.099 213.041 123.04L213.051 123.034C216.163 120.923 219.8 119.714 223.557 119.542Z" fill="#001933" stroke="#001933"/>
<path d="M199.906 132.238C199.974 132.237 200.042 132.25 200.105 132.275C200.169 132.301 200.227 132.339 200.274 132.388C200.322 132.436 200.36 132.494 200.385 132.558C200.409 132.621 200.421 132.69 200.418 132.758C200.415 132.826 200.399 132.893 200.369 132.954L200.362 132.969L200.356 132.983C199.142 135.995 197.975 139.283 197.183 141.97C196.787 143.312 196.48 144.515 196.309 145.463C196.223 145.936 196.168 146.358 196.155 146.709C196.143 147.037 196.163 147.382 196.289 147.646L196.303 147.674L196.319 147.7C196.568 148.087 197.06 148.324 197.546 148.484C198.064 148.655 198.709 148.78 199.412 148.865C200.822 149.036 202.537 149.056 204.091 148.929H204.092C204.224 148.918 204.355 148.959 204.456 149.044C204.532 149.108 204.587 149.193 204.614 149.287L204.632 149.383C204.643 149.514 204.602 149.644 204.518 149.745C204.433 149.846 204.312 149.909 204.182 149.922C202.921 150.03 201.019 150.09 199.271 149.86C198.395 149.745 197.577 149.561 196.905 149.284C196.23 149.006 195.744 148.653 195.471 148.229L195.47 148.228L195.427 148.155C195.331 147.971 195.258 147.691 195.229 147.295C195.198 146.85 195.226 146.305 195.308 145.677C195.471 144.421 195.842 142.892 196.315 141.288C197.262 138.083 198.6 134.644 199.433 132.609L199.438 132.595L199.444 132.579C199.466 132.515 199.5 132.455 199.546 132.404C199.591 132.354 199.647 132.313 199.709 132.284C199.771 132.256 199.838 132.24 199.906 132.238Z" fill="#001933" stroke="#001933"/>
<path d="M184.5 160.57C194.399 164.473 205.411 164.473 215.31 160.57C212.25 168.62 204.26 173.21 196.82 171.83C193.953 171.213 191.301 169.845 189.137 167.867C186.972 165.888 185.372 163.37 184.5 160.57Z" fill="white"/>
<path d="M184.403 160.076C184.497 160.059 184.595 160.068 184.684 160.104L184.688 160.105C194.47 163.962 205.351 163.962 215.134 160.105C215.224 160.069 215.323 160.061 215.418 160.08C215.513 160.1 215.601 160.147 215.67 160.215C215.739 160.283 215.786 160.371 215.807 160.466C215.827 160.561 215.819 160.66 215.784 160.75L215.783 160.752C213.072 167.872 206.338 172.57 199.45 172.57C192.378 172.569 186.347 167.61 184.024 160.73L184.023 160.729C183.993 160.638 183.989 160.54 184.012 160.448C184.035 160.355 184.084 160.27 184.153 160.204C184.223 160.139 184.309 160.094 184.403 160.076ZM185.825 162.488C186.846 164.729 188.381 166.699 190.305 168.237C192.228 169.774 194.487 170.837 196.898 171.339L196.909 171.341C203.553 172.576 210.442 168.84 213.85 162.569L214.453 161.459L213.254 161.855C204.545 164.732 195.138 164.715 186.439 161.806L185.349 161.442L185.825 162.488Z" fill="#001933" stroke="#001933"/>
<path d="M166.43 143.97C168.411 143.97 170.181 144.474 171.439 145.262C172.705 146.054 173.39 147.085 173.39 148.14C173.39 149.195 172.705 150.227 171.439 151.019C170.181 151.807 168.411 152.31 166.43 152.31C164.449 152.31 162.679 151.807 161.42 151.019C160.154 150.227 159.47 149.195 159.47 148.14C159.47 147.085 160.154 146.054 161.42 145.262C162.679 144.474 164.449 143.97 166.43 143.97Z" fill="#007BFF" stroke="#007BFF"/>
<path d="M229.87 143.97C231.851 143.97 233.621 144.474 234.88 145.262C236.145 146.054 236.83 147.085 236.83 148.14C236.83 149.195 236.145 150.227 234.88 151.019C233.621 151.807 231.851 152.31 229.87 152.31C227.889 152.31 226.119 151.807 224.86 151.019C223.595 150.227 222.91 149.195 222.91 148.14C222.91 147.085 223.595 146.054 224.86 145.262C226.119 144.474 227.889 143.97 229.87 143.97Z" fill="#007BFF" stroke="#007BFF"/>
<path d="M328.15 119.57C318.599 119.572 309.313 122.705 301.714 128.491C294.116 134.276 288.624 142.394 286.082 151.6C283.54 160.806 284.087 170.592 287.639 179.457C291.192 188.322 297.554 195.777 305.75 200.68C304.59 206.81 302.43 213.92 298.37 219.24C298.191 219.474 298.096 219.761 298.1 220.056C298.103 220.35 298.205 220.635 298.389 220.865C298.573 221.095 298.828 221.256 299.115 221.324C299.401 221.392 299.702 221.363 299.97 221.24C306.04 218.5 315.41 213.53 322.32 206.48C328.249 207.288 334.281 206.869 340.041 205.248C345.801 203.627 351.166 200.838 355.803 197.056C360.44 193.274 364.251 188.579 366.997 183.263C369.743 177.947 371.367 172.122 371.767 166.152C372.168 160.181 371.337 154.192 369.325 148.557C367.314 142.921 364.165 137.759 360.074 133.392C355.984 129.024 351.039 125.545 345.547 123.169C340.056 120.793 334.134 119.571 328.15 119.58V119.57Z" fill="white"/>
<path d="M297.58 218.63C300.8 214.4 303.18 208.53 304.64 201.17C295.276 195.375 288.384 186.326 285.285 175.759C282.187 165.192 283.102 153.854 287.855 143.92C292.607 133.987 300.861 126.16 311.032 121.941C321.204 117.723 332.575 117.411 342.963 121.065C353.35 124.719 362.021 132.082 367.311 141.74C372.601 151.398 374.136 162.669 371.622 173.39C369.108 184.11 362.722 193.524 353.691 199.824C344.659 206.123 333.619 208.864 322.69 207.52C315.83 214.37 306.8 219.24 300.38 222.14C299.91 222.349 299.385 222.396 298.887 222.274C298.388 222.152 297.944 221.868 297.623 221.467C297.303 221.065 297.125 220.569 297.117 220.056C297.109 219.542 297.272 219.041 297.58 218.63ZM328.15 120.57C318.818 120.571 309.745 123.633 302.32 129.286C294.896 134.938 289.53 142.87 287.046 151.865C284.561 160.859 285.095 170.42 288.566 179.082C292.036 187.744 298.252 195.029 306.26 199.82C306.436 199.925 306.577 200.083 306.661 200.271C306.745 200.458 306.769 200.668 306.73 200.87C305.23 208.87 302.68 215.24 299.17 219.87C299.133 219.927 299.115 219.995 299.119 220.063C299.123 220.131 299.148 220.196 299.192 220.248C299.235 220.301 299.295 220.338 299.361 220.354C299.427 220.371 299.496 220.366 299.56 220.34C305.93 217.46 314.93 212.6 321.61 205.79C321.719 205.679 321.853 205.594 322 205.544C322.148 205.494 322.305 205.479 322.46 205.5C328.253 206.289 334.146 205.878 339.774 204.293C345.401 202.709 350.643 199.984 355.173 196.288C359.704 192.593 363.426 188.005 366.109 182.81C368.791 177.616 370.377 171.925 370.768 166.092C371.159 160.258 370.347 154.407 368.381 148.9C366.415 143.394 363.339 138.351 359.342 134.084C355.345 129.817 350.514 126.417 345.148 124.096C339.782 121.774 333.996 120.581 328.15 120.59V120.57Z" fill="#001933"/>
<path d="M321.51 173.07L307.43 159.07C307.319 158.958 307.186 158.869 307.041 158.809C306.895 158.748 306.738 158.717 306.58 158.717C306.422 158.717 306.266 158.748 306.12 158.809C305.974 158.869 305.842 158.958 305.73 159.07L301.2 163.6C300.977 163.826 300.852 164.132 300.852 164.45C300.852 164.768 300.977 165.073 301.2 165.3L321.5 185.52C321.726 185.74 322.03 185.864 322.345 185.864C322.661 185.864 322.964 185.74 323.19 185.52L356 152.8C356.224 152.573 356.349 152.268 356.349 151.95C356.349 151.632 356.224 151.326 356 151.1L351.48 146.58C351.256 146.357 350.952 146.232 350.635 146.232C350.319 146.232 350.015 146.357 349.79 146.58L323.23 173.08C323.117 173.193 322.983 173.282 322.835 173.343C322.687 173.404 322.528 173.435 322.368 173.434C322.208 173.433 322.05 173.4 321.903 173.338C321.756 173.275 321.622 173.184 321.51 173.07Z" fill="#001933"/>
</g>
<defs>
<clipPath id="clip0_9405_46221">
<rect width="512" height="512" fill="white"/>
</clipPath>
</defs>
</svg>
