<svg width="512" height="512" viewBox="0 0 512 512" fill="none" xmlns="http://www.w3.org/2000/svg">
<g clip-path="url(#clip0_9405_46292)">
<g opacity="0.2">
<path d="M130.448 127.125C208.357 49.2151 334.674 49.2151 412.583 127.125C490.493 205.034 490.493 331.351 412.583 409.26C334.674 487.17 208.357 487.17 130.448 409.26C52.5382 331.351 52.5382 205.034 130.448 127.125Z" fill="#007BFF" stroke="#007BFF"/>
</g>
<path d="M120.331 226.324C130.231 219.619 152.833 207.508 192.711 211.947C168.511 260.34 135.905 304.049 96.4092 341.034L44.2158 334.311C50.7379 323.198 60.3156 307.24 72.4707 288.351C105.13 237.562 114.863 230.021 120.33 226.324H120.331Z" fill="#007BFF" stroke="#007BFF"/>
<path d="M347.31 231.32C381.033 231.32 408.37 203.983 408.37 170.26C408.37 136.538 381.033 109.2 347.31 109.2C313.587 109.2 286.25 136.538 286.25 170.26C286.25 203.983 313.587 231.32 347.31 231.32Z" fill="white"/>
<path d="M347.31 232.33C335.034 232.332 323.032 228.693 312.824 221.874C302.615 215.055 294.658 205.362 289.958 194.02C285.259 182.678 284.028 170.198 286.422 158.157C288.816 146.116 294.727 135.055 303.407 126.373C312.087 117.692 323.147 111.779 335.188 109.383C347.228 106.988 359.709 108.216 371.051 112.914C382.394 117.611 392.088 125.567 398.909 135.775C405.73 145.982 409.37 157.983 409.37 170.26C409.352 186.715 402.808 202.49 391.174 214.126C379.539 225.762 363.765 232.309 347.31 232.33ZM347.31 110.2C335.429 110.198 323.814 113.72 313.934 120.319C304.054 126.919 296.353 136.301 291.805 147.278C287.257 158.254 286.067 170.333 288.384 181.987C290.702 193.64 296.423 204.344 304.825 212.746C313.226 221.147 323.93 226.869 335.584 229.186C347.237 231.504 359.316 230.313 370.293 225.766C381.27 221.218 390.651 213.517 397.251 203.637C403.851 193.757 407.372 182.142 407.37 170.26C407.352 154.337 401.018 139.071 389.759 127.812C378.499 116.552 363.234 110.218 347.31 110.2Z" fill="#001933"/>
<path d="M347.31 217.04C373.146 217.04 394.09 196.096 394.09 170.26C394.09 144.424 373.146 123.48 347.31 123.48C321.474 123.48 300.53 144.424 300.53 170.26C300.53 196.096 321.474 217.04 347.31 217.04Z" fill="white"/>
<path d="M347.31 218C337.859 218.002 328.62 215.201 320.762 209.953C312.903 204.704 306.777 197.242 303.159 188.512C299.542 179.781 298.594 170.174 300.436 160.905C302.279 151.636 306.829 143.121 313.51 136.438C320.192 129.755 328.706 125.203 337.974 123.359C347.243 121.514 356.851 122.46 365.582 126.076C374.313 129.692 381.776 135.816 387.026 143.674C392.277 151.531 395.08 160.77 395.08 170.22C395.066 182.886 390.03 195.03 381.074 203.987C372.119 212.945 359.976 217.984 347.31 218ZM347.31 124.45C338.254 124.448 329.402 127.132 321.872 132.161C314.342 137.191 308.472 144.341 305.006 152.706C301.54 161.072 300.633 170.277 302.399 179.159C304.165 188.04 308.525 196.198 314.928 202.601C321.331 209.004 329.489 213.365 338.371 215.131C347.252 216.897 356.458 215.99 364.823 212.523C373.189 209.057 380.339 203.188 385.368 195.658C390.398 188.128 393.082 179.275 393.08 170.22C393.056 158.092 388.225 146.468 379.645 137.896C371.066 129.324 359.438 124.503 347.31 124.49V124.45Z" fill="#001933"/>
<path d="M346.39 124.05H348.22C348.678 124.05 349.05 124.422 349.05 124.88V132.91C349.05 133.369 348.678 133.74 348.22 133.74H346.39C345.931 133.74 345.56 133.369 345.56 132.91V124.88C345.56 124.422 345.931 124.05 346.39 124.05Z" fill="#001933" stroke="#001933"/>
<path d="M346.39 206.85H348.22C348.678 206.85 349.05 207.222 349.05 207.68V215.71C349.05 216.169 348.678 216.54 348.22 216.54H346.39C345.931 216.54 345.56 216.169 345.56 215.71V207.68C345.56 207.222 345.931 206.85 346.39 206.85Z" fill="#001933" stroke="#001933"/>
<path d="M393.55 169.38V171.21C393.55 171.668 393.178 172.04 392.72 172.04H384.689C384.231 172.04 383.859 171.668 383.859 171.21V169.38C383.859 168.922 384.231 168.55 384.689 168.55H392.72C393.178 168.55 393.55 168.922 393.55 169.38Z" fill="#001933" stroke="#001933"/>
<path d="M310.75 169.38V171.21C310.75 171.668 310.378 172.04 309.92 172.04H301.89C301.431 172.04 301.06 171.668 301.06 171.21V169.38C301.06 168.922 301.431 168.55 301.89 168.55H309.92C310.378 168.55 310.75 168.922 310.75 169.38Z" fill="#001933" stroke="#001933"/>
<path d="M345.811 170.257L345.65 139.88C345.65 139.482 345.809 139.101 346.09 138.819C346.371 138.538 346.753 138.38 347.15 138.38C347.548 138.38 347.93 138.538 348.211 138.819C348.492 139.101 348.65 139.482 348.65 139.88V139.883L348.79 168.273L348.793 168.77H370.58C370.978 168.77 371.359 168.928 371.641 169.209C371.922 169.49 372.08 169.872 372.08 170.27C372.08 170.667 371.922 171.049 371.641 171.33C371.359 171.612 370.978 171.769 370.58 171.769L347.311 171.76C346.913 171.76 346.531 171.602 346.25 171.32C345.969 171.039 345.811 170.658 345.811 170.26V170.257Z" fill="#001933" stroke="#001933"/>
<path d="M392.03 183.12C414.094 183.12 431.98 201.006 431.98 223.07C431.98 245.134 414.094 263.02 392.03 263.02C369.967 263.02 352.08 245.134 352.08 223.07C352.08 201.006 369.966 183.12 392.03 183.12Z" fill="#001933" stroke="#001933"/>
<path d="M205.793 210.054C217.879 208.578 230.139 209.516 241.86 212.819V212.82C255.835 216.871 264.561 222.983 278.407 234.366C292.219 245.722 311.095 262.295 345.274 287.184C341.098 299.04 336.915 310.893 332.726 322.742C300.225 320.366 271.344 311.587 249.2 298.215C226.969 284.789 211.556 266.754 206.043 245.942V245.941C203.798 237.473 202.39 225.48 205.793 210.054Z" fill="#007BFF" stroke="#007BFF"/>
<path d="M248.11 223.6C243.64 217.6 235.11 213.39 224.61 211C222.35 210.495 220.327 209.238 218.874 207.434C217.421 205.63 216.623 203.386 216.61 201.07V170.29H176.38V201.51C176.387 204.1 175.551 206.622 173.997 208.695C172.444 210.768 170.258 212.279 167.77 213C155.39 216.57 145.32 222.26 140.99 229.88C126.77 254.88 112.4 393.88 112.4 393.88L256.05 398.73C256.05 398.73 265.08 246.53 248.11 223.6Z" fill="white"/>
<path d="M256.05 399.69C255.24 399.69 263.24 399.94 112.36 394.84C112.22 394.841 112.082 394.812 111.953 394.756C111.825 394.699 111.71 394.616 111.616 394.513C111.521 394.409 111.45 394.287 111.406 394.153C111.362 394.02 111.346 393.879 111.36 393.74C111.95 388.06 125.92 254.27 140.08 229.36C145.39 220.02 157.9 214.77 167.46 212.01C169.728 211.339 171.719 209.956 173.139 208.064C174.558 206.173 175.33 203.875 175.34 201.51V170.29C175.34 170.025 175.446 169.77 175.633 169.583C175.821 169.395 176.075 169.29 176.34 169.29H216.6C216.866 169.29 217.12 169.395 217.308 169.583C217.495 169.77 217.6 170.025 217.6 170.29V201.07C217.596 203.171 218.31 205.209 219.626 206.847C220.941 208.485 222.778 209.622 224.83 210.07C236.24 212.68 244.56 217.17 248.92 223.07C265.92 246.07 257.42 392.59 257.05 398.82C257.019 399.062 256.9 399.284 256.715 399.444C256.531 399.605 256.295 399.692 256.05 399.69ZM113.5 392.88L255.11 397.66C255.84 384.59 263.16 245.66 247.31 224.19C243.24 218.7 235.31 214.47 224.39 211.97C221.903 211.426 219.676 210.049 218.078 208.067C216.479 206.084 215.605 203.616 215.6 201.07V171.29H177.38V201.51C177.369 204.309 176.456 207.029 174.775 209.267C173.094 211.504 170.735 213.14 168.05 213.93C155.05 217.68 145.74 223.51 141.86 230.35C128.55 253.74 114.88 379.92 113.5 392.88Z" fill="#001933"/>
<path d="M256.382 393.449L256.401 393.45H256.421L267.511 393.218C273.645 417.822 279.788 442.42 285.936 467.012L285.943 467.045L285.956 467.077C285.981 467.139 285.991 467.207 285.983 467.274C285.976 467.341 285.953 467.405 285.915 467.461C285.877 467.516 285.826 467.561 285.767 467.593C285.707 467.624 285.641 467.641 285.573 467.64H285.57L106.33 467.5L106.252 467.493C106.175 467.478 106.103 467.441 106.046 467.387C105.97 467.314 105.925 467.214 105.92 467.108V467.107C104.684 439.808 107.033 412.465 112.908 385.777L112.909 385.774C112.929 385.683 112.979 385.6 113.052 385.541C113.124 385.483 113.213 385.451 113.306 385.45L256.382 393.449Z" fill="#001933" stroke="#001933"/>
<path d="M221.789 209.075C227.337 210.259 232.742 212.038 237.908 214.384C246.101 219.288 252.998 226.084 258.024 234.203C265.399 246.237 267.728 262.739 268.205 281.827C268.443 291.363 268.22 301.521 267.942 312.063C267.683 321.944 267.376 332.161 267.359 342.502V344.571C267.41 364.603 268.609 384.615 270.949 404.509L108.955 407.091C108.993 406.786 109.046 406.362 109.112 405.826C109.26 404.628 109.479 402.87 109.761 400.625C110.324 396.135 111.14 389.7 112.149 381.925C114.169 366.374 116.965 345.461 120.067 324.007C123.17 302.552 126.577 280.56 129.823 262.852C131.446 253.998 133.028 246.22 134.509 240.119C135.995 233.994 137.367 229.621 138.555 227.526C143.377 219.022 151.579 214.736 158.629 212.578C162.149 211.5 165.368 210.958 167.706 210.685C168.875 210.549 169.822 210.48 170.476 210.445C170.802 210.428 171.055 210.419 171.226 210.415C171.277 210.414 171.321 210.413 171.357 210.412C171.41 210.44 171.479 210.476 171.565 210.52C171.777 210.629 172.088 210.785 172.49 210.977C173.296 211.362 174.47 211.892 175.948 212.475C178.904 213.64 183.084 215.022 187.98 215.886C197.719 217.604 210.339 217.279 221.789 209.075Z" fill="#007BFF" stroke="#007BFF"/>
<path d="M222.45 321.68C216.73 322.36 211.7 335.16 211.25 322.13C210.8 309.1 216.5 280.53 211.25 281.31C207.49 281.86 206.42 285.54 206.11 287.6C206.27 285.16 206.26 280.42 203.67 281.45C200.2 282.82 198.67 291.28 198.67 291.28C198.67 291.28 194.78 286.48 190.67 300.42C187.99 309.47 187.73 321.6 187.88 329C159.864 329.995 131.813 329.304 103.88 326.93C75.66 324.51 53.88 320.83 44.75 333.03C39.1 340.61 39.48 352.66 43.35 359.88C60.14 391.25 161.65 367.39 193.17 359.39C204.17 363.51 214.17 351.62 216.58 342.48C218.99 333.34 226.77 331.48 229.51 327.39C232.25 323.3 228.16 321 222.45 321.68Z" fill="white"/>
<path d="M42.4802 360.35C38.4802 352.93 37.9802 340.46 43.9702 332.43C52.3902 321.15 71.1002 322.89 94.7702 325.1C125.373 328.091 156.139 329.07 186.87 328.03C186.76 319.85 187.19 308.7 189.72 300.14C191 295.78 193.72 288.14 198 289.65C200.58 278.9 205.84 278.65 206.87 282.88C207.364 282.188 207.994 281.604 208.721 281.164C209.449 280.724 210.258 280.437 211.1 280.32C218.25 279.25 211.73 307.51 212.25 322.1C212.4 326.48 213.09 326.95 213.11 326.97C213.61 326.97 215.17 325.46 215.85 324.81C217.73 323.01 219.85 320.98 222.33 320.68C226.33 320.2 229.66 321.13 230.88 323.12C231.37 323.9 231.94 325.58 230.36 327.95C227.44 332.33 219.86 333.95 217.57 342.73C216.11 348.32 211.47 355.93 204.72 359.43C202.967 360.396 201.031 360.985 199.036 361.157C197.042 361.329 195.033 361.081 193.14 360.43C158.39 369.24 59.4402 392 42.4802 360.35ZM70.0002 325.47C58.8502 325.47 50.2902 327.32 45.5802 333.63C40.1402 340.92 40.6602 352.69 44.2602 359.41C59.8902 388.6 153.45 368.41 192.95 358.41C193.145 358.349 193.355 358.349 193.55 358.41C195.215 359.032 196.995 359.283 198.767 359.147C200.539 359.01 202.26 358.489 203.81 357.62C210.01 354.4 214.3 347.36 215.65 342.18C218.12 332.7 226.16 330.62 228.71 326.8C229.44 325.7 229.6 324.8 229.19 324.12C228.54 323.06 226.19 322.19 222.58 322.63C218.8 323.08 215.28 329.97 212.36 328.78C211.01 328.23 210.36 326.3 210.26 322.13C209.86 310.87 214.38 284.97 211.6 282.31C211.574 282.285 211.542 282.266 211.507 282.256C211.473 282.246 211.436 282.244 211.4 282.25C208.46 282.69 207.45 285.46 207.11 287.71C207.082 287.975 206.95 288.219 206.743 288.386C206.536 288.554 206.27 288.633 206.005 288.605C205.74 288.577 205.497 288.445 205.329 288.238C205.161 288.031 205.082 287.765 205.11 287.5C205.34 283.94 204.77 282.5 204.44 282.3C204.37 282.24 204.23 282.3 204.03 282.3C201.88 283.15 200.2 288.3 199.65 291.38C199.616 291.568 199.528 291.742 199.398 291.882C199.267 292.022 199.1 292.121 198.914 292.169C198.729 292.216 198.534 292.209 198.353 292.149C198.171 292.089 198.011 291.978 197.89 291.83C197.752 291.667 197.572 291.544 197.37 291.473C197.168 291.403 196.95 291.388 196.74 291.43C195.97 291.59 193.93 292.82 191.62 300.62C188.93 309.75 188.75 322.26 188.88 328.9C188.88 329.165 188.775 329.42 188.587 329.607C188.4 329.795 188.145 329.9 187.88 329.9C121.44 332.26 91.2702 325.47 70.0002 325.47Z" fill="#001933"/>
<path d="M349.53 290.81C337.14 272.65 310.15 277.58 242.8 266.28C235.96 264.4 223.35 261.06 215.65 259.89C204.65 258.21 177.92 259.43 175.75 262.33C175.449 262.644 175.232 263.028 175.118 263.447C175.003 263.867 174.995 264.308 175.094 264.731C175.194 265.154 175.397 265.546 175.686 265.871C175.975 266.195 176.341 266.443 176.75 266.59C176.75 266.59 169.75 268.79 169.37 270.28C168.99 271.77 171.68 273.45 174.72 272.99C174.72 272.99 170.96 275.84 173.27 278.45C175.58 281.06 181.27 279.96 181.27 279.96C180.8 280.08 177.7 280.87 177.51 282.53C177.521 282.916 177.616 283.295 177.789 283.641C177.961 283.986 178.208 284.29 178.51 284.53C182.57 288.36 195.01 281.28 205.93 286.02C209.23 287.45 208.21 288.15 213.03 290.71C214.59 291.53 220.3 294.56 226.03 295.35C318.24 331.92 345.88 328.97 353.17 318.35C358.27 311 354.62 298.26 349.53 290.81Z" fill="white"/>
<path d="M333.13 326.42C312.04 326.42 276.5 316.42 225.79 296.33C221.161 295.505 216.705 293.903 212.61 291.59C207.81 289.04 208.61 288.24 205.61 286.94C194.93 282.3 182.51 289.6 177.91 285.26C176.24 283.69 176.28 282.19 177.12 281.11C172.55 280.61 170.12 277.41 172.49 273.96C171.188 273.804 169.977 273.208 169.06 272.27C168.772 271.976 168.565 271.613 168.46 271.215C168.354 270.816 168.355 270.398 168.46 270C168.86 268.62 171.8 267.26 174.74 266.23C173.81 265.05 173.69 263.46 174.98 261.73C177.76 258.02 205.98 257.4 215.83 258.9C223.56 260.08 236.17 263.41 243.04 265.31C310.19 276.56 337.69 271.64 350.39 290.25C357.96 301.35 357.92 313.33 354.04 318.97C350.59 323.93 343.66 326.42 333.13 326.42ZM197 283.32C201.34 283.32 206.35 284.25 209.59 287.13C210.79 288.211 212.137 289.116 213.59 289.82C217.516 292.046 221.795 293.582 226.24 294.36C229.29 294.78 336.24 341.25 352.41 317.83C357.41 310.59 353.28 298 348.76 291.37C338.07 275.72 316.91 277.89 262.59 270.37C258.9 269.85 243.39 267.52 242.59 267.29C235.78 265.41 223.2 262.08 215.59 260.92C203.79 259.11 178.33 260.83 176.64 262.97C176.444 263.182 176.296 263.434 176.206 263.708C176.116 263.982 176.087 264.273 176.12 264.56C176.34 265.071 176.743 265.482 177.25 265.71C177.437 265.791 177.595 265.926 177.703 266.099C177.81 266.272 177.863 266.473 177.853 266.676C177.843 266.879 177.772 267.075 177.648 267.236C177.524 267.398 177.354 267.518 177.16 267.58C173.93 268.58 170.78 270.04 170.42 270.66C170.459 270.787 170.528 270.904 170.62 271C171.178 271.461 171.833 271.791 172.536 271.964C173.239 272.137 173.972 272.15 174.68 272C174.901 271.966 175.127 272.007 175.321 272.116C175.516 272.225 175.669 272.396 175.755 272.602C175.841 272.808 175.856 273.037 175.797 273.252C175.738 273.467 175.609 273.657 175.43 273.79C174.545 274.444 173.912 275.383 173.64 276.45C173.619 276.696 173.652 276.943 173.737 277.174C173.822 277.406 173.956 277.616 174.13 277.79C175.71 279.58 179.76 279.25 181.19 278.98C181.443 278.939 181.701 278.996 181.912 279.14C182.124 279.283 182.272 279.502 182.327 279.752C182.382 280.001 182.34 280.262 182.208 280.481C182.077 280.701 181.866 280.861 181.62 280.93C180 281.33 178.68 282.08 178.62 282.65C178.62 282.84 178.71 283.2 179.35 283.81C181.7 286.11 189.23 283.32 197 283.32Z" fill="#001933"/>
<path d="M265.37 117.3C264.84 113.74 265.37 116.79 265.46 120.12C265.505 119.179 265.475 118.236 265.37 117.3Z" fill="white"/>
<path d="M264.46 120.16C264.4 118.81 264.3 117.4 264.13 115.83C264.112 115.694 264.122 115.556 264.16 115.424C264.197 115.291 264.262 115.169 264.349 115.063C264.436 114.957 264.544 114.87 264.667 114.807C264.789 114.745 264.923 114.708 265.06 114.7C266.24 114.61 266.17 115.87 266.36 117.15C266.487 118.145 266.521 119.149 266.46 120.15C266.46 120.415 266.354 120.67 266.167 120.857C265.979 121.045 265.725 121.15 265.46 121.15C265.196 121.15 264.943 121.046 264.756 120.861C264.569 120.675 264.462 120.423 264.46 120.16Z" fill="#001933"/>
<path d="M265.47 124C265.47 123.7 265.47 123.4 265.47 123.1C265.1 117.5 265.05 115.93 265.09 115.73C263.255 99.4015 255.202 84.4069 242.603 73.8589C230.004 63.311 213.828 58.0199 197.431 59.084C181.034 60.1481 165.677 67.4857 154.547 79.5736C143.417 91.6615 137.37 107.571 137.66 124C135.79 124.115 133.966 124.628 132.31 125.505C130.655 126.382 129.205 127.603 128.059 129.085C126.913 130.567 126.096 132.277 125.664 134.1C125.232 135.923 125.194 137.818 125.553 139.657C125.912 141.496 126.66 143.237 127.746 144.764C128.832 146.29 130.232 147.568 131.851 148.51C133.471 149.452 135.273 150.038 137.137 150.227C139.001 150.417 140.884 150.207 142.66 149.61C149.47 169.53 165.29 195.61 201.49 195.25C235.59 194.9 251.98 170.82 259.49 149.42C259.49 149.32 259.57 149.22 259.62 149.12C261.394 149.932 263.326 150.34 265.276 150.314C267.227 150.287 269.147 149.828 270.898 148.968C272.649 148.109 274.187 146.871 275.401 145.344C276.615 143.817 277.474 142.039 277.916 140.14C278.359 138.24 278.373 136.265 277.959 134.359C277.545 132.453 276.712 130.663 275.521 129.118C274.329 127.574 272.81 126.313 271.072 125.428C269.333 124.543 267.42 124.055 265.47 124Z" fill="white"/>
<path d="M200.79 196.27C181.05 196.27 155.21 188.27 142.07 150.86C140.199 151.349 138.247 151.449 136.336 151.155C134.424 150.861 132.593 150.178 130.956 149.148C129.318 148.119 127.909 146.765 126.815 145.17C125.721 143.576 124.965 141.773 124.594 139.875C124.223 137.977 124.245 136.023 124.658 134.133C125.072 132.244 125.868 130.459 126.997 128.889C128.127 127.319 129.566 125.998 131.227 125.005C132.887 124.013 134.733 123.371 136.65 123.12C136.392 106.513 142.507 90.4386 153.738 78.2028C164.97 65.967 180.463 58.5003 197.031 57.3385C213.599 56.1768 229.982 61.4083 242.811 71.957C255.64 82.5058 263.939 97.5696 266 114.05C266.089 114.673 266.139 115.301 266.15 115.93C266.15 116.87 266.55 122.93 266.55 123.06C268.551 123.257 270.487 123.877 272.229 124.88C273.971 125.882 275.48 127.245 276.655 128.876C277.83 130.507 278.644 132.369 279.044 134.34C279.443 136.31 279.418 138.342 278.971 140.302C278.524 142.262 277.664 144.104 276.45 145.706C275.236 147.308 273.694 148.633 271.928 149.593C270.162 150.553 268.211 151.126 266.206 151.274C264.202 151.422 262.188 151.141 260.3 150.45C250.2 178.51 230.67 196.27 200.79 196.27ZM143.65 149.27C156.3 186.32 181.56 194.27 200.8 194.27C229.8 194.27 248.8 176.83 258.61 149.1L258.78 148.72C258.891 148.481 259.092 148.295 259.34 148.203C259.587 148.112 259.86 148.121 260.1 148.23C261.741 148.974 263.527 149.344 265.328 149.314C267.13 149.284 268.902 148.854 270.516 148.054C272.131 147.255 273.548 146.108 274.665 144.694C275.782 143.28 276.571 141.636 276.974 139.88C277.378 138.124 277.386 136.301 276.999 134.541C276.611 132.782 275.838 131.13 274.734 129.706C273.63 128.282 272.224 127.121 270.617 126.308C269.009 125.494 267.241 125.047 265.44 125C265.175 125 264.921 124.895 264.733 124.707C264.546 124.52 264.44 124.265 264.44 124C264.44 123.17 264.44 123.27 264.44 123.11C263.85 114.18 264.16 116.64 263.99 115.11C260.82 82.59 229.71 55.4 193.31 60.18C177.924 62.1823 163.825 69.8123 153.733 81.5978C143.641 93.3832 138.271 108.489 138.66 124C138.661 124.254 138.565 124.498 138.393 124.683C138.22 124.869 137.983 124.982 137.73 125C136.003 125.11 134.319 125.587 132.791 126.399C131.263 127.212 129.926 128.341 128.87 129.712C127.813 131.083 127.061 132.663 126.664 134.348C126.268 136.032 126.235 137.782 126.569 139.481C126.903 141.179 127.595 142.786 128.6 144.195C129.605 145.605 130.899 146.783 132.395 147.652C133.892 148.521 135.557 149.06 137.279 149.234C139.001 149.408 140.74 149.212 142.38 148.66C142.506 148.618 142.64 148.602 142.772 148.612C142.904 148.622 143.033 148.658 143.152 148.719C143.27 148.779 143.375 148.863 143.461 148.964C143.546 149.066 143.611 149.183 143.65 149.31V149.27Z" fill="#001933"/>
<path d="M175.4 116.485C180.266 116.485 185.041 117.795 189.226 120.277C189.314 120.354 189.374 120.46 189.392 120.577C189.41 120.702 189.382 120.829 189.312 120.933C189.241 121.037 189.133 121.112 189.01 121.14C188.918 121.161 188.822 121.156 188.734 121.125L188.649 121.086C184.631 118.661 180.025 117.384 175.331 117.395C170.634 117.406 166.029 118.705 162.02 121.153L162.009 121.16C161.937 121.207 161.855 121.233 161.771 121.239C161.662 121.238 161.557 121.204 161.471 121.138C161.383 121.071 161.319 120.976 161.29 120.869C161.261 120.763 161.27 120.649 161.312 120.547C161.355 120.445 161.431 120.36 161.527 120.305L161.536 120.3C165.73 117.803 170.52 116.485 175.4 116.485Z" fill="#001933" stroke="#001933"/>
<path d="M177.1 130.25C180.601 130.25 183.439 133.088 183.439 136.59C183.439 140.091 180.601 142.93 177.1 142.93C173.598 142.93 170.76 140.091 170.76 136.59C170.76 133.088 173.598 130.25 177.1 130.25Z" fill="#001933" stroke="#001933"/>
<path d="M220.388 116.682C224.434 115.061 228.87 114.676 233.136 115.576C237.402 116.476 241.306 118.62 244.353 121.739V121.74C244.421 121.81 244.468 121.899 244.486 121.996C244.505 122.092 244.495 122.192 244.457 122.283C244.419 122.374 244.355 122.451 244.273 122.506C244.192 122.56 244.097 122.588 244 122.589C243.935 122.588 243.87 122.576 243.81 122.551C243.749 122.525 243.693 122.488 243.646 122.44H243.647C240.738 119.464 237.011 117.416 232.938 116.557C229.119 115.752 225.156 116.026 221.492 117.34L220.764 117.616C220.703 117.64 220.638 117.652 220.572 117.651C220.507 117.65 220.442 117.636 220.382 117.61C220.322 117.584 220.266 117.547 220.221 117.5C220.175 117.453 220.139 117.397 220.114 117.336L220.113 117.333C220.064 117.21 220.065 117.073 220.116 116.951C220.168 116.829 220.265 116.732 220.388 116.682Z" fill="#001933" stroke="#001933"/>
<path d="M230.6 129.26C234.101 129.26 236.939 132.098 236.939 135.6C236.939 139.101 234.101 141.94 230.6 141.94C227.098 141.94 224.26 139.101 224.26 135.6C224.26 132.099 227.098 129.26 230.6 129.26Z" fill="#001933" stroke="#001933"/>
<path d="M205.407 131.759C205.473 131.76 205.537 131.774 205.598 131.8C205.658 131.826 205.713 131.863 205.759 131.91C205.782 131.934 205.803 131.96 205.82 131.988L205.865 132.075L205.867 132.079C206.864 134.517 208.439 138.633 209.55 142.46C210.106 144.376 210.54 146.202 210.73 147.701C210.826 148.452 210.858 149.105 210.819 149.639C210.78 150.181 210.669 150.551 210.521 150.776C210.168 151.314 209.564 151.742 208.752 152.067C207.943 152.39 206.967 152.597 205.93 152.716C203.855 152.955 201.612 152.841 200.137 152.702H200.135C200.069 152.697 200.005 152.677 199.946 152.647C199.888 152.616 199.835 152.574 199.793 152.523C199.751 152.472 199.719 152.413 199.699 152.35C199.68 152.287 199.672 152.22 199.678 152.155C199.684 152.089 199.703 152.025 199.733 151.966C199.764 151.908 199.806 151.855 199.856 151.813C199.907 151.77 199.966 151.739 200.029 151.719C200.092 151.699 200.158 151.692 200.224 151.698C201.807 151.845 203.87 151.869 205.657 151.684C206.55 151.592 207.393 151.445 208.08 151.228C208.739 151.02 209.366 150.714 209.688 150.225C209.882 149.929 209.933 149.521 209.937 149.126C209.94 148.707 209.89 148.199 209.798 147.628C209.614 146.484 209.256 145.025 208.782 143.393C207.952 140.534 206.757 137.106 205.483 133.834L204.934 132.444C204.91 132.383 204.899 132.318 204.899 132.253C204.9 132.187 204.913 132.122 204.939 132.062C204.965 132.001 205.004 131.947 205.051 131.901C205.098 131.855 205.154 131.819 205.215 131.794C205.276 131.77 205.342 131.758 205.407 131.759Z" fill="#001933" stroke="#001933"/>
<path d="M157.993 153.642C158.029 152.163 158.983 150.781 160.631 149.762C162.274 148.746 164.555 148.133 167.081 148.196C169.606 148.259 171.853 148.984 173.444 150.08C175.039 151.179 175.924 152.607 175.887 154.086C175.851 155.565 174.896 156.948 173.249 157.966C171.605 158.982 169.325 159.595 166.8 159.532C164.274 159.47 162.026 158.744 160.435 157.648C158.84 156.549 157.956 155.122 157.993 153.642Z" fill="#007BFF" stroke="#007BFF"/>
<path d="M226.144 152.879C226.173 151.399 227.121 150.012 228.764 148.985C230.403 147.961 232.681 147.336 235.208 147.387C237.734 147.437 239.985 148.153 241.582 149.241C243.183 150.333 244.073 151.757 244.044 153.237C244.014 154.716 243.067 156.103 241.424 157.129C239.785 158.153 237.507 158.778 234.981 158.727C232.454 158.677 230.203 157.961 228.606 156.873C227.006 155.781 226.114 154.358 226.144 152.879Z" fill="#007BFF" stroke="#007BFF" stroke-width="1.0002"/>
<path d="M221.718 44.299C233.708 44.4438 246.829 48.8748 255.555 61.879C264.421 75.0926 270.467 80.8824 274.277 84.8888C276.182 86.8913 277.484 88.405 278.322 90.1583C279.155 91.9 279.55 93.9194 279.55 96.9503C279.55 103.016 278.084 106.86 276.649 109.174C275.931 110.333 275.218 111.114 274.69 111.602C274.427 111.845 274.209 112.016 274.062 112.123C273.988 112.177 273.931 112.215 273.895 112.238C273.876 112.25 273.863 112.259 273.855 112.264C273.852 112.266 273.849 112.267 273.848 112.268L273.628 112.396L273.603 112.65L272.307 125.328C272.293 125.322 272.28 125.315 272.267 125.308C271.842 125.094 271.263 124.812 270.649 124.543C270.038 124.275 269.379 124.014 268.798 123.845C268.508 123.761 268.223 123.696 267.966 123.667C267.752 123.643 267.511 123.64 267.291 123.703L267.198 123.734C267.009 123.808 266.871 123.953 266.781 124.064C266.682 124.186 266.586 124.335 266.494 124.493C266.311 124.809 266.106 125.226 265.884 125.678C265.431 126.599 264.878 127.72 264.172 128.737C263.463 129.758 262.63 130.626 261.644 131.081C260.682 131.525 259.523 131.601 258.077 130.944C257.421 130.646 256.808 130.028 256.203 129.081C255.601 128.139 255.038 126.92 254.457 125.489C253.31 122.664 252.092 118.982 250.42 115.3C247.053 107.884 241.708 100.112 230.708 97.6622C225.406 96.4811 221.707 94.2954 219.052 91.5919C216.392 88.8841 214.752 85.6296 213.61 82.2726C212.466 78.9071 211.834 75.4755 211.162 72.3898C210.499 69.342 209.789 66.5798 208.457 64.7101C205.762 60.9269 201.624 60.7186 198.297 61.3907C196.626 61.7282 195.124 62.2927 194.043 62.7697C193.501 63.0086 193.062 63.2266 192.758 63.3859C192.606 63.4654 192.487 63.5298 192.405 63.5753H192.403C188.766 63.4122 185.169 64.3996 182.125 66.4025L182.118 66.4064L182.111 66.4113C176.995 70.0231 176.089 75.9088 175.2 81.6925C174.3 87.5531 173.417 93.3529 168.667 97.3781C165.54 100.025 162.778 100.177 160.009 100.354C157.209 100.532 154.384 100.739 151.49 103.733C149.294 106.002 148.047 108.92 147.313 111.985C146.581 115.05 146.354 118.297 146.222 121.25C146.088 124.23 146.051 126.867 145.714 128.809C145.545 129.777 145.311 130.513 144.989 131.01C144.683 131.483 144.309 131.728 143.807 131.772C142.373 131.897 141.326 131.563 140.517 130.999C139.695 130.427 139.084 129.594 138.574 128.668C138.057 127.727 137.684 126.77 137.275 125.895C137.077 125.47 136.871 125.066 136.641 124.729C136.412 124.394 136.136 124.087 135.785 123.9C134.58 123.255 133.393 123.573 132.572 123.993C132.299 124.133 132.057 124.289 131.855 124.434C130.212 116.937 130.536 109.602 131.296 104.07C131.689 101.21 132.198 98.8369 132.607 97.1808C132.812 96.3528 132.993 95.704 133.121 95.2638C133.185 95.044 133.236 94.8761 133.271 94.7638C133.289 94.7076 133.303 94.6647 133.312 94.6368C133.316 94.6233 133.319 94.6132 133.321 94.6066C133.322 94.6032 133.324 94.6003 133.324 94.5988V94.5968L133.466 94.171L133.057 93.9855C131.223 93.1504 129.615 91.8908 128.363 90.3116C127.112 88.7325 126.254 86.8784 125.86 84.9025L125.858 84.8956L125.857 84.8878L125.802 84.5822C125.704 83.8498 125.822 82.995 126.163 82.0236C126.552 80.9157 127.218 79.6873 128.123 78.3683C129.934 75.7297 132.662 72.7866 135.897 69.7999C142.365 63.8291 150.791 57.7452 157.753 53.6515C164.602 49.6244 173.746 49.3056 181.249 50.0255C184.989 50.3843 188.297 50.998 190.669 51.5226C191.855 51.7848 192.806 52.0246 193.46 52.1984C193.787 52.2852 194.04 52.3559 194.21 52.4044C194.295 52.4286 194.36 52.4475 194.402 52.4601C194.424 52.4663 194.44 52.4706 194.45 52.4738C194.455 52.4753 194.459 52.4769 194.462 52.4777L194.464 52.4786H194.465L194.755 52.5665L194.967 52.3507C196.929 50.352 200.595 48.2967 205.312 46.7599C210.017 45.2274 215.721 44.2265 221.718 44.299Z" fill="#001933" stroke="#001933"/>
<path d="M137.599 131.787C137.698 131.775 137.799 131.793 137.888 131.84C137.977 131.886 138.05 131.958 138.098 132.047C138.145 132.135 138.165 132.236 138.154 132.336C138.144 132.436 138.103 132.53 138.038 132.606C137.469 133.27 136.512 134.591 135.808 136.086C135.115 137.555 134.603 139.328 135.128 140.816C135.723 142.517 137.585 143.536 140.271 144.022H140.271C140.338 144.034 140.401 144.059 140.458 144.096C140.515 144.132 140.565 144.18 140.604 144.235C140.642 144.291 140.669 144.354 140.684 144.42C140.698 144.486 140.699 144.554 140.688 144.621C140.676 144.688 140.651 144.752 140.614 144.808C140.578 144.865 140.529 144.915 140.474 144.954C140.418 144.993 140.355 145.02 140.289 145.034C140.254 145.042 140.219 145.045 140.184 145.045L140.089 145.028C136.647 144.404 134.794 142.962 134.165 141.117C133.525 139.242 134.073 136.744 135.921 133.849L136.492 132.955L135.438 133.084L130.299 133.714C130.166 133.729 130.031 133.692 129.926 133.609C129.82 133.526 129.752 133.404 129.736 133.27C129.72 133.137 129.758 133.002 129.841 132.896C129.924 132.791 130.045 132.723 130.179 132.707L130.181 132.706L137.598 131.786L137.599 131.787Z" fill="#001933" stroke="#001933"/>
<path d="M265.164 133.407V133.408L275.062 134.327V134.328C275.193 134.341 275.314 134.405 275.398 134.506C275.482 134.606 275.523 134.736 275.512 134.867C275.5 134.999 275.437 135.12 275.336 135.206C275.236 135.29 275.106 135.331 274.976 135.321L267.276 134.612L266.339 134.526L266.792 135.35C267.641 136.897 267.909 138.511 267.45 140.093C266.989 141.682 265.775 143.31 263.521 144.836H263.52L263.514 144.841C263.438 144.893 263.348 144.921 263.256 144.92H263.249C263.142 144.92 263.037 144.886 262.951 144.822C262.865 144.758 262.801 144.669 262.77 144.566C262.738 144.464 262.741 144.354 262.776 144.253C262.812 144.153 262.878 144.065 262.966 144.006L262.967 144.007C265.166 142.547 266.466 140.853 266.647 138.999L266.65 138.977V138.957C266.662 138.091 266.503 137.231 266.182 136.427C265.86 135.623 265.383 134.89 264.778 134.27L264.771 134.263L264.72 134.205C264.674 134.143 264.643 134.072 264.629 133.996C264.61 133.894 264.623 133.79 264.666 133.696C264.709 133.602 264.781 133.525 264.87 133.473C264.959 133.422 265.062 133.398 265.164 133.407Z" fill="#001933" stroke="#001933"/>
<path d="M211.76 327.97C211.888 327.933 212.026 327.948 212.144 328.013C212.261 328.077 212.347 328.186 212.385 328.314C212.422 328.443 212.407 328.581 212.343 328.698C212.294 328.786 212.221 328.858 212.133 328.903L212.041 328.939C205.56 330.808 203.784 337.077 203.704 337.327L203.7 337.339L203.697 337.351C203.67 337.453 203.61 337.544 203.527 337.61C203.445 337.676 203.345 337.714 203.239 337.72C203.162 337.722 203.086 337.707 203.016 337.675C202.945 337.642 202.883 337.592 202.834 337.531C202.785 337.47 202.752 337.398 202.736 337.321C202.721 337.245 202.723 337.165 202.743 337.09V337.089C202.817 336.81 204.725 330.001 211.759 327.971L211.76 327.97Z" fill="#001933" stroke="#001933"/>
<path d="M187.851 328.48C187.983 328.48 188.11 328.533 188.204 328.626C188.298 328.72 188.351 328.847 188.351 328.98C188.351 328.977 188.348 329.127 188.35 329.358C188.351 329.594 188.357 329.931 188.372 330.344C188.402 331.171 188.471 332.309 188.628 333.572C188.938 336.074 189.6 339.158 191.048 341.263L191.053 341.27C191.105 341.344 191.137 341.43 191.145 341.52C191.152 341.61 191.135 341.701 191.095 341.782C191.055 341.863 190.993 341.932 190.917 341.981C190.843 342.029 190.757 342.055 190.669 342.059C190.59 342.059 190.512 342.041 190.441 342.004C190.37 341.967 190.309 341.913 190.263 341.847C188.771 339.667 188.033 336.562 187.676 333.906C187.321 331.266 187.351 329.147 187.351 328.98C187.351 328.847 187.403 328.72 187.497 328.626C187.591 328.533 187.718 328.48 187.851 328.48Z" fill="#001933" stroke="#001933"/>
<path d="M198.802 290.77C198.869 290.783 198.933 290.81 198.989 290.848C199.046 290.886 199.095 290.935 199.133 290.992C199.171 291.048 199.197 291.112 199.21 291.179C199.223 291.246 199.223 291.314 199.21 291.38C197.393 300.268 196.525 309.324 196.62 318.395C196.619 318.526 196.566 318.651 196.474 318.744C196.38 318.837 196.253 318.89 196.12 318.89H196.101C196.034 318.893 195.968 318.882 195.905 318.859C195.843 318.836 195.786 318.8 195.737 318.754C195.689 318.709 195.65 318.654 195.623 318.593C195.61 318.563 195.599 318.532 195.592 318.499L195.58 318.401C195.485 309.26 196.36 300.136 198.19 291.18V291.178C198.204 291.111 198.231 291.047 198.269 290.991C198.307 290.934 198.355 290.885 198.412 290.847C198.469 290.809 198.533 290.783 198.6 290.77C198.666 290.757 198.735 290.757 198.802 290.77Z" fill="#001933" stroke="#001933"/>
<path d="M206.253 287.086C206.389 287.119 206.507 287.204 206.58 287.324C206.653 287.443 206.676 287.587 206.644 287.723C204.576 296.092 203.816 304.731 204.391 313.333V313.335C204.396 313.405 204.386 313.476 204.362 313.542C204.338 313.608 204.3 313.669 204.251 313.719C204.202 313.77 204.143 313.809 204.077 313.835C204.012 313.861 203.941 313.873 203.871 313.87H203.849C203.722 313.871 203.6 313.822 203.507 313.736C203.437 313.671 203.388 313.589 203.364 313.498L203.349 313.405C202.756 304.698 203.521 295.952 205.615 287.48L205.616 287.477C205.649 287.341 205.734 287.223 205.854 287.15C205.973 287.077 206.117 287.054 206.253 287.086Z" fill="#001933" stroke="#001933"/>
<path d="M200.183 277.04C200.314 277.041 200.441 277.093 200.534 277.187C200.628 277.28 200.681 277.407 200.681 277.54C200.681 277.673 200.628 277.8 200.534 277.894C200.464 277.964 200.374 278.011 200.278 278.03L200.181 278.04H200.17C195.93 278.131 191.067 278.773 187.22 279.389C185.294 279.697 183.617 280 182.395 280.226C181.782 280.339 181.287 280.431 180.929 280.496C180.75 280.529 180.608 280.553 180.506 280.569C180.383 280.589 180.36 280.59 180.381 280.59H180.355L180.331 280.593C180.198 280.606 180.065 280.565 179.961 280.48C179.857 280.396 179.792 280.274 179.778 280.141C179.765 280.007 179.805 279.874 179.89 279.771C179.974 279.667 180.097 279.601 180.23 279.588L180.256 279.585L180.28 279.58C180.775 279.479 192.165 277.2 200.183 277.04Z" fill="#001933" stroke="#001933"/>
<path d="M183.977 270.385C189.094 269.446 195.331 268.655 200.244 269.108V269.107C200.375 269.12 200.496 269.185 200.58 269.287C200.664 269.389 200.705 269.52 200.692 269.652L200.691 269.657C200.68 269.789 200.617 269.911 200.516 269.996C200.415 270.081 200.285 270.122 200.154 270.111C194.981 269.645 188.739 270.504 183.741 271.469C181.236 271.952 179.033 272.465 177.418 272.855C176.618 273.049 175.942 273.217 175.475 273.331C175.236 273.389 175.048 273.434 174.91 273.464C174.841 273.479 174.789 273.489 174.753 273.495C174.739 273.497 174.729 273.499 174.724 273.5H174.708L174.676 273.504C174.61 273.512 174.542 273.508 174.478 273.491C174.413 273.474 174.353 273.444 174.3 273.403C174.247 273.363 174.202 273.312 174.169 273.254C174.136 273.196 174.114 273.132 174.105 273.065C174.097 272.999 174.102 272.932 174.119 272.868C174.137 272.804 174.166 272.742 174.207 272.689C174.248 272.637 174.299 272.593 174.356 272.559C174.414 272.526 174.478 272.505 174.544 272.496L174.58 272.491L174.615 272.481C174.925 272.394 178.869 271.321 183.977 270.385Z" fill="#001933" stroke="#001933"/>
<path d="M176.682 266.102C177.324 265.983 191.58 263.515 200.699 263.776L201.565 263.809C201.631 263.812 201.696 263.829 201.755 263.857C201.814 263.885 201.868 263.925 201.912 263.974C201.956 264.023 201.991 264.08 202.013 264.142C202.035 264.204 202.044 264.27 202.041 264.335C202.038 264.401 202.021 264.465 201.993 264.525C201.965 264.584 201.926 264.638 201.877 264.682C201.828 264.726 201.771 264.76 201.709 264.782C201.647 264.804 201.581 264.814 201.516 264.811H201.515C197.008 264.589 190.864 265.156 185.851 265.778C181.021 266.376 177.201 267.03 176.839 267.095C176.709 267.114 176.577 267.081 176.472 267.003C176.366 266.926 176.295 266.81 176.274 266.68L176.273 266.677C176.252 266.547 176.282 266.414 176.357 266.306C176.433 266.198 176.549 266.125 176.679 266.102H176.682Z" fill="#001933" stroke="#001933"/>
<path d="M406.305 241.564L410.519 237.349C411.593 236.275 411.593 234.534 410.519 233.46L381.641 204.582C380.567 203.508 378.826 203.508 377.752 204.582L373.538 208.796C372.464 209.87 372.464 211.611 373.538 212.685L402.416 241.564C403.49 242.638 405.231 242.638 406.305 241.564Z" fill="white"/>
<path d="M373.536 237.345L377.751 241.559C378.825 242.633 380.566 242.633 381.64 241.559L410.518 212.681C411.592 211.607 411.592 209.866 410.518 208.792L406.304 204.578C405.23 203.504 403.489 203.504 402.415 204.578L373.536 233.456C372.462 234.53 372.462 236.271 373.536 237.345Z" fill="white"/>
<path d="M185.216 162.136C185.337 162.082 185.475 162.078 185.599 162.125V162.126L205.449 169.826V169.826C205.556 169.868 205.645 169.947 205.7 170.048C205.756 170.15 205.775 170.268 205.754 170.382C205.733 170.496 205.672 170.599 205.583 170.673C205.516 170.729 205.437 170.766 205.353 170.782L205.267 170.79C205.254 170.79 205.242 170.791 205.23 170.791C205.212 170.786 205.183 170.775 205.141 170.761C204.903 170.681 204.385 170.487 203.197 170.03C200.831 169.119 195.847 167.179 185.241 163.064H185.239C185.115 163.016 185.015 162.921 184.961 162.799C184.907 162.677 184.903 162.539 184.951 162.414C184.999 162.29 185.094 162.19 185.216 162.136Z" fill="#001933" stroke="#001933"/>
<path d="M148.15 95.26C164.3 91.26 167.33 72.2 167.36 72.01C167.379 71.8787 167.424 71.7524 167.492 71.6383C167.56 71.5243 167.649 71.4247 167.756 71.3454C167.862 71.266 167.983 71.2083 168.111 71.1756C168.24 71.143 168.374 71.1359 168.505 71.155C168.636 71.174 168.763 71.2187 168.877 71.2866C168.991 71.3544 169.09 71.4441 169.17 71.5504C169.249 71.6567 169.307 71.7777 169.34 71.9063C169.372 72.0349 169.379 72.1687 169.36 72.3C169.36 72.51 166.11 92.87 148.65 97.2C148.393 97.2663 148.12 97.2277 147.891 97.0927C147.662 96.9576 147.496 96.7373 147.43 96.48C147.364 96.2227 147.402 95.9497 147.537 95.7209C147.672 95.4921 147.893 95.3263 148.15 95.26Z" fill="white"/>
<path d="M134 89.41C132.658 89.4107 131.319 89.2868 130 89.04C129.735 88.9896 129.5 88.8359 129.348 88.6127C129.196 88.3896 129.139 88.1152 129.19 87.85C129.24 87.5848 129.394 87.3504 129.617 87.1985C129.84 87.0466 130.115 86.9896 130.38 87.04C142.79 89.4 155.02 78.21 155.15 78.1C155.347 77.9404 155.597 77.8615 155.849 77.8791C156.102 77.8968 156.339 78.0097 156.511 78.1951C156.684 78.3805 156.78 78.6245 156.78 78.8779C156.779 79.1312 156.683 79.375 156.51 79.56C156.06 80 145.83 89.41 134 89.41Z" fill="white"/>
<path d="M258.1 111.25C257.879 111.26 257.662 111.197 257.481 111.07C257.3 110.944 257.166 110.761 257.1 110.55C257.1 110.38 251.59 93.68 237.17 90.39C221.38 86.78 221.55 71.22 221.55 71.07C221.55 70.8048 221.655 70.5504 221.843 70.3629C222.03 70.1754 222.285 70.07 222.55 70.07C222.815 70.07 223.069 70.1754 223.257 70.3629C223.445 70.5504 223.55 70.8048 223.55 71.07C223.55 71.64 223.44 85.16 237.61 88.4C253.17 91.95 258.78 109.18 259.01 109.91C259.064 110.059 259.082 110.218 259.062 110.375C259.042 110.532 258.986 110.682 258.897 110.812C258.808 110.943 258.69 111.051 258.551 111.127C258.412 111.203 258.258 111.245 258.1 111.25Z" fill="white"/>
<path d="M247.76 86C243.885 84.0388 240.217 81.6937 236.81 79C236.635 78.8246 236.532 78.5904 236.52 78.343C236.508 78.0956 236.588 77.8524 236.745 77.6607C236.901 77.469 237.124 77.3423 237.369 77.3052C237.614 77.2681 237.864 77.3233 238.07 77.46C238.25 77.6 255.65 91.65 270.07 88.46C270.198 88.4304 270.331 88.4263 270.461 88.4479C270.59 88.4696 270.714 88.5166 270.826 88.5862C270.937 88.6559 271.034 88.7468 271.11 88.8539C271.187 88.9609 271.241 89.0819 271.27 89.21C271.3 89.3387 271.304 89.472 271.281 89.6022C271.259 89.7323 271.211 89.8568 271.14 89.9684C271.07 90.0799 270.978 90.1764 270.87 90.2522C270.761 90.328 270.639 90.3816 270.51 90.41C263 92.07 254.64 89.49 247.76 86Z" fill="white"/>
<path d="M118.44 314.37C118.304 314.37 118.169 314.343 118.043 314.289C117.918 314.235 117.805 314.156 117.711 314.056C117.617 313.957 117.545 313.839 117.498 313.711C117.452 313.583 117.432 313.446 117.44 313.31L121.33 250.53C121.338 250.398 121.372 250.268 121.43 250.149C121.488 250.03 121.569 249.924 121.669 249.836C121.768 249.749 121.884 249.682 122.01 249.64C122.135 249.597 122.268 249.58 122.4 249.59C122.664 249.608 122.91 249.73 123.084 249.928C123.258 250.127 123.347 250.386 123.33 250.65L119.44 313.43C119.425 313.685 119.313 313.924 119.127 314.099C118.941 314.273 118.695 314.37 118.44 314.37Z" fill="white"/>
<path d="M268.07 270.51C267.805 270.51 267.551 270.405 267.363 270.217C267.176 270.03 267.07 269.775 267.07 269.51L266.55 253.18C266.542 252.915 266.64 252.657 266.822 252.464C267.004 252.271 267.255 252.158 267.52 252.15C267.785 252.142 268.043 252.24 268.236 252.422C268.429 252.604 268.542 252.855 268.55 253.12L269.07 269.45C269.078 269.586 269.059 269.723 269.012 269.851C268.966 269.979 268.893 270.097 268.799 270.196C268.706 270.296 268.593 270.375 268.467 270.429C268.342 270.483 268.207 270.51 268.07 270.51Z" fill="white"/>
<path d="M190 469.19C189.752 469.192 189.513 469.101 189.329 468.937C189.144 468.773 189.027 468.546 189 468.3L187 449.64C186.98 449.468 187.006 449.293 187.074 449.133C187.142 448.974 187.251 448.835 187.39 448.73L203.24 436.84C203.345 436.761 203.464 436.704 203.591 436.671C203.719 436.639 203.851 436.631 203.981 436.65C204.111 436.669 204.236 436.713 204.349 436.78C204.462 436.846 204.561 436.935 204.64 437.04C204.799 437.252 204.867 437.519 204.829 437.781C204.792 438.044 204.652 438.281 204.44 438.44L189.09 450L191 468.08C191.015 468.22 191.001 468.362 190.957 468.497C190.914 468.631 190.843 468.755 190.749 468.859C190.654 468.964 190.539 469.048 190.409 469.105C190.28 469.162 190.141 469.191 190 469.19Z" fill="white"/>
</g>
<defs>
<clipPath id="clip0_9405_46292">
<rect width="512" height="512" fill="white"/>
</clipPath>
</defs>
</svg>
