<svg width="512" height="512" viewBox="0 0 512 512" fill="none" xmlns="http://www.w3.org/2000/svg">
<g clip-path="url(#clip0_9405_46202)">
<g opacity="0.2">
<path d="M103.599 114.934C181.509 37.0241 307.825 37.0241 385.735 114.934C463.644 192.843 463.644 319.16 385.735 397.069C307.825 474.979 181.509 474.979 103.599 397.069C25.6895 319.16 25.6895 192.843 103.599 114.934Z" fill="#007BFF" stroke="#007BFF"/>
</g>
<path d="M48.6697 289.96H244.11C250.638 289.96 255.93 284.668 255.93 278.14L255.93 126.62C255.93 120.092 250.638 114.8 244.11 114.8L48.6697 114.8C42.1417 114.8 36.8497 120.092 36.8497 126.62L36.8497 278.14C36.8497 284.668 42.1417 289.96 48.6697 289.96Z" fill="white"/>
<path d="M244.1 291H48.6598C45.2614 290.995 42.0036 289.642 39.6006 287.239C37.1975 284.836 35.8451 281.578 35.8398 278.18V126.62C35.8451 123.222 37.1975 119.964 39.6006 117.561C42.0036 115.158 45.2614 113.805 48.6598 113.8H244.1C247.499 113.803 250.758 115.154 253.162 117.558C255.566 119.961 256.917 123.221 256.92 126.62V278.14C256.924 279.827 256.595 281.497 255.953 283.057C255.31 284.616 254.367 286.034 253.176 287.228C251.985 288.422 250.571 289.37 249.014 290.018C247.456 290.665 245.786 290.999 244.1 291ZM48.6598 115.8C45.7918 115.805 43.0428 116.947 41.0148 118.975C38.9868 121.003 37.8451 123.752 37.8398 126.62V278.14C37.8359 279.564 38.1128 280.975 38.6546 282.291C39.1965 283.608 39.9927 284.805 40.9977 285.814C42.0027 286.823 43.1968 287.623 44.5115 288.17C45.8263 288.717 47.2359 288.999 48.6598 289H244.1C246.969 288.997 249.719 287.857 251.748 285.828C253.776 283.799 254.917 281.049 254.92 278.18V126.62C254.917 123.751 253.776 121.001 251.748 118.972C249.719 116.943 246.969 115.803 244.1 115.8H48.6598Z" fill="#001933"/>
<path d="M107.99 122.43C110.906 122.43 113.27 124.794 113.27 127.71C113.269 130.626 110.906 132.989 107.99 132.99C105.074 132.99 102.71 130.626 102.71 127.71C102.71 124.794 105.074 122.43 107.99 122.43Z" fill="#001933" stroke="#001933"/>
<path d="M81.5801 122.43C84.496 122.43 86.8594 124.794 86.8594 127.71C86.8592 130.626 84.4959 132.989 81.5801 132.99C78.6641 132.99 76.3 130.626 76.2998 127.71C76.2998 124.794 78.664 122.43 81.5801 122.43Z" fill="#001933" stroke="#001933"/>
<path d="M55.1807 122.43C58.0966 122.43 60.46 124.794 60.46 127.71C60.4598 130.626 58.0965 132.989 55.1807 132.99C52.2647 132.99 49.9005 130.626 49.9004 127.71C49.9004 124.794 52.2646 122.43 55.1807 122.43Z" fill="#001933" stroke="#001933"/>
<path d="M83.4203 217.52H209.35C213.366 217.52 217.217 215.925 220.056 213.086C222.895 210.246 224.49 206.395 224.49 202.38C224.49 198.365 222.895 194.514 220.056 191.674C217.217 188.835 213.366 187.24 209.35 187.24H83.4203C79.4049 187.24 75.554 188.835 72.7147 191.674C69.8754 194.514 68.2803 198.365 68.2803 202.38C68.2803 206.395 69.8754 210.246 72.7147 213.086C75.554 215.925 79.4049 217.52 83.4203 217.52Z" fill="white"/>
<path d="M209.35 218.52H83.4203C79.1397 218.52 75.0344 216.82 72.0076 213.793C68.9807 210.766 67.2803 206.661 67.2803 202.38C67.2803 198.099 68.9807 193.994 72.0076 190.967C75.0344 187.94 79.1397 186.24 83.4203 186.24H209.35C213.631 186.24 217.736 187.94 220.763 190.967C223.79 193.994 225.49 198.099 225.49 202.38C225.49 206.661 223.79 210.766 220.763 213.793C217.736 216.82 213.631 218.52 209.35 218.52ZM83.4203 188.24C79.6701 188.24 76.0735 189.73 73.4218 192.382C70.77 195.033 69.2803 198.63 69.2803 202.38C69.2803 206.13 70.77 209.727 73.4218 212.378C76.0735 215.03 79.6701 216.52 83.4203 216.52H209.35C213.1 216.52 216.697 215.03 219.349 212.378C222.001 209.727 223.49 206.13 223.49 202.38C223.49 198.63 222.001 195.033 219.349 192.382C216.697 189.73 213.1 188.24 209.35 188.24H83.4203Z" fill="#001933"/>
<path d="M88.0117 191.622C89.7561 191.276 91.5636 191.456 93.2061 192.138C94.8485 192.819 96.2526 193.972 97.2393 195.452C98.2259 196.931 98.7518 198.671 98.75 200.449C98.7475 202.832 97.799 205.117 96.1133 206.801C94.4277 208.484 92.1423 209.43 89.7598 209.43C87.9813 209.43 86.2423 208.902 84.7637 207.914C83.2853 206.926 82.1332 205.521 81.4531 203.878C80.7731 202.235 80.5957 200.426 80.9434 198.682C81.291 196.938 82.1481 195.337 83.4062 194.08C84.6645 192.823 86.2672 191.968 88.0117 191.622ZM94.749 200.412C94.7285 199.102 94.1941 197.853 93.2607 196.934C92.4467 196.133 91.3864 195.639 90.2598 195.525V195.43H89.7598C88.7728 195.43 87.8079 195.723 86.9873 196.271C86.1668 196.82 85.5271 197.599 85.1494 198.511C84.7718 199.422 84.6727 200.425 84.8652 201.393C85.0578 202.361 85.5336 203.25 86.2314 203.948C86.9293 204.646 87.8182 205.122 88.7861 205.314C89.754 205.507 90.7572 205.408 91.6689 205.03C92.5807 204.652 93.3599 204.013 93.9082 203.192C94.4565 202.372 94.75 201.407 94.75 200.42L94.749 200.412Z" fill="#001933" stroke="#001933"/>
<path d="M94.3379 204.115C94.8197 204.119 95.2832 204.296 95.6445 204.614L101.622 211.508H101.623C101.873 211.795 102.034 212.148 102.091 212.524C102.147 212.901 102.096 213.285 101.941 213.633C101.787 213.981 101.536 214.277 101.219 214.487C100.902 214.697 100.533 214.812 100.153 214.819C99.8687 214.819 99.5872 214.759 99.3281 214.642C99.1327 214.553 98.9534 214.433 98.7969 214.287L98.6475 214.133L92.6719 207.241C92.3989 206.841 92.2801 206.355 92.3389 205.873C92.3984 205.386 92.6354 204.937 93.0039 204.613C93.3724 204.289 93.8473 204.112 94.3379 204.115Z" fill="#001933" stroke="#001933"/>
<path d="M182 128.26L180.16 149.8C180.138 150.09 180.018 150.363 179.819 150.575C179.621 150.787 179.355 150.924 179.067 150.964C178.78 151.004 178.487 150.944 178.238 150.794C177.989 150.644 177.799 150.413 177.7 150.14L170.61 131.51C161.893 132.454 153.139 130.093 146.08 124.892C139.021 119.691 134.171 112.03 132.489 103.425C130.808 94.8193 132.418 85.8963 137.001 78.421C141.583 70.9458 148.805 65.4628 157.236 63.057C165.668 60.6511 174.695 61.4976 182.533 65.429C190.37 69.3603 196.447 76.0901 199.56 84.287C202.673 92.4839 202.596 101.551 199.344 109.693C196.092 117.836 189.903 124.462 182 128.26Z" fill="white"/>
<path d="M176.74 150.5L169.91 132.58C160.983 133.353 152.088 130.77 144.965 125.334C137.841 119.898 133.001 112.002 131.39 103.187C129.778 94.3726 131.512 85.274 136.253 77.67C140.993 70.0659 148.399 64.5029 157.022 62.0685C165.646 59.634 174.867 60.503 182.884 64.5056C190.901 68.5083 197.137 75.3568 200.373 83.7125C203.609 92.0683 203.613 101.331 200.383 109.689C197.154 118.047 190.924 124.901 182.91 128.91L181.12 149.91C181.07 150.419 180.85 150.897 180.495 151.265C180.14 151.634 179.671 151.872 179.164 151.94C178.656 152.008 178.141 151.903 177.701 151.642C177.261 151.38 176.923 150.978 176.74 150.5ZM170.58 130.5C170.781 130.501 170.978 130.562 171.144 130.676C171.31 130.79 171.437 130.952 171.51 131.14L178.6 149.78C178.621 149.84 178.662 149.891 178.718 149.922C178.773 149.953 178.838 149.963 178.9 149.95C178.965 149.947 179.026 149.92 179.07 149.873C179.115 149.827 179.14 149.765 179.14 149.7L181 128.17C181.015 127.998 181.075 127.833 181.173 127.691C181.271 127.549 181.405 127.435 181.56 127.36C189.092 123.737 195.026 117.466 198.228 109.746C201.431 102.025 201.677 93.3956 198.92 85.505C196.163 77.6145 190.596 71.0159 183.282 66.9696C175.968 62.9233 167.421 61.7128 159.271 63.5692C151.121 65.4257 143.941 70.219 139.102 77.0338C134.262 83.8485 132.102 92.2072 133.035 100.513C133.967 108.82 137.927 116.491 144.157 122.063C150.387 127.635 158.452 130.717 166.81 130.72C168.069 130.715 169.328 130.645 170.58 130.51V130.5Z" fill="#001933"/>
<path d="M150.949 84.7001L155.051 80.5991C155.656 79.9938 156.638 79.9932 157.243 80.5984L182.65 106.005C183.255 106.611 183.254 107.592 182.649 108.198L178.548 112.299C177.943 112.904 176.962 112.904 176.356 112.299L150.949 86.8919C150.344 86.2866 150.344 85.3054 150.949 84.7001Z" fill="#001933" stroke="#001933"/>
<path d="M178.55 80.6094L182.651 84.7105C183.256 85.3158 183.257 86.2976 182.652 86.903L157.245 112.31C156.64 112.915 155.658 112.914 155.052 112.309L150.951 108.208C150.346 107.603 150.346 106.622 150.951 106.016L176.358 80.6094C176.964 80.0043 177.945 80.0043 178.55 80.6094Z" fill="#001933" stroke="#001933"/>
<path d="M370.198 256.791L355.188 295.81C355.162 295.815 355.134 295.823 355.104 295.829C354.875 295.879 354.537 295.95 354.098 296.039C353.219 296.217 351.938 296.466 350.328 296.74C347.108 297.29 342.579 297.95 337.341 298.39C326.853 299.27 313.576 299.264 302.298 295.763C296.663 294.013 292.702 291.688 290.202 288.829C287.714 285.984 286.637 282.571 286.839 278.558C287.041 274.528 288.535 269.889 291.205 264.635C293.874 259.384 297.704 253.548 302.549 247.131C312.33 234.177 314.939 221.891 315.093 212.833C315.17 208.307 314.634 204.59 314.077 202.001C313.799 200.706 313.516 199.692 313.301 199C313.23 198.772 313.166 198.579 313.112 198.422L353.923 184.819L370.198 256.791Z" fill="#001933" stroke="#001933"/>
<path d="M346.946 247.347C349.215 247.319 351.041 247.384 352.298 247.456C352.864 247.489 353.315 247.522 353.639 247.55L291.968 455.5H231.017C231.072 455.237 231.145 454.889 231.235 454.461C231.463 453.387 231.798 451.808 232.235 449.785C233.109 445.74 234.385 439.923 235.993 432.835C239.209 418.659 243.752 399.402 249.062 379.077C254.371 358.751 260.446 337.363 266.725 318.921C273.009 300.461 279.479 285.012 285.566 276.521C297.74 259.541 314.892 252.309 329.031 249.323C336.1 247.831 342.407 247.402 346.946 247.347Z" fill="#007BFF" stroke="#007BFF"/>
<path d="M267.08 451.26C270.48 419.98 275.55 382.94 283.31 341.45C293.37 287.62 298.93 274.69 311.52 264.01C319.88 256.92 330.43 251.61 341.86 248.09C344.167 247.394 346.189 245.976 347.629 244.044C349.069 242.112 349.851 239.769 349.86 237.36V208.16H390.8V234.16C390.805 236.855 391.718 239.47 393.39 241.583C395.063 243.697 397.398 245.186 400.02 245.81C411.16 248.54 420.93 253.31 427.9 260.19C448.55 280.59 440.59 318.55 436.36 342.71C432.85 362.78 427.94 368.58 425.02 390.32C422.342 410.609 423.075 431.203 427.19 451.25L267.08 451.26Z" fill="white"/>
<path d="M427.22 452.26C255.38 452.26 266.8 452.45 266.34 451.93C266.246 451.825 266.175 451.701 266.132 451.567C266.089 451.432 266.074 451.29 266.09 451.15C270.09 414.58 275.53 377.6 282.32 341.27C291.44 292.5 296.57 275.38 310.88 263.27C318.96 256.41 329.57 250.84 341.57 247.16C343.68 246.534 345.532 245.244 346.85 243.483C348.169 241.721 348.884 239.581 348.89 237.38V208.18C348.89 207.915 348.996 207.66 349.183 207.473C349.371 207.285 349.625 207.18 349.89 207.18H390.83C391.095 207.18 391.35 207.285 391.537 207.473C391.725 207.66 391.83 207.915 391.83 208.18V234.18C391.835 236.65 392.671 239.047 394.204 240.985C395.737 242.922 397.877 244.287 400.28 244.86C412.06 247.75 421.86 252.86 428.63 259.5C448.86 279.5 442.25 315.33 437.38 342.9C433.83 363.17 428.96 368.74 426.04 390.47C423.378 410.649 424.108 431.132 428.2 451.07C428.228 451.215 428.224 451.364 428.188 451.506C428.151 451.649 428.084 451.782 427.99 451.896C427.897 452.009 427.779 452.101 427.646 452.164C427.513 452.227 427.368 452.26 427.22 452.26ZM268.22 450.26H426C422.074 430.477 421.419 410.185 424.06 390.19C427.06 368.19 431.89 362.66 435.41 342.55C440.12 315.88 446.82 280.28 427.22 260.91C420.71 254.48 411.22 249.59 399.81 246.79C396.968 246.116 394.435 244.504 392.621 242.215C390.807 239.925 389.817 237.091 389.81 234.17V209.17H350.89V237.37C350.885 240 350.032 242.557 348.457 244.663C346.883 246.769 344.671 248.311 342.15 249.06C330.42 252.67 320.05 258.06 312.15 264.78C298.31 276.52 293.29 293.42 284.27 341.64C277.57 377.55 272.16 414.1 268.2 450.26H268.22Z" fill="#001933"/>
<path d="M431.74 156.53C431.12 113.06 389.13 82.13 347.37 94.53C335.748 95.5937 324.825 100.551 316.372 108.599C307.92 116.647 302.433 127.314 300.8 138.87C295.89 173.6 297.08 220.15 336.18 228.17C399.85 241.22 423.84 188.75 423.84 188.75C429.231 178.88 431.954 167.774 431.74 156.53Z" fill="white"/>
<path d="M336 229.12C314.3 224.67 290.41 205.37 299.83 138.7C301.439 126.916 307.002 116.027 315.608 107.817C324.214 99.6072 335.352 94.5628 347.2 93.51C357.069 90.5977 367.479 90.0085 377.614 91.7885C387.749 93.5684 397.335 97.6693 405.622 103.77C413.909 109.871 420.671 117.807 425.381 126.956C430.091 136.106 432.619 146.221 432.77 156.51C433.09 178.84 421.77 199.93 404.54 214.09C384.93 230.22 360.74 234.19 336 229.12ZM347.66 95.46H347.46C336.034 96.4533 325.288 101.306 316.987 109.219C308.687 117.132 303.327 127.635 301.79 139C292.59 204.13 315.52 222.9 336.38 227.18C368.84 233.83 390.63 222.94 403.19 212.63C411.35 205.963 418.063 197.701 422.92 188.35C422.932 188.318 422.949 188.288 422.97 188.26C428.219 178.531 430.897 167.623 430.75 156.57C430.13 113.53 388.64 83.32 347.66 95.46Z" fill="#001933"/>
<path d="M395.672 244.04C395.922 244.063 396.292 244.1 396.768 244.155C397.719 244.265 399.095 244.449 400.784 244.742C404.164 245.33 408.794 246.359 413.794 248.12C423.808 251.649 435.229 258.089 441.144 269.737H441.145C445.779 278.839 445.309 287.712 445.001 291.832V291.833C443.005 319.013 437.632 377.723 429.131 455.21L265.954 455.379C270.329 419.657 277.371 362.247 278.426 353.561C281.333 329.782 283.474 312.2 287.216 298.339C290.952 284.501 296.276 274.404 305.534 265.592C318.345 253.391 333.61 248.466 344.485 246.235C344.528 246.292 344.577 246.358 344.635 246.431C344.866 246.724 345.214 247.139 345.692 247.638C346.649 248.635 348.123 249.967 350.204 251.325C354.37 254.044 360.956 256.86 370.676 257.329C380.447 257.801 386.733 254.418 390.575 250.887C392.491 249.126 393.793 247.335 394.617 245.982C395.029 245.305 395.322 244.737 395.513 244.335C395.566 244.223 395.609 244.122 395.646 244.037C395.655 244.038 395.663 244.039 395.672 244.04Z" fill="#007BFF" stroke="#007BFF"/>
<path d="M260.92 258.38C250.59 248.88 220.62 221.71 203.32 212.11C200.32 210.46 190.11 204.78 186.73 207.89C186.32 208.272 185.998 208.738 185.784 209.255C185.57 209.773 185.47 210.33 185.49 210.89C185.64 212.67 187.49 213.72 190.31 215.53C196.5 219.46 200.47 221.98 205.49 227.65C205.49 227.65 196.49 233.84 195.58 237.56C194.988 239.564 195.211 241.72 196.2 243.56C196.2 243.56 192.48 247.12 194.34 251.46C194.34 251.46 190.93 256.72 193.1 261.21C195.27 265.7 199.37 265.94 201.23 265.32C201.23 265.32 209.23 275.62 217.88 274.07L230.11 284.75C244.82 282.46 256.14 272.36 260.92 258.38Z" fill="white"/>
<path d="M217.57 275.12C209.66 276.18 202.64 268.55 200.86 266.44C198.31 266.95 194.35 266.1 192.2 261.64C190.2 257.44 192.41 252.81 193.2 251.35C191.9 247.67 193.95 244.61 194.96 243.35C194.156 241.406 194.023 239.249 194.58 237.22C195.42 233.87 201.51 229.22 203.96 227.39C194.4 216.99 184.84 215.39 184.47 210.88C184.44 210.177 184.563 209.476 184.833 208.827C185.103 208.177 185.511 207.595 186.03 207.12C189.53 203.89 197.84 207.9 203.78 211.19C219.85 220.12 246.88 244.1 261.56 257.61C261.703 257.741 261.805 257.912 261.853 258.1C261.901 258.288 261.893 258.486 261.83 258.67C256.95 272.96 245.35 283.34 230.24 285.67C229.62 285.83 230.45 286.36 217.57 275.12ZM230.42 283.68C244.52 281.32 255.08 271.68 259.75 258.68C245.04 245.16 218.56 221.68 202.84 212.99C191.84 206.92 188.48 207.66 187.41 208.64C187.119 208.913 186.887 209.243 186.729 209.609C186.571 209.976 186.489 210.371 186.49 210.77C186.73 213.77 196.69 216.15 206.24 226.94C206.335 227.046 206.406 227.171 206.448 227.306C206.491 227.442 206.504 227.585 206.487 227.726C206.47 227.867 206.423 228.002 206.35 228.124C206.276 228.245 206.177 228.35 206.06 228.43C203.65 230.09 197.23 235.01 196.55 237.76C196.014 239.499 196.175 241.378 197 243C197.129 243.195 197.185 243.428 197.16 243.66C197.134 243.892 197.028 244.108 196.86 244.27C196.73 244.39 193.67 247.42 195.23 251.05C195.295 251.201 195.322 251.366 195.308 251.53C195.294 251.694 195.24 251.852 195.15 251.99C195.15 251.99 192.08 256.85 193.97 260.77C195.97 264.93 199.64 264.77 200.89 264.36C201.085 264.295 201.296 264.292 201.492 264.351C201.689 264.41 201.863 264.529 201.99 264.69C202.07 264.79 209.7 274.49 217.67 273.07C218.38 273 217.62 272.5 230.42 283.68Z" fill="#001933"/>
<path d="M397.538 246.195C415.49 246.885 427.365 250.333 435.284 254.448C443.248 258.585 447.233 263.406 449.377 266.816V266.817C455.509 276.555 456.272 290.162 453.024 305.077C449.78 319.98 442.548 336.112 432.802 350.822C423.056 365.532 410.813 378.796 397.569 387.98C384.322 397.166 370.114 402.242 356.417 400.663C329.443 397.546 311.084 379.557 297.209 365.202C271.082 338.002 246.387 309.462 223.222 279.7L257.509 254.689L363.854 332.334L364.383 332.719L364.616 332.109L397.538 246.195Z" fill="#007BFF" stroke="#007BFF"/>
<path d="M339.152 90.3263C363.57 82.5477 383.161 83.1872 398.622 89.129C414.084 95.0714 425.471 106.339 433.438 119.922C449.387 147.116 451.567 183.492 445.301 204.568C442.127 215.241 442.258 223.108 444.314 229.539C446.368 235.96 450.324 240.891 454.678 245.709C463.391 255.352 473.75 264.62 474.671 284.733C475.593 304.875 466.732 318.847 457.627 327.798C453.072 332.276 448.459 335.494 444.984 337.593C443.248 338.642 441.796 339.41 440.781 339.915C440.611 340 440.452 340.076 440.307 340.146C440.336 340.068 440.369 339.989 440.4 339.904C440.74 338.997 441.212 337.679 441.744 336.028C442.807 332.728 444.111 328.097 445.071 322.774C446.989 312.146 447.555 298.673 442.018 287.527V287.526L441.79 287.082C436.944 277.872 428.147 276.137 418.872 274.352C409.4 272.529 399.331 270.646 391.619 261.125C385.281 253.293 382.899 244.084 382.637 233.328C382.374 222.557 384.238 210.284 386.354 196.347C386.524 195.254 386.956 192.582 387.849 190.08C388.295 188.829 388.849 187.645 389.525 186.729C390.203 185.811 390.97 185.206 391.836 185.019L391.835 185.018C392.981 184.774 393.951 185.317 395.265 186.02C396.535 186.699 398.044 187.463 400.054 187.206H400.055C402.195 186.93 403.88 185.638 405.086 184.327C406.296 183.013 407.069 181.629 407.376 181.086V181.085C409.341 177.595 409.895 173.167 409.272 169.212C408.652 165.27 406.839 161.68 403.933 159.979L403.93 159.977L403.686 159.842C401.164 158.511 398.719 159.056 396.482 159.662C394.114 160.304 392.03 160.98 389.953 160.164C387.907 159.36 385.881 157.123 384.594 151.828C383.307 146.536 382.785 138.291 383.669 125.665L383.743 124.611L382.881 125.222C381.602 126.128 380.513 127.92 379.595 129.985C378.666 132.074 377.875 134.534 377.233 136.876C376.591 139.221 376.094 141.46 375.759 143.112C375.591 143.939 375.463 144.62 375.377 145.094C375.364 145.168 375.351 145.237 375.34 145.301L335.942 135.235C327.985 130.242 326.103 122.873 326.217 116.693C326.274 113.59 326.836 110.796 327.385 108.776C327.659 107.767 327.929 106.953 328.13 106.394C328.23 106.114 328.314 105.898 328.372 105.753C328.401 105.68 328.423 105.625 328.438 105.589C328.445 105.571 328.451 105.558 328.455 105.549C328.457 105.545 328.458 105.542 328.459 105.54C328.459 105.539 328.459 105.538 328.459 105.537L328.455 105.535L327.633 105.001L301.914 132.943C301.126 129.08 299.61 118.013 306.077 107.307L306.423 106.747C311.768 98.3016 319.664 94.1998 326.366 92.2091C333.069 90.2185 338.543 90.3497 339 90.3497H339.078L339.152 90.3263Z" fill="#001933" stroke="#001933"/>
<path d="M357.865 153.866C362.064 152.695 366.501 152.678 370.709 153.816C374.924 154.956 378.752 157.213 381.791 160.348L381.803 160.36C381.875 160.429 381.925 160.519 381.945 160.618C381.966 160.716 381.956 160.818 381.918 160.911C381.88 161.003 381.814 161.083 381.73 161.138C381.647 161.193 381.548 161.222 381.448 161.22H381.438C381.372 161.22 381.306 161.208 381.245 161.183C381.184 161.158 381.129 161.121 381.082 161.075C378.195 158.069 374.549 155.898 370.53 154.792C366.507 153.686 362.259 153.688 358.237 154.798L358.221 154.802L358.205 154.808C358.08 154.852 357.942 154.844 357.822 154.786C357.703 154.729 357.611 154.626 357.567 154.5C357.524 154.375 357.531 154.237 357.589 154.118C357.645 154.001 357.744 153.911 357.865 153.866Z" fill="#001933" stroke="#001933"/>
<path d="M364.215 166.377C365.083 166.377 365.941 166.567 366.728 166.933C367.27 167.232 367.758 167.583 368.229 167.93C368.69 168.271 369.156 168.625 369.609 168.883C370.067 169.142 370.57 169.338 371.119 169.315C371.68 169.292 372.211 169.044 372.733 168.571L372.734 168.572C372.833 168.483 372.964 168.437 373.097 168.444C373.229 168.451 373.353 168.51 373.442 168.609C373.531 168.708 373.578 168.839 373.571 168.971C373.564 169.104 373.504 169.229 373.405 169.318L373.402 169.321C372.667 169.992 371.998 170.279 371.396 170.353C370.788 170.428 370.194 170.292 369.602 170.026C369.004 169.759 368.431 169.37 367.867 168.964C367.322 168.57 366.759 168.139 366.242 167.852L366.224 167.843L366.204 167.834L365.962 167.733C365.391 167.513 364.783 167.399 364.17 167.399C363.469 167.399 362.776 167.547 362.136 167.834H362.135C362.016 167.887 361.881 167.892 361.759 167.847C361.636 167.803 361.536 167.713 361.479 167.595C361.423 167.478 361.414 167.344 361.455 167.22C361.496 167.098 361.582 166.995 361.696 166.935C362.485 166.567 363.345 166.377 364.215 166.377Z" fill="#001933" stroke="#001933"/>
<path d="M363.85 166.35C366.942 166.35 369.45 168.857 369.45 171.95C369.45 175.042 366.942 177.55 363.85 177.55C360.757 177.55 358.25 175.042 358.25 171.95C358.25 168.857 360.757 166.35 363.85 166.35Z" fill="#001933" stroke="#001933"/>
<path d="M315.052 150.24C318.909 149.658 322.851 150.233 326.382 151.89C326.498 151.948 326.587 152.049 326.63 152.172C326.673 152.296 326.667 152.431 326.611 152.549C326.556 152.668 326.456 152.76 326.333 152.806C326.21 152.852 326.074 152.847 325.954 152.793C322.609 151.226 318.876 150.682 315.223 151.23C311.566 151.778 308.153 153.396 305.414 155.879L305.409 155.885L305.403 155.89C305.309 155.98 305.184 156.03 305.054 156.03H305.047C304.946 156.03 304.847 156 304.763 155.944C304.679 155.887 304.614 155.806 304.577 155.712C304.54 155.618 304.534 155.515 304.557 155.416C304.58 155.318 304.632 155.228 304.707 155.16V155.159C307.593 152.533 311.193 150.821 315.052 150.24Z" fill="#001933" stroke="#001933"/>
<path d="M314.129 162.944C314.962 162.687 315.842 162.618 316.705 162.739C317.57 162.859 318.398 163.168 319.13 163.644V163.645C319.24 163.719 319.316 163.834 319.342 163.964C319.367 164.094 319.34 164.23 319.266 164.34C319.191 164.45 319.076 164.527 318.945 164.552C318.815 164.577 318.679 164.55 318.569 164.476L318.559 164.468C317.968 164.092 317.306 163.843 316.613 163.738C315.921 163.632 315.214 163.673 314.538 163.858L314.517 163.864L314.496 163.871C313.937 164.078 313.313 164.426 312.713 164.741C312.092 165.067 311.467 165.375 310.835 165.56C310.208 165.743 309.601 165.797 309.014 165.64C308.431 165.484 307.815 165.107 307.188 164.335L307.177 164.322L307.165 164.309L307.104 164.228C307.086 164.199 307.071 164.167 307.06 164.135C307.037 164.071 307.027 164.003 307.031 163.935C307.036 163.867 307.054 163.8 307.085 163.74C307.116 163.679 307.159 163.625 307.212 163.581C307.265 163.538 307.326 163.506 307.392 163.487C307.457 163.468 307.526 163.462 307.594 163.471C307.661 163.48 307.726 163.503 307.785 163.537C307.844 163.572 307.895 163.618 307.936 163.673L307.944 163.687L307.955 163.698C308.405 164.242 308.897 164.562 309.45 164.663C309.991 164.763 310.516 164.64 311.007 164.448C311.493 164.259 312.004 163.976 312.51 163.706C313.024 163.432 313.554 163.158 314.129 162.944Z" fill="#001933" stroke="#001933"/>
<path d="M316.239 162.67C319.332 162.67 321.84 165.177 321.84 168.27C321.84 171.362 319.332 173.87 316.239 173.87C313.147 173.87 310.64 171.362 310.64 168.27C310.64 165.177 313.147 162.67 316.239 162.67Z" fill="#001933" stroke="#001933"/>
<path d="M338.702 166.16C338.826 166.117 338.962 166.124 339.08 166.18C339.198 166.236 339.29 166.336 339.336 166.458C339.381 166.581 339.377 166.717 339.323 166.836C337.818 169.992 336.378 173.467 335.383 176.314C334.885 177.737 334.495 179.015 334.264 180.022C334.148 180.524 334.07 180.973 334.04 181.344C334.012 181.691 334.018 182.057 334.145 182.336C334.264 182.6 334.471 182.805 334.696 182.964C334.924 183.124 335.199 183.257 335.495 183.37C336.088 183.596 336.831 183.762 337.619 183.883C339.195 184.124 341.04 184.194 342.442 184.15C342.574 184.15 342.701 184.203 342.794 184.296C342.888 184.39 342.94 184.517 342.94 184.65C342.94 184.782 342.888 184.91 342.794 185.004C342.7 185.098 342.573 185.149 342.44 185.15H342.432L342.423 185.151C341.123 185.195 339.107 185.154 337.261 184.816C336.337 184.646 335.475 184.406 334.772 184.075C334.066 183.743 333.563 183.34 333.294 182.871C333.177 182.668 333.098 182.337 333.09 181.851C333.082 181.373 333.144 180.791 333.269 180.125C333.517 178.793 334.001 177.182 334.6 175.497C335.794 172.135 337.416 168.543 338.419 166.411C338.477 166.294 338.579 166.204 338.702 166.16Z" fill="#001933" stroke="#001933"/>
<path d="M364.917 188.021C364.929 186.726 365.745 185.495 367.191 184.57C368.632 183.648 370.647 183.072 372.892 183.093C375.137 183.113 377.142 183.726 378.566 184.674C379.995 185.625 380.789 186.87 380.777 188.165C380.765 189.459 379.949 190.69 378.503 191.615C377.062 192.537 375.046 193.113 372.801 193.092C370.556 193.072 368.552 192.459 367.128 191.511C365.699 190.56 364.905 189.315 364.917 188.021Z" fill="#007BFF" stroke="#007BFF"/>
<path d="M303.166 185.929C303.178 184.635 303.994 183.404 305.44 182.479C306.881 181.557 308.896 180.981 311.141 181.001C313.386 181.022 315.391 181.634 316.815 182.582C318.244 183.533 319.038 184.779 319.026 186.073C319.014 187.367 318.198 188.598 316.752 189.523C315.311 190.445 313.295 191.021 311.05 191.001C308.805 190.98 306.801 190.368 305.377 189.42C303.948 188.469 303.154 187.223 303.166 185.929Z" fill="#007BFF" stroke="#007BFF"/>
<path d="M351.402 198.194C352.425 198.097 353.456 198.219 354.428 198.553L354.436 198.556L354.443 198.558C354.571 198.597 354.679 198.686 354.741 198.804C354.804 198.922 354.816 199.06 354.777 199.188C354.738 199.316 354.649 199.423 354.531 199.486C354.413 199.548 354.274 199.561 354.146 199.522C353.309 199.227 352.419 199.116 351.535 199.194C350.644 199.272 349.78 199.543 349.003 199.986L349 199.987C347.054 201.11 345.749 203.205 344.938 204.96C344.529 205.847 344.236 206.669 344.045 207.276C343.949 207.579 343.88 207.83 343.833 208.01C343.81 208.1 343.792 208.173 343.779 208.227C343.773 208.254 343.768 208.278 343.764 208.298C343.763 208.3 343.763 208.301 343.763 208.303C343.732 208.407 343.669 208.498 343.582 208.563C343.491 208.63 343.38 208.664 343.268 208.66L343.253 208.659L343.238 208.66C343.162 208.662 343.087 208.646 343.018 208.615C342.948 208.583 342.887 208.536 342.839 208.477C342.791 208.418 342.757 208.35 342.739 208.276C342.722 208.202 342.722 208.124 342.738 208.05L342.739 208.045C342.764 207.932 343.148 206.291 344.066 204.373C344.989 202.447 346.418 200.309 348.499 199.114L348.498 199.113C349.389 198.603 350.38 198.29 351.402 198.194Z" fill="#001933" stroke="#001933"/>
<path d="M370.72 369.62C370.562 369.619 370.406 369.58 370.266 369.507C370.126 369.434 370.005 369.329 369.913 369.2C369.821 369.071 369.761 368.922 369.738 368.766C369.715 368.61 369.729 368.45 369.78 368.3C374.78 353.61 360.25 339.44 360.1 339.3L286.1 276.18C286 276.095 285.918 275.99 285.859 275.873C285.799 275.756 285.763 275.629 285.753 275.498C285.743 275.367 285.758 275.235 285.799 275.11C285.84 274.985 285.905 274.87 285.99 274.77C286.075 274.67 286.18 274.588 286.297 274.529C286.414 274.469 286.541 274.433 286.672 274.423C286.803 274.413 286.935 274.428 287.06 274.469C287.185 274.51 287.3 274.575 287.4 274.66L361.47 337.82C364.276 340.642 366.688 343.831 368.64 347.3C372.9 354.85 373.95 362.3 371.7 368.95C371.63 369.152 371.497 369.326 371.32 369.446C371.144 369.567 370.934 369.628 370.72 369.62Z" fill="white"/>
<path d="M360.79 339.58C360.601 339.578 360.416 339.523 360.257 339.421C360.098 339.318 359.971 339.172 359.892 339.001C359.812 338.829 359.783 338.638 359.807 338.45C359.832 338.262 359.909 338.086 360.03 337.94L403.08 286.52C403.161 286.409 403.263 286.315 403.381 286.245C403.5 286.175 403.631 286.13 403.767 286.113C403.904 286.096 404.042 286.107 404.174 286.145C404.306 286.184 404.428 286.25 404.533 286.338C404.639 286.426 404.725 286.535 404.786 286.658C404.848 286.781 404.883 286.915 404.89 287.052C404.897 287.189 404.876 287.327 404.828 287.455C404.78 287.584 404.706 287.701 404.61 287.8L361.56 339.22C361.466 339.333 361.349 339.424 361.216 339.486C361.083 339.548 360.937 339.58 360.79 339.58Z" fill="white"/>
<path d="M360 407.44C358.473 407.444 356.949 407.327 355.44 407.09C324.18 402.09 267.1 334.93 264.68 332.09C264.595 331.99 264.531 331.873 264.491 331.748C264.452 331.623 264.437 331.491 264.448 331.36C264.459 331.229 264.496 331.102 264.556 330.985C264.617 330.868 264.7 330.765 264.8 330.68C264.901 330.595 265.017 330.531 265.142 330.491C265.267 330.451 265.399 330.437 265.53 330.448C265.661 330.459 265.789 330.496 265.905 330.556C266.022 330.617 266.126 330.699 266.21 330.8C283 350.57 330 401 355.71 405.12C371.49 407.61 391.07 394.94 404.71 383.86C414.099 376.174 422.888 367.783 431 358.76C431.085 358.656 431.189 358.57 431.308 358.508C431.426 358.445 431.556 358.407 431.689 358.395C431.823 358.384 431.957 358.399 432.084 358.441C432.212 358.482 432.33 358.549 432.431 358.636C432.532 358.724 432.614 358.831 432.673 358.952C432.732 359.072 432.766 359.203 432.774 359.336C432.781 359.47 432.762 359.604 432.716 359.73C432.671 359.856 432.601 359.972 432.51 360.07C430.74 362.1 390.91 407.44 360 407.44Z" fill="white"/>
<path d="M265.41 456.85C265.264 456.852 265.12 456.822 264.987 456.762C264.854 456.702 264.735 456.614 264.64 456.503C264.545 456.392 264.475 456.262 264.435 456.122C264.395 455.982 264.387 455.834 264.41 455.69L280.48 351.26C280.521 350.995 280.666 350.757 280.883 350.598C281.099 350.44 281.37 350.374 281.635 350.415C281.901 350.456 282.139 350.601 282.297 350.818C282.456 351.034 282.521 351.305 282.48 351.57L266.4 456C266.364 456.237 266.245 456.453 266.063 456.609C265.881 456.765 265.65 456.85 265.41 456.85Z" fill="white"/>
<path d="M305.05 122C304.89 122 304.732 121.961 304.589 121.887C304.447 121.813 304.324 121.706 304.232 121.574C304.14 121.443 304.081 121.291 304.06 121.132C304.038 120.973 304.056 120.811 304.11 120.66C305.455 117.286 307.201 114.087 309.31 111.13C313.96 104.55 319.71 100.24 325.93 98.66C326.058 98.6278 326.19 98.621 326.32 98.6401C326.45 98.6591 326.575 98.7035 326.688 98.7708C326.801 98.8382 326.899 98.9271 326.978 99.0324C327.056 99.1378 327.113 99.2576 327.145 99.385C327.178 99.5124 327.184 99.6448 327.165 99.7748C327.146 99.9048 327.102 100.03 327.035 100.143C326.967 100.255 326.878 100.354 326.773 100.432C326.668 100.511 326.548 100.568 326.42 100.6C312.48 104.14 306.05 121.18 305.99 121.35C305.919 121.541 305.79 121.706 305.622 121.822C305.454 121.939 305.255 122.001 305.05 122Z" fill="white"/>
<path d="M354.29 137.08C354.152 137.084 354.016 137.056 353.89 137C337.13 129.82 339.56 107.39 339.59 107.16C339.605 107.029 339.646 106.903 339.709 106.788C339.773 106.673 339.859 106.571 339.962 106.49C340.066 106.408 340.184 106.347 340.31 106.311C340.437 106.275 340.569 106.265 340.7 106.28C340.831 106.295 340.957 106.335 341.072 106.399C341.187 106.463 341.289 106.549 341.371 106.652C341.452 106.755 341.513 106.874 341.549 107C341.585 107.127 341.595 107.259 341.58 107.39C341.58 107.6 339.3 128.57 354.68 135.16C354.892 135.25 355.066 135.411 355.173 135.615C355.281 135.819 355.314 136.053 355.268 136.279C355.222 136.505 355.1 136.708 354.922 136.854C354.744 137 354.52 137.08 354.29 137.08Z" fill="white"/>
<path d="M369.42 137C363.58 135 358.94 130.15 355.99 123C354.645 119.709 353.737 116.257 353.29 112.73C353.277 112.599 353.29 112.466 353.328 112.34C353.366 112.213 353.429 112.096 353.512 111.994C353.596 111.891 353.699 111.807 353.815 111.744C353.931 111.682 354.059 111.643 354.19 111.63C354.321 111.617 354.454 111.63 354.58 111.668C354.707 111.706 354.824 111.769 354.927 111.852C355.029 111.936 355.113 112.039 355.176 112.155C355.238 112.271 355.277 112.399 355.29 112.53C355.29 112.71 357.29 130.77 370.07 135.15C370.269 135.268 370.42 135.451 370.499 135.668C370.578 135.885 370.579 136.123 370.503 136.341C370.426 136.559 370.277 136.744 370.079 136.864C369.882 136.984 369.649 137.032 369.42 137Z" fill="white"/>
<path d="M416.21 263.17C384.64 251.86 394.55 199.01 394.66 198.48C394.711 198.215 394.864 197.98 395.088 197.829C395.311 197.677 395.585 197.62 395.85 197.67C396.116 197.72 396.35 197.874 396.502 198.097C396.654 198.32 396.711 198.595 396.66 198.86C396.56 199.38 386.96 250.55 416.92 261.29C417.17 261.384 417.371 261.573 417.481 261.816C417.591 262.059 417.599 262.336 417.505 262.585C417.411 262.834 417.222 263.036 416.979 263.146C416.736 263.255 416.46 263.264 416.21 263.17Z" fill="white"/>
<path d="M455.43 307.93C455.271 307.929 455.114 307.891 454.973 307.817C454.831 307.744 454.71 307.637 454.618 307.507C454.526 307.377 454.466 307.227 454.444 307.069C454.422 306.911 454.438 306.75 454.49 306.6C454.59 306.3 464.74 276.46 441 263.1C416.14 249.1 409.6 224.1 409.54 223.81C409.477 223.554 409.517 223.283 409.651 223.057C409.786 222.83 410.005 222.666 410.26 222.6C410.388 222.567 410.52 222.559 410.651 222.578C410.781 222.596 410.907 222.64 411.02 222.707C411.133 222.774 411.232 222.862 411.311 222.967C411.39 223.073 411.448 223.193 411.48 223.32C411.54 223.57 417.89 247.8 441.98 261.32C467.19 275.5 456.48 306.91 456.37 307.22C456.309 307.423 456.185 307.601 456.016 307.728C455.847 307.856 455.642 307.926 455.43 307.93Z" fill="white"/>
<path d="M312.94 247.83C312.727 247.83 312.521 247.761 312.349 247.635C312.178 247.509 312.052 247.332 311.988 247.129C311.925 246.926 311.927 246.708 311.996 246.507C312.065 246.306 312.196 246.132 312.37 246.01C320.16 240.61 319.23 225.43 319.22 225.28C319.211 225.149 319.227 225.017 319.269 224.892C319.31 224.767 319.376 224.651 319.463 224.552C319.549 224.452 319.654 224.371 319.772 224.312C319.89 224.254 320.019 224.219 320.15 224.21C320.414 224.194 320.673 224.282 320.872 224.456C321.07 224.631 321.192 224.876 321.21 225.14C321.26 225.81 322.21 241.61 313.51 247.66C313.342 247.773 313.143 247.832 312.94 247.83Z" fill="white"/>
<path d="M205.674 227.495C208.065 226.54 211.317 225.95 214.945 227.255H214.946C215.067 227.303 215.165 227.396 215.219 227.514C215.272 227.633 215.278 227.768 215.233 227.89C215.189 228.013 215.098 228.114 214.981 228.171C214.865 228.227 214.73 228.236 214.606 228.195C211.237 226.982 208.175 227.579 205.968 228.472C204.863 228.919 203.965 229.443 203.34 229.858C203.027 230.066 202.781 230.246 202.61 230.378C202.448 230.503 202.332 230.602 202.348 230.589L202.335 230.599L202.323 230.61C202.233 230.692 202.115 230.737 201.993 230.739C201.892 230.739 201.794 230.71 201.71 230.653C201.626 230.596 201.561 230.514 201.524 230.419C201.488 230.323 201.482 230.22 201.506 230.121C201.53 230.022 201.584 229.932 201.66 229.865L201.668 229.858C201.763 229.771 203.272 228.453 205.674 227.495Z" fill="#001933" stroke="#001933"/>
<path d="M204.702 238.159C206.061 237.876 208.125 238.106 209.943 238.44C211.675 238.759 213.09 239.152 213.31 239.21H213.311C213.438 239.247 213.545 239.333 213.608 239.449C213.672 239.565 213.688 239.703 213.65 239.83C213.613 239.957 213.526 240.064 213.41 240.128C213.353 240.159 213.29 240.18 213.225 240.188C213.159 240.195 213.093 240.188 213.03 240.17H213.029C212.272 239.95 210.803 239.583 209.257 239.327C207.733 239.075 206.047 238.914 204.904 239.161C204.321 239.287 203.6 239.589 202.847 239.966C202.085 240.347 201.258 240.821 200.453 241.313C198.849 242.296 197.309 243.366 196.51 243.961C196.423 244.021 196.32 244.053 196.214 244.05H196.193C196.087 244.051 195.983 244.019 195.896 243.957C195.81 243.895 195.745 243.808 195.712 243.707C195.679 243.606 195.678 243.498 195.711 243.396C195.744 243.295 195.808 243.208 195.894 243.146L195.897 243.143C196.199 242.92 197.705 241.813 199.496 240.688C201.311 239.549 203.337 238.443 204.702 238.159Z" fill="#001933" stroke="#001933"/>
<path d="M197.961 249.905C199.988 249.416 202.298 249.009 203.804 249.185C206.071 249.524 208.291 250.125 210.42 250.975C210.532 251.031 210.619 251.125 210.664 251.242C210.71 251.36 210.709 251.492 210.661 251.61C210.613 251.728 210.522 251.823 210.406 251.876C210.292 251.929 210.162 251.935 210.042 251.896C208.004 251.09 205.882 250.514 203.717 250.176L203.707 250.174L203.696 250.173L203.4 250.148C202.689 250.107 201.84 250.184 200.97 250.319C199.967 250.474 198.899 250.71 197.92 250.955C196.94 251.199 196.04 251.454 195.372 251.646C195.036 251.743 194.763 251.823 194.563 251.879C194.464 251.908 194.388 251.928 194.334 251.942C194.325 251.944 194.317 251.945 194.311 251.947C194.203 251.94 194.099 251.9 194.017 251.83C193.927 251.752 193.866 251.646 193.848 251.529C193.829 251.412 193.853 251.291 193.915 251.19C193.977 251.089 194.073 251.012 194.186 250.975L194.193 250.972C194.314 250.931 195.955 250.389 197.961 249.905Z" fill="#001933" stroke="#001933"/>
<path d="M201.239 257.258C201.308 257.266 201.374 257.288 201.434 257.323C201.493 257.359 201.545 257.406 201.585 257.462L201.597 257.479L201.61 257.494L202.957 259.071V259.072C203.606 259.846 203.942 260.835 203.899 261.844C203.857 262.853 203.438 263.81 202.727 264.527C202.065 265.189 201.76 265.512 201.545 265.689C201.449 265.768 201.405 265.788 201.385 265.795C201.365 265.802 201.332 265.809 201.231 265.809C201.133 265.808 201.037 265.78 200.955 265.725C200.873 265.67 200.809 265.591 200.771 265.499C200.734 265.408 200.724 265.307 200.744 265.21C200.764 265.113 200.813 265.025 200.883 264.955L200.884 264.953L202.024 263.814L202.025 263.812C202.558 263.273 202.871 262.555 202.902 261.798C202.933 261.041 202.68 260.299 202.193 259.719L202.191 259.717L200.852 258.137L200.839 258.121L200.824 258.107C200.776 258.058 200.738 258 200.713 257.936C200.688 257.872 200.676 257.802 200.679 257.734C200.682 257.665 200.699 257.596 200.729 257.534C200.76 257.473 200.803 257.418 200.855 257.373C200.908 257.329 200.969 257.295 201.035 257.276C201.101 257.256 201.171 257.25 201.239 257.258Z" fill="#001933" stroke="#001933"/>
<path d="M404.064 166.305C404.198 166.287 404.334 166.325 404.44 166.407C404.547 166.489 404.616 166.611 404.634 166.744C404.651 166.878 404.615 167.013 404.533 167.12C404.451 167.227 404.329 167.297 404.195 167.314H404.194L397.145 168.244L395.881 168.411L396.921 169.148C397.913 169.851 398.716 170.788 399.259 171.876C399.802 172.964 400.068 174.169 400.034 175.385C400 176.6 399.666 177.789 399.062 178.845C398.46 179.898 397.607 180.787 396.579 181.432C396.497 181.48 396.404 181.504 396.31 181.501L396.296 181.5H396.283C396.174 181.501 396.067 181.467 395.979 181.402C395.892 181.337 395.828 181.245 395.797 181.14C395.766 181.036 395.77 180.923 395.81 180.821C395.849 180.719 395.921 180.633 396.014 180.575L396.018 180.572C397.159 179.85 398.043 178.786 398.544 177.531C399.044 176.277 399.135 174.896 398.805 173.587C398.474 172.277 397.738 171.105 396.702 170.238C395.666 169.372 394.382 168.855 393.035 168.762L393.018 168.76H393C392.867 168.76 392.74 168.707 392.646 168.613C392.553 168.519 392.5 168.392 392.5 168.26C392.5 168.127 392.553 168 392.646 167.906C392.74 167.812 392.867 167.76 393 167.76H393.033L393.065 167.756L404.065 166.305L404.064 166.305Z" fill="#001933" stroke="#001933"/>
</g>
<defs>
<clipPath id="clip0_9405_46202">
<rect width="512" height="512" fill="white"/>
</clipPath>
</defs>
</svg>
